solid OpenSCAD_Model
  facet normal -0.000000 0.000000 -1.000000
    outer loop
      vertex -22.000000 0.000000 0.000000
      vertex -21.769003 2.197788 0.000000
      vertex -21.769003 -2.197788 0.000000
    endloop
  endfacet
  facet normal 0.000000 -0.000000 -1.000000
    outer loop
      vertex -21.769003 -2.197788 0.000000
      vertex -21.769003 2.197788 0.000000
      vertex -18.769003 2.197788 0.000000
    endloop
  endfacet
  facet normal 0.000000 0.000000 -1.000000
    outer loop
      vertex -18.769003 2.197788 0.000000
      vertex -18.584804 3.950322 0.000000
      vertex -17.357364 7.727996 0.000000
    endloop
  endfacet
  facet normal 0.000000 0.000000 -1.000000
    outer loop
      vertex -18.769003 2.197788 0.000000
      vertex -17.357364 7.727996 0.000000
      vertex -15.371323 11.167920 0.000000
    endloop
  endfacet
  facet normal 0.000000 0.000000 -1.000000
    outer loop
      vertex -18.769003 2.197788 0.000000
      vertex -15.371323 11.167920 0.000000
      vertex -12.713482 14.119752 0.000000
    endloop
  endfacet
  facet normal 0.000000 0.000000 -1.000000
    outer loop
      vertex -18.769003 2.197788 0.000000
      vertex -12.713482 14.119752 0.000000
      vertex -9.500000 16.454483 0.000000
    endloop
  endfacet
  facet normal 0.000000 0.000000 -1.000000
    outer loop
      vertex -11.174481 12.410519 0.000000
      vertex -9.500000 16.454483 0.000000
      vertex -5.871323 18.070074 0.000000
    endloop
  endfacet
  facet normal 0.000000 0.000000 -1.000000
    outer loop
      vertex 5.160584 15.882644 0.000000
      vertex 7.481162 17.353328 0.000000
      vertex 11.000000 19.052559 0.000000
    endloop
  endfacet
  facet normal 0.000000 -0.000000 -1.000000
    outer loop
      vertex -5.160584 15.882644 0.000000
      vertex -5.871323 18.070074 0.000000
      vertex -1.986041 18.895916 0.000000
    endloop
  endfacet
  facet normal 0.000000 -0.000000 -1.000000
    outer loop
      vertex -1.745625 16.608516 0.000000
      vertex -1.986041 18.895916 0.000000
      vertex 1.986041 18.895916 0.000000
    endloop
  endfacet
  facet normal 0.000000 0.000000 -1.000000
    outer loop
      vertex 1.745625 16.608516 0.000000
      vertex 1.986041 18.895916 0.000000
      vertex 5.871323 18.070074 0.000000
    endloop
  endfacet
  facet normal 0.000000 0.000000 -1.000000
    outer loop
      vertex 5.160584 15.882644 0.000000
      vertex 5.871323 18.070074 0.000000
      vertex 7.481162 17.353328 0.000000
    endloop
  endfacet
  facet normal 0.000000 0.000000 -1.000000
    outer loop
      vertex 7.481162 17.353328 0.000000
      vertex 8.981162 19.951404 0.000000
      vertex 11.000000 19.052559 0.000000
    endloop
  endfacet
  facet normal 0.000000 0.000000 -1.000000
    outer loop
      vertex 5.980272 15.517695 0.000000
      vertex 11.000000 19.052559 0.000000
      vertex 12.787842 17.753616 0.000000
    endloop
  endfacet
  facet normal 0.000000 0.000000 -1.000000
    outer loop
      vertex 2.159039 11.273787 0.000000
      vertex 12.787842 17.753616 0.000000
      vertex 11.287842 15.155540 0.000000
    endloop
  endfacet
  facet normal 0.000000 0.000000 -1.000000
    outer loop
      vertex -3.947441 6.837169 0.000000
      vertex 11.287842 15.155540 0.000000
      vertex 12.713482 14.119752 0.000000
    endloop
  endfacet
  facet normal -0.000000 0.000000 -1.000000
    outer loop
      vertex 11.174481 12.410519 0.000000
      vertex 12.713482 14.119752 0.000000
      vertex 15.371323 11.167920 0.000000
    endloop
  endfacet
  facet normal -0.000000 0.000000 -1.000000
    outer loop
      vertex 13.510584 9.816014 0.000000
      vertex 15.371323 11.167920 0.000000
      vertex 17.357364 7.727996 0.000000
    endloop
  endfacet
  facet normal -0.000000 0.000000 -1.000000
    outer loop
      vertex 15.256209 6.792502 0.000000
      vertex 17.357364 7.727996 0.000000
      vertex 18.584804 3.950322 0.000000
    endloop
  endfacet
  facet normal 0.000000 0.000000 -1.000000
    outer loop
      vertex 8.683866 -7.506676 0.000000
      vertex -10.842905 -3.767110 0.000000
      vertex -16.428854 -2.579780 0.000000
    endloop
  endfacet
  facet normal -0.000000 0.000000 -1.000000
    outer loop
      vertex 16.335065 -3.472125 0.000000
      vertex 19.000000 0.000000 0.000000
      vertex 18.584804 -3.950322 0.000000
    endloop
  endfacet
  facet normal -0.000000 0.000000 -1.000000
    outer loop
      vertex 15.256209 -6.792502 0.000000
      vertex 18.584804 -3.950322 0.000000
      vertex 17.357364 -7.727996 0.000000
    endloop
  endfacet
  facet normal -0.000000 0.000000 -1.000000
    outer loop
      vertex 13.510584 -9.816014 0.000000
      vertex 17.357364 -7.727996 0.000000
      vertex 15.371323 -11.167920 0.000000
    endloop
  endfacet
  facet normal -0.000000 0.000000 -1.000000
    outer loop
      vertex 10.448583 -12.937915 0.000000
      vertex 15.371323 -11.167920 0.000000
      vertex 12.713482 -14.119752 0.000000
    endloop
  endfacet
  facet normal 0.000000 0.000000 -1.000000
    outer loop
      vertex 2.159039 -11.273787 0.000000
      vertex 12.713482 -14.119752 0.000000
      vertex 11.287842 -15.155540 0.000000
    endloop
  endfacet
  facet normal -0.000000 0.000000 -1.000000
    outer loop
      vertex 16.335065 3.472125 0.000000
      vertex 18.584804 3.950322 0.000000
      vertex 16.700000 0.000000 0.000000
    endloop
  endfacet
  facet normal 0.000000 0.000000 -1.000000
    outer loop
      vertex 5.160584 -15.882644 0.000000
      vertex 12.787842 -17.753616 0.000000
      vertex 11.000000 -19.052559 0.000000
    endloop
  endfacet
  facet normal 0.000000 0.000000 -1.000000
    outer loop
      vertex 7.481162 -17.353328 0.000000
      vertex 11.000000 -19.052559 0.000000
      vertex 8.981162 -19.951404 0.000000
    endloop
  endfacet
  facet normal 0.000000 0.000000 -1.000000
    outer loop
      vertex -13.510584 -9.816014 0.000000
      vertex -18.584804 -3.950322 0.000000
      vertex -15.256209 -6.792502 0.000000
    endloop
  endfacet
  facet normal 0.000000 0.000000 -1.000000
    outer loop
      vertex -17.357364 -7.727996 0.000000
      vertex -12.713482 -14.119752 0.000000
      vertex -15.371323 -11.167920 0.000000
    endloop
  endfacet
  facet normal 0.000000 0.000000 -1.000000
    outer loop
      vertex -5.160584 -15.882644 0.000000
      vertex 1.986041 -18.895916 0.000000
      vertex -1.986041 -18.895916 0.000000
    endloop
  endfacet
  facet normal 0.000000 0.000000 -1.000000
    outer loop
      vertex -8.350000 -14.462624 0.000000
      vertex -1.986041 -18.895916 0.000000
      vertex -5.871323 -18.070074 0.000000
    endloop
  endfacet
  facet normal 0.000000 0.000000 -1.000000
    outer loop
      vertex -17.357364 -7.727996 0.000000
      vertex -9.500000 -16.454483 0.000000
      vertex -12.713482 -14.119752 0.000000
    endloop
  endfacet
  facet normal 0.000000 0.000000 -1.000000
    outer loop
      vertex 4.125000 0.000000 0.000000
      vertex 7.894882 0.000000 0.000000
      vertex 3.652506 -1.916983 0.000000
    endloop
  endfacet
  facet normal 0.000000 0.000000 -1.000000
    outer loop
      vertex -1.462745 -3.856942 0.000000
      vertex -18.769003 -2.197788 0.000000
      vertex -3.087607 -2.735381 0.000000
    endloop
  endfacet
  facet normal 0.000000 0.000000 -1.000000
    outer loop
      vertex -16.335065 -3.472125 0.000000
      vertex -18.769003 -2.197788 0.000000
      vertex -16.428854 -2.579780 0.000000
    endloop
  endfacet
  facet normal 0.000000 0.000000 -1.000000
    outer loop
      vertex -16.335065 3.472125 0.000000
      vertex -21.769003 -2.197788 0.000000
      vertex -18.769003 2.197788 0.000000
    endloop
  endfacet
  facet normal 0.000000 0.000000 -1.000000
    outer loop
      vertex -15.256209 -6.792502 0.000000
      vertex -18.584804 -3.950322 0.000000
      vertex -18.769003 -2.197788 0.000000
    endloop
  endfacet
  facet normal 0.000000 0.000000 -1.000000
    outer loop
      vertex 10.448583 -12.937915 0.000000
      vertex -3.947441 -6.837169 0.000000
      vertex -10.842905 -3.767110 0.000000
    endloop
  endfacet
  facet normal 0.000000 0.000000 -1.000000
    outer loop
      vertex -3.947441 -6.837169 0.000000
      vertex 12.713482 -14.119752 0.000000
      vertex 2.159039 -11.273787 0.000000
    endloop
  endfacet
  facet normal 0.000000 0.000000 -1.000000
    outer loop
      vertex -5.160584 -15.882644 0.000000
      vertex -1.986041 -18.895916 0.000000
      vertex -8.350000 -14.462624 0.000000
    endloop
  endfacet
  facet normal 0.000000 0.000000 -1.000000
    outer loop
      vertex -1.745625 -16.608516 0.000000
      vertex 1.986041 -18.895916 0.000000
      vertex -5.160584 -15.882644 0.000000
    endloop
  endfacet
  facet normal 0.000000 0.000000 -1.000000
    outer loop
      vertex 1.745625 -16.608516 0.000000
      vertex 1.986041 -18.895916 0.000000
      vertex -1.745625 -16.608516 0.000000
    endloop
  endfacet
  facet normal 0.000000 0.000000 -1.000000
    outer loop
      vertex -15.256209 -6.792502 0.000000
      vertex -18.769003 -2.197788 0.000000
      vertex -16.335065 -3.472125 0.000000
    endloop
  endfacet
  facet normal 0.000000 0.000000 -1.000000
    outer loop
      vertex 5.980272 -15.517695 0.000000
      vertex 12.787842 -17.753616 0.000000
      vertex 5.160584 -15.882644 0.000000
    endloop
  endfacet
  facet normal 0.000000 0.000000 -1.000000
    outer loop
      vertex 5.160584 -15.882644 0.000000
      vertex 7.481162 -17.353328 0.000000
      vertex 5.871323 -18.070074 0.000000
    endloop
  endfacet
  facet normal 0.000000 0.000000 -1.000000
    outer loop
      vertex 5.160584 -15.882644 0.000000
      vertex 5.871323 -18.070074 0.000000
      vertex 1.745625 -16.608516 0.000000
    endloop
  endfacet
  facet normal 0.000000 0.000000 -1.000000
    outer loop
      vertex 2.159039 -11.273787 0.000000
      vertex 11.287842 -15.155540 0.000000
      vertex 12.787842 -17.753616 0.000000
    endloop
  endfacet
  facet normal 0.000000 0.000000 -1.000000
    outer loop
      vertex 2.159039 -11.273787 0.000000
      vertex 12.787842 -17.753616 0.000000
      vertex 5.980272 -15.517695 0.000000
    endloop
  endfacet
  facet normal 0.000000 0.000000 -1.000000
    outer loop
      vertex -10.842905 3.767110 0.000000
      vertex -21.769003 -2.197788 0.000000
      vertex -16.428854 2.579780 0.000000
    endloop
  endfacet
  facet normal 0.000000 0.000000 -1.000000
    outer loop
      vertex -21.769003 -2.197788 0.000000
      vertex -16.335065 3.472125 0.000000
      vertex -16.428854 2.579780 0.000000
    endloop
  endfacet
  facet normal 0.000000 0.000000 -1.000000
    outer loop
      vertex -3.947441 6.837169 0.000000
      vertex -21.769003 -2.197788 0.000000
      vertex -10.842905 3.767110 0.000000
    endloop
  endfacet
  facet normal -0.000000 0.000000 -1.000000
    outer loop
      vertex 2.159039 11.273787 0.000000
      vertex 11.287842 15.155540 0.000000
      vertex -3.947441 6.837169 0.000000
    endloop
  endfacet
  facet normal 0.000000 0.000000 -1.000000
    outer loop
      vertex -21.769003 -2.197788 0.000000
      vertex -3.947441 6.837169 0.000000
      vertex 12.713482 14.119752 0.000000
    endloop
  endfacet
  facet normal -0.000000 0.000000 -1.000000
    outer loop
      vertex 5.980272 15.517695 0.000000
      vertex 12.787842 17.753616 0.000000
      vertex 2.159039 11.273787 0.000000
    endloop
  endfacet
  facet normal 0.000000 0.000000 -1.000000
    outer loop
      vertex 13.510584 9.816014 0.000000
      vertex 17.357364 7.727996 0.000000
      vertex 15.256209 6.792502 0.000000
    endloop
  endfacet
  facet normal 0.000000 0.000000 -1.000000
    outer loop
      vertex 15.256209 6.792502 0.000000
      vertex 18.584804 3.950322 0.000000
      vertex 16.335065 3.472125 0.000000
    endloop
  endfacet
  facet normal 0.000000 0.000000 -1.000000
    outer loop
      vertex -5.160584 15.882644 0.000000
      vertex -1.986041 18.895916 0.000000
      vertex -1.745625 16.608516 0.000000
    endloop
  endfacet
  facet normal 0.000000 0.000000 -1.000000
    outer loop
      vertex -8.350000 14.462624 0.000000
      vertex -5.871323 18.070074 0.000000
      vertex -5.160584 15.882644 0.000000
    endloop
  endfacet
  facet normal -0.000000 0.000000 -1.000000
    outer loop
      vertex -1.745625 16.608516 0.000000
      vertex 1.986041 18.895916 0.000000
      vertex 1.745625 16.608516 0.000000
    endloop
  endfacet
  facet normal 0.000000 0.000000 -1.000000
    outer loop
      vertex -13.510584 9.816014 0.000000
      vertex -9.500000 16.454483 0.000000
      vertex -11.174481 12.410519 0.000000
    endloop
  endfacet
  facet normal 0.000000 -0.000000 -1.000000
    outer loop
      vertex -15.256209 6.792502 0.000000
      vertex -18.769003 2.197788 0.000000
      vertex -13.510584 9.816014 0.000000
    endloop
  endfacet
  facet normal 0.000000 0.000000 -1.000000
    outer loop
      vertex -18.769003 2.197788 0.000000
      vertex -9.500000 16.454483 0.000000
      vertex -13.510584 9.816014 0.000000
    endloop
  endfacet
  facet normal 0.000000 -0.000000 -1.000000
    outer loop
      vertex -4.005135 0.987177 0.000000
      vertex -21.769003 -2.197788 0.000000
      vertex -3.087607 2.735381 0.000000
    endloop
  endfacet
  facet normal -0.000000 0.000000 -1.000000
    outer loop
      vertex 1.745625 16.608516 0.000000
      vertex 5.871323 18.070074 0.000000
      vertex 5.160584 15.882644 0.000000
    endloop
  endfacet
  facet normal 0.000000 -0.000000 -1.000000
    outer loop
      vertex 7.894882 0.000000 0.000000
      vertex 2.343267 3.394808 0.000000
      vertex 8.683866 7.506676 0.000000
    endloop
  endfacet
  facet normal 0.000000 0.000000 -1.000000
    outer loop
      vertex 8.683866 -7.506676 0.000000
      vertex 3.652506 -1.916983 0.000000
      vertex 7.894882 0.000000 0.000000
    endloop
  endfacet
  facet normal 0.000000 0.000000 -1.000000
    outer loop
      vertex -1.462745 -3.856942 0.000000
      vertex -16.428854 -2.579780 0.000000
      vertex -18.769003 -2.197788 0.000000
    endloop
  endfacet
  facet normal 0.000000 0.000000 -1.000000
    outer loop
      vertex 8.683866 -7.506676 0.000000
      vertex 2.343267 -3.394808 0.000000
      vertex 3.652506 -1.916983 0.000000
    endloop
  endfacet
  facet normal 0.000000 0.000000 -1.000000
    outer loop
      vertex 8.683866 -7.506676 0.000000
      vertex 0.497214 -4.094924 0.000000
      vertex 2.343267 -3.394808 0.000000
    endloop
  endfacet
  facet normal 0.000000 0.000000 -1.000000
    outer loop
      vertex -4.005135 -0.987177 0.000000
      vertex -21.769003 -2.197788 0.000000
      vertex -4.005135 0.987177 0.000000
    endloop
  endfacet
  facet normal 0.000000 -0.000000 -1.000000
    outer loop
      vertex 8.683866 7.506676 0.000000
      vertex -21.769003 -2.197788 0.000000
      vertex 10.448583 12.937915 0.000000
    endloop
  endfacet
  facet normal 0.000000 -0.000000 -1.000000
    outer loop
      vertex -3.087607 2.735381 0.000000
      vertex -21.769003 -2.197788 0.000000
      vertex -1.462745 3.856942 0.000000
    endloop
  endfacet
  facet normal 0.000000 0.000000 -1.000000
    outer loop
      vertex 8.683866 7.506676 0.000000
      vertex -1.462745 3.856942 0.000000
      vertex -21.769003 -2.197788 0.000000
    endloop
  endfacet
  facet normal 0.000000 0.000000 -1.000000
    outer loop
      vertex 7.894882 0.000000 0.000000
      vertex 3.652506 1.916983 0.000000
      vertex 2.343267 3.394808 0.000000
    endloop
  endfacet
  facet normal 0.000000 0.000000 -1.000000
    outer loop
      vertex 7.894882 0.000000 0.000000
      vertex 4.125000 0.000000 0.000000
      vertex 3.652506 1.916983 0.000000
    endloop
  endfacet
  facet normal 0.000000 0.000000 -1.000000
    outer loop
      vertex 16.700000 0.000000 0.000000
      vertex 19.000000 0.000000 0.000000
      vertex 16.335065 -3.472125 0.000000
    endloop
  endfacet
  facet normal 0.000000 0.000000 -1.000000
    outer loop
      vertex 8.683866 -7.506676 0.000000
      vertex -16.428854 -2.579780 0.000000
      vertex -1.462745 -3.856942 0.000000
    endloop
  endfacet
  facet normal -0.000000 0.000000 -1.000000
    outer loop
      vertex 16.700000 0.000000 0.000000
      vertex 18.584804 3.950322 0.000000
      vertex 19.000000 0.000000 0.000000
    endloop
  endfacet
  facet normal 0.000000 -0.000000 -1.000000
    outer loop
      vertex -16.335065 3.472125 0.000000
      vertex -18.769003 2.197788 0.000000
      vertex -15.256209 6.792502 0.000000
    endloop
  endfacet
  facet normal -0.000000 0.000000 -1.000000
    outer loop
      vertex 11.174481 -12.410519 0.000000
      vertex 15.371323 -11.167920 0.000000
      vertex 10.448583 -12.937915 0.000000
    endloop
  endfacet
  facet normal 0.000000 0.000000 -1.000000
    outer loop
      vertex -3.947441 -6.837169 0.000000
      vertex 10.448583 -12.937915 0.000000
      vertex 12.713482 -14.119752 0.000000
    endloop
  endfacet
  facet normal 0.000000 0.000000 -1.000000
    outer loop
      vertex 13.510584 -9.816014 0.000000
      vertex 15.371323 -11.167920 0.000000
      vertex 11.174481 -12.410519 0.000000
    endloop
  endfacet
  facet normal 0.000000 0.000000 -1.000000
    outer loop
      vertex 15.256209 -6.792502 0.000000
      vertex 17.357364 -7.727996 0.000000
      vertex 13.510584 -9.816014 0.000000
    endloop
  endfacet
  facet normal 0.000000 0.000000 -1.000000
    outer loop
      vertex 8.683866 -7.506676 0.000000
      vertex -1.462745 -3.856942 0.000000
      vertex 0.497214 -4.094924 0.000000
    endloop
  endfacet
  facet normal 0.000000 0.000000 -1.000000
    outer loop
      vertex -3.087607 -2.735381 0.000000
      vertex -18.769003 -2.197788 0.000000
      vertex -4.005135 -0.987177 0.000000
    endloop
  endfacet
  facet normal 0.000000 -0.000000 -1.000000
    outer loop
      vertex -18.769003 -2.197788 0.000000
      vertex -21.769003 -2.197788 0.000000
      vertex -4.005135 -0.987177 0.000000
    endloop
  endfacet
  facet normal 0.000000 -0.000000 -1.000000
    outer loop
      vertex 2.343267 3.394808 0.000000
      vertex 0.497214 4.094924 0.000000
      vertex 8.683866 7.506676 0.000000
    endloop
  endfacet
  facet normal 0.000000 0.000000 -1.000000
    outer loop
      vertex 11.174481 12.410519 0.000000
      vertex 15.371323 11.167920 0.000000
      vertex 13.510584 9.816014 0.000000
    endloop
  endfacet
  facet normal -0.000000 0.000000 -1.000000
    outer loop
      vertex 10.448583 12.937915 0.000000
      vertex 12.713482 14.119752 0.000000
      vertex 11.174481 12.410519 0.000000
    endloop
  endfacet
  facet normal 0.000000 0.000000 -1.000000
    outer loop
      vertex 8.683866 7.506676 0.000000
      vertex 0.497214 4.094924 0.000000
      vertex -1.462745 3.856942 0.000000
    endloop
  endfacet
  facet normal 0.000000 0.000000 -1.000000
    outer loop
      vertex -21.769003 -2.197788 0.000000
      vertex 12.713482 14.119752 0.000000
      vertex 10.448583 12.937915 0.000000
    endloop
  endfacet
  facet normal 0.000000 0.000000 -1.000000
    outer loop
      vertex 16.335065 -3.472125 0.000000
      vertex 18.584804 -3.950322 0.000000
      vertex 15.256209 -6.792502 0.000000
    endloop
  endfacet
  facet normal 0.000000 0.000000 -1.000000
    outer loop
      vertex 10.448583 -12.937915 0.000000
      vertex -10.842905 -3.767110 0.000000
      vertex 8.683866 -7.506676 0.000000
    endloop
  endfacet
  facet normal 0.000000 -0.000000 -1.000000
    outer loop
      vertex 1.986041 -18.895916 0.000000
      vertex 1.745625 -16.608516 0.000000
      vertex 5.871323 -18.070074 0.000000
    endloop
  endfacet
  facet normal 0.000000 0.000000 -1.000000
    outer loop
      vertex -8.350000 -14.462624 0.000000
      vertex -5.871323 -18.070074 0.000000
      vertex -11.174481 -12.410519 0.000000
    endloop
  endfacet
  facet normal 0.000000 0.000000 -1.000000
    outer loop
      vertex -11.174481 -12.410519 0.000000
      vertex -5.871323 -18.070074 0.000000
      vertex -9.500000 -16.454483 0.000000
    endloop
  endfacet
  facet normal 0.000000 0.000000 -1.000000
    outer loop
      vertex -13.510584 -9.816014 0.000000
      vertex -11.174481 -12.410519 0.000000
      vertex -9.500000 -16.454483 0.000000
    endloop
  endfacet
  facet normal 0.000000 0.000000 -1.000000
    outer loop
      vertex -18.584804 -3.950322 0.000000
      vertex -13.510584 -9.816014 0.000000
      vertex -9.500000 -16.454483 0.000000
    endloop
  endfacet
  facet normal 0.000000 0.000000 -1.000000
    outer loop
      vertex -18.584804 -3.950322 0.000000
      vertex -9.500000 -16.454483 0.000000
      vertex -17.357364 -7.727996 0.000000
    endloop
  endfacet
  facet normal -0.000000 0.000000 -1.000000
    outer loop
      vertex 5.160584 15.882644 0.000000
      vertex 11.000000 19.052559 0.000000
      vertex 5.980272 15.517695 0.000000
    endloop
  endfacet
  facet normal 0.000000 0.000000 -1.000000
    outer loop
      vertex 5.160584 -15.882644 0.000000
      vertex 11.000000 -19.052559 0.000000
      vertex 7.481162 -17.353328 0.000000
    endloop
  endfacet
  facet normal 0.000000 0.000000 -1.000000
    outer loop
      vertex -11.174481 12.410519 0.000000
      vertex -5.871323 18.070074 0.000000
      vertex -8.350000 14.462624 0.000000
    endloop
  endfacet
  facet normal -0.994522 0.104529 0.000000
    outer loop
      vertex -22.000000 0.000000 0.000000
      vertex -22.000000 0.000000 3.000000
      vertex -21.769003 2.197788 0.000000
    endloop
  endfacet
  facet normal -0.994522 0.104529 0.000000
    outer loop
      vertex -21.769003 2.197788 0.000000
      vertex -22.000000 0.000000 3.000000
      vertex -21.769003 2.197788 3.000000
    endloop
  endfacet
  facet normal -0.994522 -0.104529 -0.000000
    outer loop
      vertex -22.000000 0.000000 0.000000
      vertex -21.769003 -2.197788 0.000000
      vertex -22.000000 0.000000 3.000000
    endloop
  endfacet
  facet normal -0.994522 -0.104529 0.000000
    outer loop
      vertex -22.000000 0.000000 3.000000
      vertex -21.769003 -2.197788 0.000000
      vertex -21.769003 -2.197788 3.000000
    endloop
  endfacet
  facet normal 0.000000 -1.000000 0.000000
    outer loop
      vertex -18.769003 -2.197788 0.000000
      vertex -18.769003 -2.197788 3.000000
      vertex -21.769003 -2.197788 3.000000
    endloop
  endfacet
  facet normal -0.000000 -1.000000 -0.000000
    outer loop
      vertex -21.769003 -2.197788 0.000000
      vertex -18.769003 -2.197788 0.000000
      vertex -21.769003 -2.197788 3.000000
    endloop
  endfacet
  facet normal -0.994522 -0.104529 -0.000000
    outer loop
      vertex -18.769003 -2.197788 0.000000
      vertex -18.584804 -3.950322 0.000000
      vertex -18.769003 -2.197788 3.000000
    endloop
  endfacet
  facet normal -0.994522 -0.104529 0.000000
    outer loop
      vertex -18.769003 -2.197788 3.000000
      vertex -18.584804 -3.950322 0.000000
      vertex -18.584804 -3.950322 3.000000
    endloop
  endfacet
  facet normal -0.951057 -0.309017 -0.000000
    outer loop
      vertex -18.584804 -3.950322 0.000000
      vertex -17.357364 -7.727996 0.000000
      vertex -18.584804 -3.950322 3.000000
    endloop
  endfacet
  facet normal -0.951057 -0.309017 0.000000
    outer loop
      vertex -18.584804 -3.950322 3.000000
      vertex -17.357364 -7.727996 0.000000
      vertex -17.357364 -7.727996 3.000000
    endloop
  endfacet
  facet normal -0.866025 -0.500000 -0.000000
    outer loop
      vertex -17.357364 -7.727996 0.000000
      vertex -15.371323 -11.167920 0.000000
      vertex -17.357364 -7.727996 3.000000
    endloop
  endfacet
  facet normal -0.866025 -0.500000 0.000000
    outer loop
      vertex -17.357364 -7.727996 3.000000
      vertex -15.371323 -11.167920 0.000000
      vertex -15.371323 -11.167920 3.000000
    endloop
  endfacet
  facet normal -0.743145 -0.669131 -0.000000
    outer loop
      vertex -15.371323 -11.167920 0.000000
      vertex -12.713482 -14.119752 0.000000
      vertex -15.371323 -11.167920 3.000000
    endloop
  endfacet
  facet normal -0.743145 -0.669131 0.000000
    outer loop
      vertex -15.371323 -11.167920 3.000000
      vertex -12.713482 -14.119752 0.000000
      vertex -12.713482 -14.119752 3.000000
    endloop
  endfacet
  facet normal -0.587785 -0.809017 0.000000
    outer loop
      vertex -12.713482 -14.119752 3.000000
      vertex -12.713482 -14.119752 0.000000
      vertex -9.500000 -16.454483 0.000000
    endloop
  endfacet
  facet normal -0.587785 -0.809017 0.000000
    outer loop
      vertex -9.500000 -16.454483 3.000000
      vertex -12.713482 -14.119752 3.000000
      vertex -9.500000 -16.454483 0.000000
    endloop
  endfacet
  facet normal -0.406737 -0.913545 0.000000
    outer loop
      vertex -9.500000 -16.454483 3.000000
      vertex -9.500000 -16.454483 0.000000
      vertex -5.871323 -18.070074 0.000000
    endloop
  endfacet
  facet normal -0.406737 -0.913545 0.000000
    outer loop
      vertex -5.871323 -18.070074 3.000000
      vertex -9.500000 -16.454483 3.000000
      vertex -5.871323 -18.070074 0.000000
    endloop
  endfacet
  facet normal -0.207912 -0.978148 0.000000
    outer loop
      vertex -5.871323 -18.070074 3.000000
      vertex -5.871323 -18.070074 0.000000
      vertex -1.986041 -18.895916 0.000000
    endloop
  endfacet
  facet normal -0.207912 -0.978148 0.000000
    outer loop
      vertex -1.986041 -18.895916 3.000000
      vertex -5.871323 -18.070074 3.000000
      vertex -1.986041 -18.895916 0.000000
    endloop
  endfacet
  facet normal 0.000000 -1.000000 0.000000
    outer loop
      vertex -1.986041 -18.895916 3.000000
      vertex -1.986041 -18.895916 0.000000
      vertex 1.986041 -18.895916 0.000000
    endloop
  endfacet
  facet normal 0.000000 -1.000000 0.000000
    outer loop
      vertex 1.986041 -18.895916 3.000000
      vertex -1.986041 -18.895916 3.000000
      vertex 1.986041 -18.895916 0.000000
    endloop
  endfacet
  facet normal 0.207912 -0.978148 0.000000
    outer loop
      vertex 1.986041 -18.895916 3.000000
      vertex 1.986041 -18.895916 0.000000
      vertex 5.871323 -18.070074 0.000000
    endloop
  endfacet
  facet normal 0.207912 -0.978148 0.000000
    outer loop
      vertex 5.871323 -18.070074 3.000000
      vertex 1.986041 -18.895916 3.000000
      vertex 5.871323 -18.070074 0.000000
    endloop
  endfacet
  facet normal 0.406737 -0.913545 0.000000
    outer loop
      vertex 5.871323 -18.070074 3.000000
      vertex 5.871323 -18.070074 0.000000
      vertex 7.481162 -17.353328 0.000000
    endloop
  endfacet
  facet normal 0.406737 -0.913545 0.000000
    outer loop
      vertex 7.481162 -17.353328 3.000000
      vertex 5.871323 -18.070074 3.000000
      vertex 7.481162 -17.353328 0.000000
    endloop
  endfacet
  facet normal -0.866025 -0.500000 0.000000
    outer loop
      vertex 8.981162 -19.951404 3.000000
      vertex 7.481162 -17.353328 3.000000
      vertex 8.981162 -19.951404 0.000000
    endloop
  endfacet
  facet normal -0.866025 -0.500000 0.000000
    outer loop
      vertex 8.981162 -19.951404 0.000000
      vertex 7.481162 -17.353328 3.000000
      vertex 7.481162 -17.353328 0.000000
    endloop
  endfacet
  facet normal 0.406737 -0.913545 0.000000
    outer loop
      vertex 8.981162 -19.951404 3.000000
      vertex 8.981162 -19.951404 0.000000
      vertex 11.000000 -19.052559 0.000000
    endloop
  endfacet
  facet normal 0.406737 -0.913545 0.000000
    outer loop
      vertex 11.000000 -19.052559 3.000000
      vertex 8.981162 -19.951404 3.000000
      vertex 11.000000 -19.052559 0.000000
    endloop
  endfacet
  facet normal 0.587785 -0.809017 0.000000
    outer loop
      vertex 11.000000 -19.052559 3.000000
      vertex 11.000000 -19.052559 0.000000
      vertex 12.787842 -17.753616 0.000000
    endloop
  endfacet
  facet normal 0.587785 -0.809017 0.000000
    outer loop
      vertex 12.787842 -17.753616 3.000000
      vertex 11.000000 -19.052559 3.000000
      vertex 12.787842 -17.753616 0.000000
    endloop
  endfacet
  facet normal 0.866025 0.500000 0.000000
    outer loop
      vertex 11.287842 -15.155540 3.000000
      vertex 12.787842 -17.753616 3.000000
      vertex 12.787842 -17.753616 0.000000
    endloop
  endfacet
  facet normal 0.866025 0.500000 0.000000
    outer loop
      vertex 11.287842 -15.155540 0.000000
      vertex 11.287842 -15.155540 3.000000
      vertex 12.787842 -17.753616 0.000000
    endloop
  endfacet
  facet normal 0.587785 -0.809017 0.000000
    outer loop
      vertex 11.287842 -15.155540 3.000000
      vertex 11.287842 -15.155540 0.000000
      vertex 12.713482 -14.119752 0.000000
    endloop
  endfacet
  facet normal 0.587785 -0.809017 0.000000
    outer loop
      vertex 12.713482 -14.119752 3.000000
      vertex 11.287842 -15.155540 3.000000
      vertex 12.713482 -14.119752 0.000000
    endloop
  endfacet
  facet normal 0.743145 -0.669131 0.000000
    outer loop
      vertex 12.713482 -14.119752 3.000000
      vertex 12.713482 -14.119752 0.000000
      vertex 15.371323 -11.167920 0.000000
    endloop
  endfacet
  facet normal 0.743145 -0.669131 0.000000
    outer loop
      vertex 15.371323 -11.167920 3.000000
      vertex 12.713482 -14.119752 3.000000
      vertex 15.371323 -11.167920 0.000000
    endloop
  endfacet
  facet normal 0.866025 -0.500000 0.000000
    outer loop
      vertex 15.371323 -11.167920 3.000000
      vertex 15.371323 -11.167920 0.000000
      vertex 17.357364 -7.727996 0.000000
    endloop
  endfacet
  facet normal 0.866025 -0.500000 0.000000
    outer loop
      vertex 17.357364 -7.727996 3.000000
      vertex 15.371323 -11.167920 3.000000
      vertex 17.357364 -7.727996 0.000000
    endloop
  endfacet
  facet normal 0.951057 -0.309017 0.000000
    outer loop
      vertex 17.357364 -7.727996 3.000000
      vertex 17.357364 -7.727996 0.000000
      vertex 18.584804 -3.950322 0.000000
    endloop
  endfacet
  facet normal 0.951057 -0.309017 0.000000
    outer loop
      vertex 18.584804 -3.950322 3.000000
      vertex 17.357364 -7.727996 3.000000
      vertex 18.584804 -3.950322 0.000000
    endloop
  endfacet
  facet normal 0.994522 -0.104529 0.000000
    outer loop
      vertex 18.584804 -3.950322 3.000000
      vertex 18.584804 -3.950322 0.000000
      vertex 19.000000 0.000000 0.000000
    endloop
  endfacet
  facet normal 0.994522 -0.104529 0.000000
    outer loop
      vertex 19.000000 0.000000 3.000000
      vertex 18.584804 -3.950322 3.000000
      vertex 19.000000 0.000000 0.000000
    endloop
  endfacet
  facet normal 0.994522 0.104529 0.000000
    outer loop
      vertex 19.000000 0.000000 0.000000
      vertex 18.584804 3.950322 0.000000
      vertex 18.584804 3.950322 3.000000
    endloop
  endfacet
  facet normal 0.994522 0.104529 -0.000000
    outer loop
      vertex 19.000000 0.000000 3.000000
      vertex 19.000000 0.000000 0.000000
      vertex 18.584804 3.950322 3.000000
    endloop
  endfacet
  facet normal 0.951057 0.309017 0.000000
    outer loop
      vertex 18.584804 3.950322 0.000000
      vertex 17.357364 7.727996 0.000000
      vertex 17.357364 7.727996 3.000000
    endloop
  endfacet
  facet normal 0.951057 0.309017 -0.000000
    outer loop
      vertex 18.584804 3.950322 3.000000
      vertex 18.584804 3.950322 0.000000
      vertex 17.357364 7.727996 3.000000
    endloop
  endfacet
  facet normal 0.866025 0.500000 0.000000
    outer loop
      vertex 17.357364 7.727996 0.000000
      vertex 15.371323 11.167920 0.000000
      vertex 15.371323 11.167920 3.000000
    endloop
  endfacet
  facet normal 0.866025 0.500000 -0.000000
    outer loop
      vertex 17.357364 7.727996 3.000000
      vertex 17.357364 7.727996 0.000000
      vertex 15.371323 11.167920 3.000000
    endloop
  endfacet
  facet normal 0.743145 0.669131 0.000000
    outer loop
      vertex 15.371323 11.167920 0.000000
      vertex 12.713482 14.119752 0.000000
      vertex 12.713482 14.119752 3.000000
    endloop
  endfacet
  facet normal 0.743145 0.669131 -0.000000
    outer loop
      vertex 15.371323 11.167920 3.000000
      vertex 15.371323 11.167920 0.000000
      vertex 12.713482 14.119752 3.000000
    endloop
  endfacet
  facet normal 0.587785 0.809017 0.000000
    outer loop
      vertex 11.287842 15.155540 0.000000
      vertex 11.287842 15.155540 3.000000
      vertex 12.713482 14.119752 0.000000
    endloop
  endfacet
  facet normal 0.587785 0.809017 0.000000
    outer loop
      vertex 12.713482 14.119752 0.000000
      vertex 11.287842 15.155540 3.000000
      vertex 12.713482 14.119752 3.000000
    endloop
  endfacet
  facet normal 0.866025 -0.500000 0.000000
    outer loop
      vertex 12.787842 17.753616 0.000000
      vertex 12.787842 17.753616 3.000000
      vertex 11.287842 15.155540 3.000000
    endloop
  endfacet
  facet normal 0.866025 -0.500000 0.000000
    outer loop
      vertex 11.287842 15.155540 0.000000
      vertex 12.787842 17.753616 0.000000
      vertex 11.287842 15.155540 3.000000
    endloop
  endfacet
  facet normal 0.587785 0.809017 0.000000
    outer loop
      vertex 11.000000 19.052559 0.000000
      vertex 11.000000 19.052559 3.000000
      vertex 12.787842 17.753616 0.000000
    endloop
  endfacet
  facet normal 0.587785 0.809017 0.000000
    outer loop
      vertex 12.787842 17.753616 0.000000
      vertex 11.000000 19.052559 3.000000
      vertex 12.787842 17.753616 3.000000
    endloop
  endfacet
  facet normal 0.406737 0.913545 0.000000
    outer loop
      vertex 8.981162 19.951404 0.000000
      vertex 8.981162 19.951404 3.000000
      vertex 11.000000 19.052559 0.000000
    endloop
  endfacet
  facet normal 0.406737 0.913545 0.000000
    outer loop
      vertex 11.000000 19.052559 0.000000
      vertex 8.981162 19.951404 3.000000
      vertex 11.000000 19.052559 3.000000
    endloop
  endfacet
  facet normal -0.866025 0.500000 0.000000
    outer loop
      vertex 8.981162 19.951404 3.000000
      vertex 8.981162 19.951404 0.000000
      vertex 7.481162 17.353328 3.000000
    endloop
  endfacet
  facet normal -0.866025 0.500000 0.000000
    outer loop
      vertex 7.481162 17.353328 3.000000
      vertex 8.981162 19.951404 0.000000
      vertex 7.481162 17.353328 0.000000
    endloop
  endfacet
  facet normal 0.406737 0.913545 0.000000
    outer loop
      vertex 5.871323 18.070074 0.000000
      vertex 5.871323 18.070074 3.000000
      vertex 7.481162 17.353328 0.000000
    endloop
  endfacet
  facet normal 0.406737 0.913545 0.000000
    outer loop
      vertex 7.481162 17.353328 0.000000
      vertex 5.871323 18.070074 3.000000
      vertex 7.481162 17.353328 3.000000
    endloop
  endfacet
  facet normal 0.207912 0.978148 0.000000
    outer loop
      vertex 1.986041 18.895916 0.000000
      vertex 1.986041 18.895916 3.000000
      vertex 5.871323 18.070074 0.000000
    endloop
  endfacet
  facet normal 0.207912 0.978148 0.000000
    outer loop
      vertex 5.871323 18.070074 0.000000
      vertex 1.986041 18.895916 3.000000
      vertex 5.871323 18.070074 3.000000
    endloop
  endfacet
  facet normal 0.000000 1.000000 0.000000
    outer loop
      vertex -1.986041 18.895916 0.000000
      vertex -1.986041 18.895916 3.000000
      vertex 1.986041 18.895916 0.000000
    endloop
  endfacet
  facet normal 0.000000 1.000000 0.000000
    outer loop
      vertex 1.986041 18.895916 0.000000
      vertex -1.986041 18.895916 3.000000
      vertex 1.986041 18.895916 3.000000
    endloop
  endfacet
  facet normal -0.207912 0.978148 0.000000
    outer loop
      vertex -5.871323 18.070074 0.000000
      vertex -5.871323 18.070074 3.000000
      vertex -1.986041 18.895916 0.000000
    endloop
  endfacet
  facet normal -0.207912 0.978148 0.000000
    outer loop
      vertex -1.986041 18.895916 0.000000
      vertex -5.871323 18.070074 3.000000
      vertex -1.986041 18.895916 3.000000
    endloop
  endfacet
  facet normal -0.406737 0.913545 0.000000
    outer loop
      vertex -9.500000 16.454483 0.000000
      vertex -9.500000 16.454483 3.000000
      vertex -5.871323 18.070074 0.000000
    endloop
  endfacet
  facet normal -0.406737 0.913545 0.000000
    outer loop
      vertex -5.871323 18.070074 0.000000
      vertex -9.500000 16.454483 3.000000
      vertex -5.871323 18.070074 3.000000
    endloop
  endfacet
  facet normal -0.587785 0.809017 0.000000
    outer loop
      vertex -12.713482 14.119752 0.000000
      vertex -12.713482 14.119752 3.000000
      vertex -9.500000 16.454483 0.000000
    endloop
  endfacet
  facet normal -0.587785 0.809017 0.000000
    outer loop
      vertex -9.500000 16.454483 0.000000
      vertex -12.713482 14.119752 3.000000
      vertex -9.500000 16.454483 3.000000
    endloop
  endfacet
  facet normal -0.743145 0.669131 0.000000
    outer loop
      vertex -15.371323 11.167920 0.000000
      vertex -15.371323 11.167920 3.000000
      vertex -12.713482 14.119752 0.000000
    endloop
  endfacet
  facet normal -0.743145 0.669131 0.000000
    outer loop
      vertex -12.713482 14.119752 0.000000
      vertex -15.371323 11.167920 3.000000
      vertex -12.713482 14.119752 3.000000
    endloop
  endfacet
  facet normal -0.866025 0.500000 0.000000
    outer loop
      vertex -17.357364 7.727996 0.000000
      vertex -17.357364 7.727996 3.000000
      vertex -15.371323 11.167920 0.000000
    endloop
  endfacet
  facet normal -0.866025 0.500000 0.000000
    outer loop
      vertex -15.371323 11.167920 0.000000
      vertex -17.357364 7.727996 3.000000
      vertex -15.371323 11.167920 3.000000
    endloop
  endfacet
  facet normal -0.951057 0.309017 0.000000
    outer loop
      vertex -18.584804 3.950322 0.000000
      vertex -18.584804 3.950322 3.000000
      vertex -17.357364 7.727996 0.000000
    endloop
  endfacet
  facet normal -0.951057 0.309017 0.000000
    outer loop
      vertex -17.357364 7.727996 0.000000
      vertex -18.584804 3.950322 3.000000
      vertex -17.357364 7.727996 3.000000
    endloop
  endfacet
  facet normal -0.994522 0.104529 0.000000
    outer loop
      vertex -18.769003 2.197788 0.000000
      vertex -18.769003 2.197788 3.000000
      vertex -18.584804 3.950322 0.000000
    endloop
  endfacet
  facet normal -0.994522 0.104529 0.000000
    outer loop
      vertex -18.584804 3.950322 0.000000
      vertex -18.769003 2.197788 3.000000
      vertex -18.584804 3.950322 3.000000
    endloop
  endfacet
  facet normal 0.000000 1.000000 0.000000
    outer loop
      vertex -18.769003 2.197788 3.000000
      vertex -18.769003 2.197788 0.000000
      vertex -21.769003 2.197788 3.000000
    endloop
  endfacet
  facet normal 0.000000 1.000000 -0.000000
    outer loop
      vertex -21.769003 2.197788 3.000000
      vertex -18.769003 2.197788 0.000000
      vertex -21.769003 2.197788 0.000000
    endloop
  endfacet
  facet normal -0.207912 -0.978148 -0.000000
    outer loop
      vertex -10.842905 -3.767110 0.000000
      vertex -10.842905 -3.767110 3.000000
      vertex -16.428854 -2.579780 3.000000
    endloop
  endfacet
  facet normal -0.207912 -0.978148 -0.000000
    outer loop
      vertex -16.428854 -2.579780 0.000000
      vertex -10.842905 -3.767110 0.000000
      vertex -16.428854 -2.579780 3.000000
    endloop
  endfacet
  facet normal 0.994522 0.104528 0.000000
    outer loop
      vertex -16.428854 -2.579780 3.000000
      vertex -16.335065 -3.472125 3.000000
      vertex -16.335065 -3.472125 0.000000
    endloop
  endfacet
  facet normal 0.994522 0.104528 0.000000
    outer loop
      vertex -16.428854 -2.579780 0.000000
      vertex -16.428854 -2.579780 3.000000
      vertex -16.335065 -3.472125 0.000000
    endloop
  endfacet
  facet normal -0.406737 -0.913545 -0.000000
    outer loop
      vertex -3.947441 -6.837169 0.000000
      vertex -3.947441 -6.837169 3.000000
      vertex -10.842905 -3.767110 3.000000
    endloop
  endfacet
  facet normal -0.406737 -0.913545 -0.000000
    outer loop
      vertex -10.842905 -3.767110 0.000000
      vertex -3.947441 -6.837169 0.000000
      vertex -10.842905 -3.767110 3.000000
    endloop
  endfacet
  facet normal -0.587785 -0.809017 -0.000000
    outer loop
      vertex 2.159039 -11.273787 0.000000
      vertex 2.159039 -11.273787 3.000000
      vertex -3.947441 -6.837169 3.000000
    endloop
  endfacet
  facet normal -0.587785 -0.809017 -0.000000
    outer loop
      vertex -3.947441 -6.837169 0.000000
      vertex 2.159039 -11.273787 0.000000
      vertex -3.947441 -6.837169 3.000000
    endloop
  endfacet
  facet normal -0.743145 -0.669131 0.000000
    outer loop
      vertex 5.980272 -15.517695 3.000000
      vertex 2.159039 -11.273787 3.000000
      vertex 5.980272 -15.517695 0.000000
    endloop
  endfacet
  facet normal -0.743145 -0.669131 0.000000
    outer loop
      vertex 5.980272 -15.517695 0.000000
      vertex 2.159039 -11.273787 3.000000
      vertex 2.159039 -11.273787 0.000000
    endloop
  endfacet
  facet normal -0.406737 0.913545 0.000000
    outer loop
      vertex 5.980272 -15.517695 3.000000
      vertex 5.980272 -15.517695 0.000000
      vertex 5.160584 -15.882644 3.000000
    endloop
  endfacet
  facet normal -0.406737 0.913545 0.000000
    outer loop
      vertex 5.160584 -15.882644 3.000000
      vertex 5.980272 -15.517695 0.000000
      vertex 5.160584 -15.882644 0.000000
    endloop
  endfacet
  facet normal -0.207912 0.978148 0.000000
    outer loop
      vertex 5.160584 -15.882644 3.000000
      vertex 5.160584 -15.882644 0.000000
      vertex 1.745625 -16.608516 3.000000
    endloop
  endfacet
  facet normal -0.207912 0.978148 0.000000
    outer loop
      vertex 1.745625 -16.608516 3.000000
      vertex 5.160584 -15.882644 0.000000
      vertex 1.745625 -16.608516 0.000000
    endloop
  endfacet
  facet normal 0.000000 1.000000 0.000000
    outer loop
      vertex 1.745625 -16.608516 3.000000
      vertex 1.745625 -16.608516 0.000000
      vertex -1.745625 -16.608516 3.000000
    endloop
  endfacet
  facet normal 0.000000 1.000000 -0.000000
    outer loop
      vertex -1.745625 -16.608516 3.000000
      vertex 1.745625 -16.608516 0.000000
      vertex -1.745625 -16.608516 0.000000
    endloop
  endfacet
  facet normal 0.207912 0.978148 -0.000000
    outer loop
      vertex -1.745625 -16.608516 3.000000
      vertex -1.745625 -16.608516 0.000000
      vertex -5.160584 -15.882644 3.000000
    endloop
  endfacet
  facet normal 0.207912 0.978148 -0.000000
    outer loop
      vertex -5.160584 -15.882644 3.000000
      vertex -1.745625 -16.608516 0.000000
      vertex -5.160584 -15.882644 0.000000
    endloop
  endfacet
  facet normal 0.406737 0.913545 -0.000000
    outer loop
      vertex -5.160584 -15.882644 3.000000
      vertex -5.160584 -15.882644 0.000000
      vertex -8.350000 -14.462624 3.000000
    endloop
  endfacet
  facet normal 0.406737 0.913545 -0.000000
    outer loop
      vertex -8.350000 -14.462624 3.000000
      vertex -5.160584 -15.882644 0.000000
      vertex -8.350000 -14.462624 0.000000
    endloop
  endfacet
  facet normal 0.587785 0.809017 -0.000000
    outer loop
      vertex -8.350000 -14.462624 3.000000
      vertex -8.350000 -14.462624 0.000000
      vertex -11.174481 -12.410519 3.000000
    endloop
  endfacet
  facet normal 0.587785 0.809017 -0.000000
    outer loop
      vertex -11.174481 -12.410519 3.000000
      vertex -8.350000 -14.462624 0.000000
      vertex -11.174481 -12.410519 0.000000
    endloop
  endfacet
  facet normal 0.743145 0.669131 0.000000
    outer loop
      vertex -13.510584 -9.816014 3.000000
      vertex -11.174481 -12.410519 3.000000
      vertex -11.174481 -12.410519 0.000000
    endloop
  endfacet
  facet normal 0.743145 0.669131 0.000000
    outer loop
      vertex -13.510584 -9.816014 0.000000
      vertex -13.510584 -9.816014 3.000000
      vertex -11.174481 -12.410519 0.000000
    endloop
  endfacet
  facet normal 0.866025 0.500000 0.000000
    outer loop
      vertex -15.256209 -6.792502 3.000000
      vertex -13.510584 -9.816014 3.000000
      vertex -13.510584 -9.816014 0.000000
    endloop
  endfacet
  facet normal 0.866025 0.500000 0.000000
    outer loop
      vertex -15.256209 -6.792502 0.000000
      vertex -15.256209 -6.792502 3.000000
      vertex -13.510584 -9.816014 0.000000
    endloop
  endfacet
  facet normal 0.951057 0.309017 0.000000
    outer loop
      vertex -16.335065 -3.472125 3.000000
      vertex -15.256209 -6.792502 3.000000
      vertex -15.256209 -6.792502 0.000000
    endloop
  endfacet
  facet normal 0.951057 0.309017 0.000000
    outer loop
      vertex -16.335065 -3.472125 0.000000
      vertex -16.335065 -3.472125 3.000000
      vertex -15.256209 -6.792502 0.000000
    endloop
  endfacet
  facet normal 0.951057 -0.309017 0.000000
    outer loop
      vertex -15.256209 6.792502 0.000000
      vertex -15.256209 6.792502 3.000000
      vertex -16.335065 3.472125 3.000000
    endloop
  endfacet
  facet normal 0.951057 -0.309017 0.000000
    outer loop
      vertex -16.335065 3.472125 0.000000
      vertex -15.256209 6.792502 0.000000
      vertex -16.335065 3.472125 3.000000
    endloop
  endfacet
  facet normal 0.994522 -0.104528 0.000000
    outer loop
      vertex -16.335065 3.472125 0.000000
      vertex -16.335065 3.472125 3.000000
      vertex -16.428854 2.579780 3.000000
    endloop
  endfacet
  facet normal 0.994522 -0.104528 0.000000
    outer loop
      vertex -16.428854 2.579780 0.000000
      vertex -16.335065 3.472125 0.000000
      vertex -16.428854 2.579780 3.000000
    endloop
  endfacet
  facet normal 0.866025 -0.500000 0.000000
    outer loop
      vertex -13.510584 9.816014 0.000000
      vertex -13.510584 9.816014 3.000000
      vertex -15.256209 6.792502 3.000000
    endloop
  endfacet
  facet normal 0.866025 -0.500000 0.000000
    outer loop
      vertex -15.256209 6.792502 0.000000
      vertex -13.510584 9.816014 0.000000
      vertex -15.256209 6.792502 3.000000
    endloop
  endfacet
  facet normal 0.743145 -0.669131 0.000000
    outer loop
      vertex -11.174481 12.410519 0.000000
      vertex -11.174481 12.410519 3.000000
      vertex -13.510584 9.816014 3.000000
    endloop
  endfacet
  facet normal 0.743145 -0.669131 0.000000
    outer loop
      vertex -13.510584 9.816014 0.000000
      vertex -11.174481 12.410519 0.000000
      vertex -13.510584 9.816014 3.000000
    endloop
  endfacet
  facet normal 0.587785 -0.809017 0.000000
    outer loop
      vertex -8.350000 14.462624 0.000000
      vertex -8.350000 14.462624 3.000000
      vertex -11.174481 12.410519 3.000000
    endloop
  endfacet
  facet normal 0.587785 -0.809017 0.000000
    outer loop
      vertex -11.174481 12.410519 0.000000
      vertex -8.350000 14.462624 0.000000
      vertex -11.174481 12.410519 3.000000
    endloop
  endfacet
  facet normal 0.406737 -0.913545 0.000000
    outer loop
      vertex -5.160584 15.882644 0.000000
      vertex -5.160584 15.882644 3.000000
      vertex -8.350000 14.462624 3.000000
    endloop
  endfacet
  facet normal 0.406737 -0.913545 0.000000
    outer loop
      vertex -8.350000 14.462624 0.000000
      vertex -5.160584 15.882644 0.000000
      vertex -8.350000 14.462624 3.000000
    endloop
  endfacet
  facet normal 0.207912 -0.978148 0.000000
    outer loop
      vertex -1.745625 16.608516 0.000000
      vertex -1.745625 16.608516 3.000000
      vertex -5.160584 15.882644 3.000000
    endloop
  endfacet
  facet normal 0.207912 -0.978148 0.000000
    outer loop
      vertex -5.160584 15.882644 0.000000
      vertex -1.745625 16.608516 0.000000
      vertex -5.160584 15.882644 3.000000
    endloop
  endfacet
  facet normal 0.000000 -1.000000 0.000000
    outer loop
      vertex 1.745625 16.608516 0.000000
      vertex 1.745625 16.608516 3.000000
      vertex -1.745625 16.608516 3.000000
    endloop
  endfacet
  facet normal -0.000000 -1.000000 -0.000000
    outer loop
      vertex -1.745625 16.608516 0.000000
      vertex 1.745625 16.608516 0.000000
      vertex -1.745625 16.608516 3.000000
    endloop
  endfacet
  facet normal -0.207912 -0.978148 -0.000000
    outer loop
      vertex 5.160584 15.882644 0.000000
      vertex 5.160584 15.882644 3.000000
      vertex 1.745625 16.608516 3.000000
    endloop
  endfacet
  facet normal -0.207912 -0.978148 -0.000000
    outer loop
      vertex 1.745625 16.608516 0.000000
      vertex 5.160584 15.882644 0.000000
      vertex 1.745625 16.608516 3.000000
    endloop
  endfacet
  facet normal -0.406737 -0.913545 -0.000000
    outer loop
      vertex 5.980272 15.517695 0.000000
      vertex 5.980272 15.517695 3.000000
      vertex 5.160584 15.882644 3.000000
    endloop
  endfacet
  facet normal -0.406737 -0.913545 -0.000000
    outer loop
      vertex 5.160584 15.882644 0.000000
      vertex 5.980272 15.517695 0.000000
      vertex 5.160584 15.882644 3.000000
    endloop
  endfacet
  facet normal -0.743145 0.669131 0.000000
    outer loop
      vertex 5.980272 15.517695 3.000000
      vertex 5.980272 15.517695 0.000000
      vertex 2.159039 11.273787 3.000000
    endloop
  endfacet
  facet normal -0.743145 0.669131 0.000000
    outer loop
      vertex 2.159039 11.273787 3.000000
      vertex 5.980272 15.517695 0.000000
      vertex 2.159039 11.273787 0.000000
    endloop
  endfacet
  facet normal -0.587785 0.809017 0.000000
    outer loop
      vertex 2.159039 11.273787 3.000000
      vertex 2.159039 11.273787 0.000000
      vertex -3.947441 6.837169 3.000000
    endloop
  endfacet
  facet normal -0.587785 0.809017 0.000000
    outer loop
      vertex -3.947441 6.837169 3.000000
      vertex 2.159039 11.273787 0.000000
      vertex -3.947441 6.837169 0.000000
    endloop
  endfacet
  facet normal -0.406737 0.913545 0.000000
    outer loop
      vertex -3.947441 6.837169 3.000000
      vertex -3.947441 6.837169 0.000000
      vertex -10.842905 3.767110 3.000000
    endloop
  endfacet
  facet normal -0.406737 0.913545 0.000000
    outer loop
      vertex -10.842905 3.767110 3.000000
      vertex -3.947441 6.837169 0.000000
      vertex -10.842905 3.767110 0.000000
    endloop
  endfacet
  facet normal -0.207912 0.978148 0.000000
    outer loop
      vertex -10.842905 3.767110 3.000000
      vertex -10.842905 3.767110 0.000000
      vertex -16.428854 2.579780 3.000000
    endloop
  endfacet
  facet normal -0.207912 0.978148 0.000000
    outer loop
      vertex -16.428854 2.579780 3.000000
      vertex -10.842905 3.767110 0.000000
      vertex -16.428854 2.579780 0.000000
    endloop
  endfacet
  facet normal 0.885456 -0.464723 0.000000
    outer loop
      vertex -3.087607 2.735381 0.000000
      vertex -3.087607 2.735381 3.000000
      vertex -4.005135 0.987177 3.000000
    endloop
  endfacet
  facet normal 0.885456 -0.464723 0.000000
    outer loop
      vertex -4.005135 0.987177 0.000000
      vertex -3.087607 2.735381 0.000000
      vertex -4.005135 0.987177 3.000000
    endloop
  endfacet
  facet normal 1.000000 0.000000 0.000000
    outer loop
      vertex -4.005135 0.987177 0.000000
      vertex -4.005135 0.987177 3.000000
      vertex -4.005135 -0.987177 3.000000
    endloop
  endfacet
  facet normal 1.000000 0.000000 0.000000
    outer loop
      vertex -4.005135 -0.987177 0.000000
      vertex -4.005135 0.987177 0.000000
      vertex -4.005135 -0.987177 3.000000
    endloop
  endfacet
  facet normal 0.568065 -0.822984 0.000000
    outer loop
      vertex -1.462745 3.856942 0.000000
      vertex -1.462745 3.856942 3.000000
      vertex -3.087607 2.735381 3.000000
    endloop
  endfacet
  facet normal 0.568065 -0.822984 0.000000
    outer loop
      vertex -3.087607 2.735381 0.000000
      vertex -1.462745 3.856942 0.000000
      vertex -3.087607 2.735381 3.000000
    endloop
  endfacet
  facet normal 0.120537 -0.992709 0.000000
    outer loop
      vertex 0.497214 4.094924 0.000000
      vertex 0.497214 4.094924 3.000000
      vertex -1.462745 3.856942 3.000000
    endloop
  endfacet
  facet normal 0.120537 -0.992709 0.000000
    outer loop
      vertex -1.462745 3.856942 0.000000
      vertex 0.497214 4.094924 0.000000
      vertex -1.462745 3.856942 3.000000
    endloop
  endfacet
  facet normal -0.354605 -0.935016 -0.000000
    outer loop
      vertex 2.343267 3.394808 0.000000
      vertex 2.343267 3.394808 3.000000
      vertex 0.497214 4.094924 3.000000
    endloop
  endfacet
  facet normal -0.354605 -0.935016 -0.000000
    outer loop
      vertex 0.497214 4.094924 0.000000
      vertex 2.343267 3.394808 0.000000
      vertex 0.497214 4.094924 3.000000
    endloop
  endfacet
  facet normal -0.748511 -0.663123 0.000000
    outer loop
      vertex 3.652506 1.916983 3.000000
      vertex 2.343267 3.394808 3.000000
      vertex 3.652506 1.916983 0.000000
    endloop
  endfacet
  facet normal -0.748511 -0.663123 0.000000
    outer loop
      vertex 3.652506 1.916983 0.000000
      vertex 2.343267 3.394808 3.000000
      vertex 2.343267 3.394808 0.000000
    endloop
  endfacet
  facet normal -0.970942 -0.239316 0.000000
    outer loop
      vertex 4.125000 0.000000 3.000000
      vertex 3.652506 1.916983 3.000000
      vertex 4.125000 0.000000 0.000000
    endloop
  endfacet
  facet normal -0.970942 -0.239316 0.000000
    outer loop
      vertex 4.125000 0.000000 0.000000
      vertex 3.652506 1.916983 3.000000
      vertex 3.652506 1.916983 0.000000
    endloop
  endfacet
  facet normal -0.970942 0.239316 0.000000
    outer loop
      vertex 4.125000 0.000000 3.000000
      vertex 4.125000 0.000000 0.000000
      vertex 3.652506 -1.916983 3.000000
    endloop
  endfacet
  facet normal -0.970942 0.239316 0.000000
    outer loop
      vertex 3.652506 -1.916983 3.000000
      vertex 4.125000 0.000000 0.000000
      vertex 3.652506 -1.916983 0.000000
    endloop
  endfacet
  facet normal -0.748511 0.663123 0.000000
    outer loop
      vertex 3.652506 -1.916983 3.000000
      vertex 3.652506 -1.916983 0.000000
      vertex 2.343267 -3.394808 3.000000
    endloop
  endfacet
  facet normal -0.748511 0.663123 0.000000
    outer loop
      vertex 2.343267 -3.394808 3.000000
      vertex 3.652506 -1.916983 0.000000
      vertex 2.343267 -3.394808 0.000000
    endloop
  endfacet
  facet normal -0.354605 0.935016 0.000000
    outer loop
      vertex 2.343267 -3.394808 3.000000
      vertex 2.343267 -3.394808 0.000000
      vertex 0.497214 -4.094924 3.000000
    endloop
  endfacet
  facet normal -0.354605 0.935016 0.000000
    outer loop
      vertex 0.497214 -4.094924 3.000000
      vertex 2.343267 -3.394808 0.000000
      vertex 0.497214 -4.094924 0.000000
    endloop
  endfacet
  facet normal 0.120537 0.992709 -0.000000
    outer loop
      vertex 0.497214 -4.094924 3.000000
      vertex 0.497214 -4.094924 0.000000
      vertex -1.462745 -3.856942 3.000000
    endloop
  endfacet
  facet normal 0.120537 0.992709 -0.000000
    outer loop
      vertex -1.462745 -3.856942 3.000000
      vertex 0.497214 -4.094924 0.000000
      vertex -1.462745 -3.856942 0.000000
    endloop
  endfacet
  facet normal 0.568065 0.822984 -0.000000
    outer loop
      vertex -1.462745 -3.856942 3.000000
      vertex -1.462745 -3.856942 0.000000
      vertex -3.087607 -2.735381 3.000000
    endloop
  endfacet
  facet normal 0.568065 0.822984 -0.000000
    outer loop
      vertex -3.087607 -2.735381 3.000000
      vertex -1.462745 -3.856942 0.000000
      vertex -3.087607 -2.735381 0.000000
    endloop
  endfacet
  facet normal 0.885456 0.464723 0.000000
    outer loop
      vertex -4.005135 -0.987177 3.000000
      vertex -3.087607 -2.735381 3.000000
      vertex -3.087607 -2.735381 0.000000
    endloop
  endfacet
  facet normal 0.885456 0.464723 0.000000
    outer loop
      vertex -4.005135 -0.987177 0.000000
      vertex -4.005135 -0.987177 3.000000
      vertex -3.087607 -2.735381 0.000000
    endloop
  endfacet
  facet normal 0.994522 -0.104529 0.000000
    outer loop
      vertex 8.683866 7.506676 0.000000
      vertex 8.683866 7.506676 3.000000
      vertex 7.894882 0.000000 3.000000
    endloop
  endfacet
  facet normal 0.994522 -0.104529 0.000000
    outer loop
      vertex 7.894882 0.000000 0.000000
      vertex 8.683866 7.506676 0.000000
      vertex 7.894882 0.000000 3.000000
    endloop
  endfacet
  facet normal 0.994522 0.104529 0.000000
    outer loop
      vertex 7.894882 0.000000 3.000000
      vertex 8.683866 -7.506676 3.000000
      vertex 8.683866 -7.506676 0.000000
    endloop
  endfacet
  facet normal 0.994522 0.104529 0.000000
    outer loop
      vertex 7.894882 0.000000 0.000000
      vertex 7.894882 0.000000 3.000000
      vertex 8.683866 -7.506676 0.000000
    endloop
  endfacet
  facet normal 0.951057 -0.309017 0.000000
    outer loop
      vertex 10.448583 12.937915 0.000000
      vertex 10.448583 12.937915 3.000000
      vertex 8.683866 7.506676 3.000000
    endloop
  endfacet
  facet normal 0.951057 -0.309017 0.000000
    outer loop
      vertex 8.683866 7.506676 0.000000
      vertex 10.448583 12.937915 0.000000
      vertex 8.683866 7.506676 3.000000
    endloop
  endfacet
  facet normal -0.587785 -0.809017 -0.000000
    outer loop
      vertex 11.174481 12.410519 0.000000
      vertex 11.174481 12.410519 3.000000
      vertex 10.448583 12.937915 3.000000
    endloop
  endfacet
  facet normal -0.587785 -0.809017 -0.000000
    outer loop
      vertex 10.448583 12.937915 0.000000
      vertex 11.174481 12.410519 0.000000
      vertex 10.448583 12.937915 3.000000
    endloop
  endfacet
  facet normal -0.743145 -0.669131 0.000000
    outer loop
      vertex 13.510584 9.816014 3.000000
      vertex 11.174481 12.410519 3.000000
      vertex 13.510584 9.816014 0.000000
    endloop
  endfacet
  facet normal -0.743145 -0.669131 0.000000
    outer loop
      vertex 13.510584 9.816014 0.000000
      vertex 11.174481 12.410519 3.000000
      vertex 11.174481 12.410519 0.000000
    endloop
  endfacet
  facet normal -0.866025 -0.500000 0.000000
    outer loop
      vertex 15.256209 6.792502 3.000000
      vertex 13.510584 9.816014 3.000000
      vertex 15.256209 6.792502 0.000000
    endloop
  endfacet
  facet normal -0.866025 -0.500000 0.000000
    outer loop
      vertex 15.256209 6.792502 0.000000
      vertex 13.510584 9.816014 3.000000
      vertex 13.510584 9.816014 0.000000
    endloop
  endfacet
  facet normal -0.951057 -0.309017 0.000000
    outer loop
      vertex 16.335065 3.472125 3.000000
      vertex 15.256209 6.792502 3.000000
      vertex 16.335065 3.472125 0.000000
    endloop
  endfacet
  facet normal -0.951057 -0.309017 0.000000
    outer loop
      vertex 16.335065 3.472125 0.000000
      vertex 15.256209 6.792502 3.000000
      vertex 15.256209 6.792502 0.000000
    endloop
  endfacet
  facet normal -0.994522 -0.104528 0.000000
    outer loop
      vertex 16.700000 0.000000 3.000000
      vertex 16.335065 3.472125 3.000000
      vertex 16.700000 0.000000 0.000000
    endloop
  endfacet
  facet normal -0.994522 -0.104528 0.000000
    outer loop
      vertex 16.700000 0.000000 0.000000
      vertex 16.335065 3.472125 3.000000
      vertex 16.335065 3.472125 0.000000
    endloop
  endfacet
  facet normal -0.994522 0.104528 0.000000
    outer loop
      vertex 16.700000 0.000000 3.000000
      vertex 16.700000 0.000000 0.000000
      vertex 16.335065 -3.472125 3.000000
    endloop
  endfacet
  facet normal -0.994522 0.104528 0.000000
    outer loop
      vertex 16.335065 -3.472125 3.000000
      vertex 16.700000 0.000000 0.000000
      vertex 16.335065 -3.472125 0.000000
    endloop
  endfacet
  facet normal -0.951057 0.309017 0.000000
    outer loop
      vertex 16.335065 -3.472125 3.000000
      vertex 16.335065 -3.472125 0.000000
      vertex 15.256209 -6.792502 3.000000
    endloop
  endfacet
  facet normal -0.951057 0.309017 0.000000
    outer loop
      vertex 15.256209 -6.792502 3.000000
      vertex 16.335065 -3.472125 0.000000
      vertex 15.256209 -6.792502 0.000000
    endloop
  endfacet
  facet normal -0.866025 0.500000 0.000000
    outer loop
      vertex 15.256209 -6.792502 3.000000
      vertex 15.256209 -6.792502 0.000000
      vertex 13.510584 -9.816014 3.000000
    endloop
  endfacet
  facet normal -0.866025 0.500000 0.000000
    outer loop
      vertex 13.510584 -9.816014 3.000000
      vertex 15.256209 -6.792502 0.000000
      vertex 13.510584 -9.816014 0.000000
    endloop
  endfacet
  facet normal -0.743145 0.669131 0.000000
    outer loop
      vertex 13.510584 -9.816014 3.000000
      vertex 13.510584 -9.816014 0.000000
      vertex 11.174481 -12.410519 3.000000
    endloop
  endfacet
  facet normal -0.743145 0.669131 0.000000
    outer loop
      vertex 11.174481 -12.410519 3.000000
      vertex 13.510584 -9.816014 0.000000
      vertex 11.174481 -12.410519 0.000000
    endloop
  endfacet
  facet normal -0.587785 0.809017 0.000000
    outer loop
      vertex 11.174481 -12.410519 3.000000
      vertex 11.174481 -12.410519 0.000000
      vertex 10.448583 -12.937915 3.000000
    endloop
  endfacet
  facet normal -0.587785 0.809017 0.000000
    outer loop
      vertex 10.448583 -12.937915 3.000000
      vertex 11.174481 -12.410519 0.000000
      vertex 10.448583 -12.937915 0.000000
    endloop
  endfacet
  facet normal 0.951057 0.309017 0.000000
    outer loop
      vertex 8.683866 -7.506676 3.000000
      vertex 10.448583 -12.937915 3.000000
      vertex 10.448583 -12.937915 0.000000
    endloop
  endfacet
  facet normal 0.951057 0.309017 0.000000
    outer loop
      vertex 8.683866 -7.506676 0.000000
      vertex 8.683866 -7.506676 3.000000
      vertex 10.448583 -12.937915 0.000000
    endloop
  endfacet
  facet normal 0.000000 0.000000 1.000000
    outer loop
      vertex -21.769003 2.197788 3.000000
      vertex -22.000000 0.000000 3.000000
      vertex -21.769003 -2.197788 3.000000
    endloop
  endfacet
  facet normal -0.000000 0.000000 1.000000
    outer loop
      vertex -18.769003 -2.197788 3.000000
      vertex -21.769003 2.197788 3.000000
      vertex -21.769003 -2.197788 3.000000
    endloop
  endfacet
  facet normal 0.000000 0.000000 1.000000
    outer loop
      vertex -17.357364 -7.727996 3.000000
      vertex -18.769003 -2.197788 3.000000
      vertex -18.584804 -3.950322 3.000000
    endloop
  endfacet
  facet normal 0.000000 0.000000 1.000000
    outer loop
      vertex -15.371323 -11.167920 3.000000
      vertex -18.769003 -2.197788 3.000000
      vertex -17.357364 -7.727996 3.000000
    endloop
  endfacet
  facet normal 0.000000 0.000000 1.000000
    outer loop
      vertex -12.713482 -14.119752 3.000000
      vertex -18.769003 -2.197788 3.000000
      vertex -15.371323 -11.167920 3.000000
    endloop
  endfacet
  facet normal 0.000000 0.000000 1.000000
    outer loop
      vertex -9.500000 -16.454483 3.000000
      vertex -18.769003 -2.197788 3.000000
      vertex -12.713482 -14.119752 3.000000
    endloop
  endfacet
  facet normal -0.000000 -0.000000 1.000000
    outer loop
      vertex -13.510584 -9.816014 3.000000
      vertex -18.769003 -2.197788 3.000000
      vertex -9.500000 -16.454483 3.000000
    endloop
  endfacet
  facet normal 0.000000 -0.000000 1.000000
    outer loop
      vertex 2.159039 11.273787 3.000000
      vertex -3.947441 6.837169 3.000000
      vertex 12.713482 14.119752 3.000000
    endloop
  endfacet
  facet normal 0.000000 -0.000000 1.000000
    outer loop
      vertex 1.745625 -16.608516 3.000000
      vertex -1.745625 -16.608516 3.000000
      vertex 1.986041 -18.895916 3.000000
    endloop
  endfacet
  facet normal -0.000000 0.000000 1.000000
    outer loop
      vertex 11.000000 -19.052559 3.000000
      vertex 7.481162 -17.353328 3.000000
      vertex 8.981162 -19.951404 3.000000
    endloop
  endfacet
  facet normal 0.000000 -0.000000 1.000000
    outer loop
      vertex 5.980272 -15.517695 3.000000
      vertex 5.160584 -15.882644 3.000000
      vertex 7.481162 -17.353328 3.000000
    endloop
  endfacet
  facet normal 0.000000 0.000000 1.000000
    outer loop
      vertex 2.159039 -11.273787 3.000000
      vertex 5.980272 -15.517695 3.000000
      vertex 12.787842 -17.753616 3.000000
    endloop
  endfacet
  facet normal -0.000000 -0.000000 1.000000
    outer loop
      vertex 10.448583 -12.937915 3.000000
      vertex -21.769003 2.197788 3.000000
      vertex 12.713482 -14.119752 3.000000
    endloop
  endfacet
  facet normal 0.000000 0.000000 1.000000
    outer loop
      vertex -4.005135 0.987177 3.000000
      vertex -18.769003 2.197788 3.000000
      vertex -21.769003 2.197788 3.000000
    endloop
  endfacet
  facet normal 0.000000 0.000000 1.000000
    outer loop
      vertex -13.510584 -9.816014 3.000000
      vertex -15.256209 -6.792502 3.000000
      vertex -18.769003 -2.197788 3.000000
    endloop
  endfacet
  facet normal 0.000000 0.000000 1.000000
    outer loop
      vertex -16.428854 -2.579780 3.000000
      vertex -10.842905 -3.767110 3.000000
      vertex -21.769003 2.197788 3.000000
    endloop
  endfacet
  facet normal 0.000000 0.000000 1.000000
    outer loop
      vertex -16.335065 3.472125 3.000000
      vertex -15.256209 6.792502 3.000000
      vertex -18.584804 3.950322 3.000000
    endloop
  endfacet
  facet normal 0.000000 0.000000 1.000000
    outer loop
      vertex 2.343267 3.394808 3.000000
      vertex 8.683866 7.506676 3.000000
      vertex -3.947441 6.837169 3.000000
    endloop
  endfacet
  facet normal 0.000000 -0.000000 1.000000
    outer loop
      vertex -15.371323 11.167920 3.000000
      vertex -17.357364 7.727996 3.000000
      vertex -12.713482 14.119752 3.000000
    endloop
  endfacet
  facet normal 0.000000 -0.000000 1.000000
    outer loop
      vertex 8.981162 19.951404 3.000000
      vertex 7.481162 17.353328 3.000000
      vertex 11.000000 19.052559 3.000000
    endloop
  endfacet
  facet normal 0.000000 0.000000 1.000000
    outer loop
      vertex -17.357364 7.727996 3.000000
      vertex -11.174481 12.410519 3.000000
      vertex -5.871323 18.070074 3.000000
    endloop
  endfacet
  facet normal 0.000000 0.000000 1.000000
    outer loop
      vertex 3.652506 1.916983 3.000000
      vertex 4.125000 0.000000 3.000000
      vertex 7.894882 0.000000 3.000000
    endloop
  endfacet
  facet normal 0.000000 0.000000 1.000000
    outer loop
      vertex 8.683866 -7.506676 3.000000
      vertex 3.652506 -1.916983 3.000000
      vertex 2.343267 -3.394808 3.000000
    endloop
  endfacet
  facet normal -0.000000 0.000000 1.000000
    outer loop
      vertex 0.497214 4.094924 3.000000
      vertex -3.947441 6.837169 3.000000
      vertex -10.842905 3.767110 3.000000
    endloop
  endfacet
  facet normal 0.000000 0.000000 1.000000
    outer loop
      vertex -4.005135 -0.987177 3.000000
      vertex -4.005135 0.987177 3.000000
      vertex -21.769003 2.197788 3.000000
    endloop
  endfacet
  facet normal 0.000000 0.000000 1.000000
    outer loop
      vertex -17.357364 7.727996 3.000000
      vertex -5.871323 18.070074 3.000000
      vertex -9.500000 16.454483 3.000000
    endloop
  endfacet
  facet normal 0.000000 -0.000000 1.000000
    outer loop
      vertex -12.713482 14.119752 3.000000
      vertex -17.357364 7.727996 3.000000
      vertex -9.500000 16.454483 3.000000
    endloop
  endfacet
  facet normal 0.000000 0.000000 1.000000
    outer loop
      vertex -11.174481 12.410519 3.000000
      vertex -8.350000 14.462624 3.000000
      vertex -5.871323 18.070074 3.000000
    endloop
  endfacet
  facet normal -0.000000 -0.000000 1.000000
    outer loop
      vertex -16.428854 -2.579780 3.000000
      vertex -21.769003 2.197788 3.000000
      vertex -16.335065 -3.472125 3.000000
    endloop
  endfacet
  facet normal -0.000000 0.000000 1.000000
    outer loop
      vertex -1.745625 -16.608516 3.000000
      vertex -5.160584 -15.882644 3.000000
      vertex -1.986041 -18.895916 3.000000
    endloop
  endfacet
  facet normal 0.000000 0.000000 1.000000
    outer loop
      vertex 5.980272 -15.517695 3.000000
      vertex 7.481162 -17.353328 3.000000
      vertex 11.000000 -19.052559 3.000000
    endloop
  endfacet
  facet normal 0.000000 0.000000 1.000000
    outer loop
      vertex -3.947441 -6.837169 3.000000
      vertex 2.159039 -11.273787 3.000000
      vertex 11.287842 -15.155540 3.000000
    endloop
  endfacet
  facet normal -0.000000 0.000000 1.000000
    outer loop
      vertex 12.713482 -14.119752 3.000000
      vertex -3.947441 -6.837169 3.000000
      vertex 11.287842 -15.155540 3.000000
    endloop
  endfacet
  facet normal 0.000000 0.000000 1.000000
    outer loop
      vertex 12.713482 -14.119752 3.000000
      vertex -21.769003 2.197788 3.000000
      vertex -3.947441 -6.837169 3.000000
    endloop
  endfacet
  facet normal -0.000000 -0.000000 1.000000
    outer loop
      vertex 11.287842 -15.155540 3.000000
      vertex 2.159039 -11.273787 3.000000
      vertex 12.787842 -17.753616 3.000000
    endloop
  endfacet
  facet normal -0.000000 0.000000 1.000000
    outer loop
      vertex 12.787842 -17.753616 3.000000
      vertex 5.980272 -15.517695 3.000000
      vertex 11.000000 -19.052559 3.000000
    endloop
  endfacet
  facet normal 0.000000 0.000000 1.000000
    outer loop
      vertex -10.842905 -3.767110 3.000000
      vertex -3.947441 -6.837169 3.000000
      vertex -21.769003 2.197788 3.000000
    endloop
  endfacet
  facet normal -0.000000 0.000000 1.000000
    outer loop
      vertex 7.481162 -17.353328 3.000000
      vertex 5.160584 -15.882644 3.000000
      vertex 5.871323 -18.070074 3.000000
    endloop
  endfacet
  facet normal 0.000000 0.000000 1.000000
    outer loop
      vertex 13.510584 9.816014 3.000000
      vertex 15.256209 6.792502 3.000000
      vertex 17.357364 7.727996 3.000000
    endloop
  endfacet
  facet normal -0.000000 0.000000 1.000000
    outer loop
      vertex 5.871323 -18.070074 3.000000
      vertex 1.745625 -16.608516 3.000000
      vertex 1.986041 -18.895916 3.000000
    endloop
  endfacet
  facet normal -0.000000 0.000000 1.000000
    outer loop
      vertex 1.986041 -18.895916 3.000000
      vertex -1.745625 -16.608516 3.000000
      vertex -1.986041 -18.895916 3.000000
    endloop
  endfacet
  facet normal 0.000000 0.000000 1.000000
    outer loop
      vertex -1.986041 -18.895916 3.000000
      vertex -5.160584 -15.882644 3.000000
      vertex -5.871323 -18.070074 3.000000
    endloop
  endfacet
  facet normal -0.000000 0.000000 1.000000
    outer loop
      vertex -5.160584 -15.882644 3.000000
      vertex -8.350000 -14.462624 3.000000
      vertex -5.871323 -18.070074 3.000000
    endloop
  endfacet
  facet normal 0.000000 -0.000000 1.000000
    outer loop
      vertex 5.160584 -15.882644 3.000000
      vertex 1.745625 -16.608516 3.000000
      vertex 5.871323 -18.070074 3.000000
    endloop
  endfacet
  facet normal 0.000000 0.000000 1.000000
    outer loop
      vertex -5.871323 -18.070074 3.000000
      vertex -11.174481 -12.410519 3.000000
      vertex -9.500000 -16.454483 3.000000
    endloop
  endfacet
  facet normal 0.000000 0.000000 1.000000
    outer loop
      vertex 5.980272 15.517695 3.000000
      vertex 11.287842 15.155540 3.000000
      vertex 12.787842 17.753616 3.000000
    endloop
  endfacet
  facet normal -0.000000 -0.000000 1.000000
    outer loop
      vertex -11.174481 -12.410519 3.000000
      vertex -13.510584 -9.816014 3.000000
      vertex -9.500000 -16.454483 3.000000
    endloop
  endfacet
  facet normal 0.000000 -0.000000 1.000000
    outer loop
      vertex 7.481162 17.353328 3.000000
      vertex 5.160584 15.882644 3.000000
      vertex 11.000000 19.052559 3.000000
    endloop
  endfacet
  facet normal 0.000000 0.000000 1.000000
    outer loop
      vertex -15.256209 -6.792502 3.000000
      vertex -16.335065 -3.472125 3.000000
      vertex -21.769003 2.197788 3.000000
    endloop
  endfacet
  facet normal 0.000000 0.000000 1.000000
    outer loop
      vertex 1.745625 16.608516 3.000000
      vertex 7.481162 17.353328 3.000000
      vertex 5.871323 18.070074 3.000000
    endloop
  endfacet
  facet normal 0.000000 0.000000 1.000000
    outer loop
      vertex 8.683866 -7.506676 3.000000
      vertex 2.343267 -3.394808 3.000000
      vertex 0.497214 -4.094924 3.000000
    endloop
  endfacet
  facet normal 0.000000 0.000000 1.000000
    outer loop
      vertex 1.745625 16.608516 3.000000
      vertex 5.160584 15.882644 3.000000
      vertex 7.481162 17.353328 3.000000
    endloop
  endfacet
  facet normal 0.000000 0.000000 1.000000
    outer loop
      vertex 8.683866 -7.506676 3.000000
      vertex 4.125000 0.000000 3.000000
      vertex 3.652506 -1.916983 3.000000
    endloop
  endfacet
  facet normal 0.000000 0.000000 1.000000
    outer loop
      vertex 8.683866 -7.506676 3.000000
      vertex 7.894882 0.000000 3.000000
      vertex 4.125000 0.000000 3.000000
    endloop
  endfacet
  facet normal 0.000000 -0.000000 1.000000
    outer loop
      vertex -5.871323 18.070074 3.000000
      vertex -8.350000 14.462624 3.000000
      vertex -1.986041 18.895916 3.000000
    endloop
  endfacet
  facet normal 0.000000 -0.000000 1.000000
    outer loop
      vertex -1.986041 18.895916 3.000000
      vertex -5.160584 15.882644 3.000000
      vertex 1.986041 18.895916 3.000000
    endloop
  endfacet
  facet normal 0.000000 0.000000 1.000000
    outer loop
      vertex -5.160584 15.882644 3.000000
      vertex -1.745625 16.608516 3.000000
      vertex 1.986041 18.895916 3.000000
    endloop
  endfacet
  facet normal 0.000000 -0.000000 1.000000
    outer loop
      vertex 11.000000 19.052559 3.000000
      vertex 5.160584 15.882644 3.000000
      vertex 12.787842 17.753616 3.000000
    endloop
  endfacet
  facet normal 0.000000 0.000000 1.000000
    outer loop
      vertex 5.160584 15.882644 3.000000
      vertex 5.980272 15.517695 3.000000
      vertex 12.787842 17.753616 3.000000
    endloop
  endfacet
  facet normal 0.000000 0.000000 1.000000
    outer loop
      vertex 7.894882 0.000000 3.000000
      vertex 8.683866 7.506676 3.000000
      vertex 2.343267 3.394808 3.000000
    endloop
  endfacet
  facet normal 0.000000 -0.000000 1.000000
    outer loop
      vertex 11.287842 15.155540 3.000000
      vertex 2.159039 11.273787 3.000000
      vertex 12.713482 14.119752 3.000000
    endloop
  endfacet
  facet normal 0.000000 0.000000 1.000000
    outer loop
      vertex 11.174481 12.410519 3.000000
      vertex 13.510584 9.816014 3.000000
      vertex 15.371323 11.167920 3.000000
    endloop
  endfacet
  facet normal -0.000000 -0.000000 1.000000
    outer loop
      vertex -8.350000 -14.462624 3.000000
      vertex -11.174481 -12.410519 3.000000
      vertex -5.871323 -18.070074 3.000000
    endloop
  endfacet
  facet normal 0.000000 0.000000 1.000000
    outer loop
      vertex -1.462745 -3.856942 3.000000
      vertex -3.087607 -2.735381 3.000000
      vertex -21.769003 2.197788 3.000000
    endloop
  endfacet
  facet normal 0.000000 0.000000 1.000000
    outer loop
      vertex -15.256209 -6.792502 3.000000
      vertex -21.769003 2.197788 3.000000
      vertex -18.769003 -2.197788 3.000000
    endloop
  endfacet
  facet normal 0.000000 0.000000 1.000000
    outer loop
      vertex 0.497214 4.094924 3.000000
      vertex -16.428854 2.579780 3.000000
      vertex -1.462745 3.856942 3.000000
    endloop
  endfacet
  facet normal -0.000000 0.000000 1.000000
    outer loop
      vertex -3.087607 2.735381 3.000000
      vertex -1.462745 3.856942 3.000000
      vertex -16.428854 2.579780 3.000000
    endloop
  endfacet
  facet normal 0.000000 0.000000 1.000000
    outer loop
      vertex -3.087607 2.735381 3.000000
      vertex -16.428854 2.579780 3.000000
      vertex -18.769003 2.197788 3.000000
    endloop
  endfacet
  facet normal 0.000000 0.000000 1.000000
    outer loop
      vertex 10.448583 -12.937915 3.000000
      vertex 8.683866 -7.506676 3.000000
      vertex 0.497214 -4.094924 3.000000
    endloop
  endfacet
  facet normal 0.000000 0.000000 1.000000
    outer loop
      vertex 19.000000 0.000000 3.000000
      vertex 16.700000 0.000000 3.000000
      vertex 18.584804 -3.950322 3.000000
    endloop
  endfacet
  facet normal 0.000000 0.000000 1.000000
    outer loop
      vertex 10.448583 -12.937915 3.000000
      vertex 0.497214 -4.094924 3.000000
      vertex -1.462745 -3.856942 3.000000
    endloop
  endfacet
  facet normal 0.000000 0.000000 1.000000
    outer loop
      vertex -4.005135 0.987177 3.000000
      vertex -3.087607 2.735381 3.000000
      vertex -18.769003 2.197788 3.000000
    endloop
  endfacet
  facet normal 0.000000 -0.000000 1.000000
    outer loop
      vertex 16.700000 0.000000 3.000000
      vertex 16.335065 -3.472125 3.000000
      vertex 18.584804 -3.950322 3.000000
    endloop
  endfacet
  facet normal 0.000000 -0.000000 1.000000
    outer loop
      vertex 16.335065 -3.472125 3.000000
      vertex 15.256209 -6.792502 3.000000
      vertex 18.584804 -3.950322 3.000000
    endloop
  endfacet
  facet normal 0.000000 0.000000 1.000000
    outer loop
      vertex 0.497214 4.094924 3.000000
      vertex -10.842905 3.767110 3.000000
      vertex -16.428854 2.579780 3.000000
    endloop
  endfacet
  facet normal 0.000000 0.000000 1.000000
    outer loop
      vertex 16.335065 3.472125 3.000000
      vertex 16.700000 0.000000 3.000000
      vertex 19.000000 0.000000 3.000000
    endloop
  endfacet
  facet normal 0.000000 0.000000 1.000000
    outer loop
      vertex 15.256209 6.792502 3.000000
      vertex 16.335065 3.472125 3.000000
      vertex 18.584804 3.950322 3.000000
    endloop
  endfacet
  facet normal 0.000000 0.000000 1.000000
    outer loop
      vertex -3.087607 -2.735381 3.000000
      vertex -4.005135 -0.987177 3.000000
      vertex -21.769003 2.197788 3.000000
    endloop
  endfacet
  facet normal 0.000000 -0.000000 1.000000
    outer loop
      vertex 12.713482 14.119752 3.000000
      vertex 10.448583 12.937915 3.000000
      vertex 15.371323 11.167920 3.000000
    endloop
  endfacet
  facet normal 0.000000 0.000000 1.000000
    outer loop
      vertex 12.713482 14.119752 3.000000
      vertex -3.947441 6.837169 3.000000
      vertex 10.448583 12.937915 3.000000
    endloop
  endfacet
  facet normal 0.000000 0.000000 1.000000
    outer loop
      vertex 10.448583 12.937915 3.000000
      vertex 11.174481 12.410519 3.000000
      vertex 15.371323 11.167920 3.000000
    endloop
  endfacet
  facet normal 0.000000 -0.000000 1.000000
    outer loop
      vertex 15.371323 11.167920 3.000000
      vertex 13.510584 9.816014 3.000000
      vertex 17.357364 7.727996 3.000000
    endloop
  endfacet
  facet normal 0.000000 -0.000000 1.000000
    outer loop
      vertex 17.357364 7.727996 3.000000
      vertex 15.256209 6.792502 3.000000
      vertex 18.584804 3.950322 3.000000
    endloop
  endfacet
  facet normal 0.000000 -0.000000 1.000000
    outer loop
      vertex 18.584804 3.950322 3.000000
      vertex 16.335065 3.472125 3.000000
      vertex 19.000000 0.000000 3.000000
    endloop
  endfacet
  facet normal 0.000000 -0.000000 1.000000
    outer loop
      vertex 15.256209 -6.792502 3.000000
      vertex 13.510584 -9.816014 3.000000
      vertex 17.357364 -7.727996 3.000000
    endloop
  endfacet
  facet normal 0.000000 0.000000 1.000000
    outer loop
      vertex 7.894882 0.000000 3.000000
      vertex 2.343267 3.394808 3.000000
      vertex 3.652506 1.916983 3.000000
    endloop
  endfacet
  facet normal 0.000000 0.000000 1.000000
    outer loop
      vertex 18.584804 -3.950322 3.000000
      vertex 15.256209 -6.792502 3.000000
      vertex 17.357364 -7.727996 3.000000
    endloop
  endfacet
  facet normal 0.000000 0.000000 1.000000
    outer loop
      vertex 10.448583 -12.937915 3.000000
      vertex -1.462745 -3.856942 3.000000
      vertex -21.769003 2.197788 3.000000
    endloop
  endfacet
  facet normal 0.000000 0.000000 1.000000
    outer loop
      vertex 17.357364 -7.727996 3.000000
      vertex 13.510584 -9.816014 3.000000
      vertex 15.371323 -11.167920 3.000000
    endloop
  endfacet
  facet normal 0.000000 0.000000 1.000000
    outer loop
      vertex 15.371323 -11.167920 3.000000
      vertex 11.174481 -12.410519 3.000000
      vertex 12.713482 -14.119752 3.000000
    endloop
  endfacet
  facet normal 0.000000 -0.000000 1.000000
    outer loop
      vertex 13.510584 -9.816014 3.000000
      vertex 11.174481 -12.410519 3.000000
      vertex 15.371323 -11.167920 3.000000
    endloop
  endfacet
  facet normal 0.000000 -0.000000 1.000000
    outer loop
      vertex 11.174481 -12.410519 3.000000
      vertex 10.448583 -12.937915 3.000000
      vertex 12.713482 -14.119752 3.000000
    endloop
  endfacet
  facet normal 0.000000 0.000000 1.000000
    outer loop
      vertex -8.350000 14.462624 3.000000
      vertex -5.160584 15.882644 3.000000
      vertex -1.986041 18.895916 3.000000
    endloop
  endfacet
  facet normal -0.000000 0.000000 1.000000
    outer loop
      vertex 5.871323 18.070074 3.000000
      vertex 1.986041 18.895916 3.000000
      vertex 1.745625 16.608516 3.000000
    endloop
  endfacet
  facet normal 0.000000 0.000000 1.000000
    outer loop
      vertex -17.357364 7.727996 3.000000
      vertex -13.510584 9.816014 3.000000
      vertex -11.174481 12.410519 3.000000
    endloop
  endfacet
  facet normal 0.000000 0.000000 1.000000
    outer loop
      vertex -1.745625 16.608516 3.000000
      vertex 1.745625 16.608516 3.000000
      vertex 1.986041 18.895916 3.000000
    endloop
  endfacet
  facet normal 0.000000 0.000000 1.000000
    outer loop
      vertex -17.357364 7.727996 3.000000
      vertex -15.256209 6.792502 3.000000
      vertex -13.510584 9.816014 3.000000
    endloop
  endfacet
  facet normal 0.000000 -0.000000 1.000000
    outer loop
      vertex 5.980272 15.517695 3.000000
      vertex 2.159039 11.273787 3.000000
      vertex 11.287842 15.155540 3.000000
    endloop
  endfacet
  facet normal 0.000000 -0.000000 1.000000
    outer loop
      vertex -17.357364 7.727996 3.000000
      vertex -18.584804 3.950322 3.000000
      vertex -15.256209 6.792502 3.000000
    endloop
  endfacet
  facet normal 0.000000 0.000000 1.000000
    outer loop
      vertex 2.343267 3.394808 3.000000
      vertex -3.947441 6.837169 3.000000
      vertex 0.497214 4.094924 3.000000
    endloop
  endfacet
  facet normal -0.000000 0.000000 1.000000
    outer loop
      vertex 8.683866 7.506676 3.000000
      vertex 10.448583 12.937915 3.000000
      vertex -3.947441 6.837169 3.000000
    endloop
  endfacet
  facet normal 0.000000 0.000000 1.000000
    outer loop
      vertex -18.584804 3.950322 3.000000
      vertex -16.428854 2.579780 3.000000
      vertex -16.335065 3.472125 3.000000
    endloop
  endfacet
  facet normal 0.000000 -0.000000 1.000000
    outer loop
      vertex -18.584804 3.950322 3.000000
      vertex -18.769003 2.197788 3.000000
      vertex -16.428854 2.579780 3.000000
    endloop
  endfacet
endsolid OpenSCAD_Model
