solid OpenSCAD_Model
  facet normal -1.000000 -0.000000 -0.000000
    outer loop
      vertex -15.000000 -2.000000 0.000000
      vertex -15.000000 -2.000000 4.000000
      vertex -15.000000 -1.240445 0.000000
    endloop
  endfacet
  facet normal -1.000000 0.000000 0.000000
    outer loop
      vertex -15.000000 -1.240445 0.000000
      vertex -15.000000 -2.000000 4.000000
      vertex -15.000000 -1.240445 4.000000
    endloop
  endfacet
  facet normal -0.951057 -0.309017 -0.000000
    outer loop
      vertex -15.000000 -2.000000 0.000000
      vertex -14.427051 -3.763356 0.000000
      vertex -15.000000 -2.000000 4.000000
    endloop
  endfacet
  facet normal -0.951057 -0.309017 0.000000
    outer loop
      vertex -15.000000 -2.000000 4.000000
      vertex -14.427051 -3.763356 0.000000
      vertex -14.427051 -3.763356 4.000000
    endloop
  endfacet
  facet normal -0.000000 -0.000000 -1.000000
    outer loop
      vertex -15.000000 -2.000000 0.000000
      vertex -15.000000 -1.240445 0.000000
      vertex -14.427051 -3.763356 0.000000
    endloop
  endfacet
  facet normal 0.000000 -0.000000 -1.000000
    outer loop
      vertex -14.427051 -3.763356 0.000000
      vertex -15.000000 -1.240445 0.000000
      vertex -14.372109 -1.129731 0.000000
    endloop
  endfacet
  facet normal 0.000000 0.000000 -1.000000
    outer loop
      vertex -14.427051 -3.763356 0.000000
      vertex -14.372109 -1.129731 0.000000
      vertex -13.963525 -1.426585 0.000000
    endloop
  endfacet
  facet normal 0.000000 0.000000 -1.000000
    outer loop
      vertex -14.427051 -3.763356 0.000000
      vertex -13.963525 -1.426585 0.000000
      vertex -13.036475 -1.426585 0.000000
    endloop
  endfacet
  facet normal -0.000000 0.000000 -1.000000
    outer loop
      vertex -13.036475 -1.426585 0.000000
      vertex -12.286475 -0.881678 0.000000
      vertex -14.427051 -3.763356 0.000000
    endloop
  endfacet
  facet normal 0.000000 0.000000 -1.000000
    outer loop
      vertex -13.963525 1.426585 0.000000
      vertex -14.372109 1.129731 0.000000
      vertex -15.000000 1.240445 0.000000
    endloop
  endfacet
  facet normal 0.000000 0.000000 -1.000000
    outer loop
      vertex -13.963525 1.426585 0.000000
      vertex -15.000000 1.240445 0.000000
      vertex -15.000000 2.000000 0.000000
    endloop
  endfacet
  facet normal -0.000000 -0.000000 -1.000000
    outer loop
      vertex -13.963525 1.426585 0.000000
      vertex -15.000000 2.000000 0.000000
      vertex -13.036475 1.426585 0.000000
    endloop
  endfacet
  facet normal 0.000000 0.000000 -1.000000
    outer loop
      vertex -13.036475 1.426585 0.000000
      vertex -15.000000 2.000000 0.000000
      vertex -14.427051 3.763356 0.000000
    endloop
  endfacet
  facet normal -0.000000 -0.000000 -1.000000
    outer loop
      vertex -13.036475 1.426585 0.000000
      vertex -14.427051 3.763356 0.000000
      vertex -12.286475 0.881678 0.000000
    endloop
  endfacet
  facet normal 0.000000 0.000000 -1.000000
    outer loop
      vertex -12.286475 0.881678 0.000000
      vertex -14.427051 3.763356 0.000000
      vertex -12.927051 4.853170 0.000000
    endloop
  endfacet
  facet normal -0.000000 -0.000000 -1.000000
    outer loop
      vertex -12.286475 0.881678 0.000000
      vertex -12.927051 4.853170 0.000000
      vertex -12.000000 -0.000000 0.000000
    endloop
  endfacet
  facet normal 0.000000 0.000000 -1.000000
    outer loop
      vertex -12.000000 -0.000000 0.000000
      vertex -12.927051 4.853170 0.000000
      vertex -12.000000 4.853170 0.000000
    endloop
  endfacet
  facet normal -0.000000 0.000000 -1.000000
    outer loop
      vertex -12.000000 -0.000000 0.000000
      vertex -10.000000 5.000000 0.000000
      vertex -12.286475 -0.881678 0.000000
    endloop
  endfacet
  facet normal 0.000000 -0.000000 -1.000000
    outer loop
      vertex -12.000000 4.853170 0.000000
      vertex -12.000000 5.000000 0.000000
      vertex -10.000000 5.000000 0.000000
    endloop
  endfacet
  facet normal -0.000000 0.000000 -1.000000
    outer loop
      vertex -12.000000 4.853170 0.000000
      vertex -10.000000 5.000000 0.000000
      vertex -12.000000 -0.000000 0.000000
    endloop
  endfacet
  facet normal -0.000000 0.000000 -1.000000
    outer loop
      vertex -9.781476 7.079117 0.000000
      vertex -9.135455 9.067366 0.000000
      vertex -10.000000 5.000000 0.000000
    endloop
  endfacet
  facet normal -0.000000 0.000000 -1.000000
    outer loop
      vertex -9.135455 9.067366 0.000000
      vertex -8.090170 10.877853 0.000000
      vertex -10.000000 5.000000 0.000000
    endloop
  endfacet
  facet normal 0.000000 0.000000 -1.000000
    outer loop
      vertex -10.000000 5.000000 0.000000
      vertex -8.090170 10.877853 0.000000
      vertex -6.691306 12.431448 0.000000
    endloop
  endfacet
  facet normal -0.000000 0.000000 -1.000000
    outer loop
      vertex -10.000000 5.000000 0.000000
      vertex -6.691306 12.431448 0.000000
      vertex -12.286475 -0.881678 0.000000
    endloop
  endfacet
  facet normal 0.000000 0.000000 -1.000000
    outer loop
      vertex -12.286475 -0.881678 0.000000
      vertex -6.691306 12.431448 0.000000
      vertex -5.000000 13.660254 0.000000
    endloop
  endfacet
  facet normal 0.000000 0.000000 -1.000000
    outer loop
      vertex -12.286475 -0.881678 0.000000
      vertex -5.000000 13.660254 0.000000
      vertex -3.090170 14.510565 0.000000
    endloop
  endfacet
  facet normal 0.000000 0.000000 -1.000000
    outer loop
      vertex -12.286475 -0.881678 0.000000
      vertex -3.090170 14.510565 0.000000
      vertex -1.045285 14.945219 0.000000
    endloop
  endfacet
  facet normal 0.000000 0.000000 -1.000000
    outer loop
      vertex -3.000000 10.196152 0.000000
      vertex -1.045285 14.945219 0.000000
      vertex 1.045285 14.945219 0.000000
    endloop
  endfacet
  facet normal 0.000000 0.000000 -1.000000
    outer loop
      vertex -0.627171 10.967131 0.000000
      vertex 1.045285 14.945219 0.000000
      vertex 3.090170 14.510565 0.000000
    endloop
  endfacet
  facet normal 0.000000 0.000000 -1.000000
    outer loop
      vertex 0.627171 10.967131 0.000000
      vertex 3.090170 14.510565 0.000000
      vertex 5.000000 13.660254 0.000000
    endloop
  endfacet
  facet normal 0.000000 0.000000 -1.000000
    outer loop
      vertex 3.000000 10.196152 0.000000
      vertex 5.000000 13.660254 0.000000
      vertex 6.691306 12.431448 0.000000
    endloop
  endfacet
  facet normal 0.000000 0.000000 -1.000000
    outer loop
      vertex 4.014784 9.458869 0.000000
      vertex 6.691306 12.431448 0.000000
      vertex 8.090170 10.877853 0.000000
    endloop
  endfacet
  facet normal 0.000000 0.000000 -1.000000
    outer loop
      vertex 5.481273 7.440420 0.000000
      vertex 8.090170 10.877853 0.000000
      vertex 9.135455 9.067366 0.000000
    endloop
  endfacet
  facet normal 0.000000 0.000000 -1.000000
    outer loop
      vertex 5.868886 6.247470 0.000000
      vertex 9.135455 9.067366 0.000000
      vertex 9.781476 7.079117 0.000000
    endloop
  endfacet
  facet normal 0.000000 0.000000 -1.000000
    outer loop
      vertex 5.868886 3.752530 0.000000
      vertex 9.781476 7.079117 0.000000
      vertex 10.000000 5.000000 0.000000
    endloop
  endfacet
  facet normal 0.000000 0.000000 -1.000000
    outer loop
      vertex 5.481273 2.559580 0.000000
      vertex 12.000000 4.853170 0.000000
      vertex 12.927051 4.853170 0.000000
    endloop
  endfacet
  facet normal 0.000000 0.000000 -1.000000
    outer loop
      vertex 5.868886 3.752530 0.000000
      vertex 12.000000 5.000000 0.000000
      vertex 12.000000 4.853170 0.000000
    endloop
  endfacet
  facet normal 0.000000 0.000000 -1.000000
    outer loop
      vertex 4.014784 0.541131 0.000000
      vertex 14.427051 3.763356 0.000000
      vertex 15.000000 2.000000 0.000000
    endloop
  endfacet
  facet normal -0.000000 0.000000 -1.000000
    outer loop
      vertex 13.963525 1.426585 0.000000
      vertex 15.000000 2.000000 0.000000
      vertex 15.000000 1.240445 0.000000
    endloop
  endfacet
  facet normal -0.000000 0.000000 -1.000000
    outer loop
      vertex 13.036475 1.426585 0.000000
      vertex 15.000000 2.000000 0.000000
      vertex 13.963525 1.426585 0.000000
    endloop
  endfacet
  facet normal -0.000000 0.000000 -1.000000
    outer loop
      vertex -7.500000 -2.000000 0.000000
      vertex -0.627171 -0.967131 0.000000
      vertex -6.618322 -2.286475 0.000000
    endloop
  endfacet
  facet normal 0.000000 0.000000 -1.000000
    outer loop
      vertex 8.629731 -4.372109 0.000000
      vertex 12.000000 -5.000000 0.000000
      vertex 8.740445 -5.000000 0.000000
    endloop
  endfacet
  facet normal 0.000000 -0.000000 -1.000000
    outer loop
      vertex 12.286475 0.881678 0.000000
      vertex 0.627171 -0.967131 0.000000
      vertex 13.036475 1.426585 0.000000
    endloop
  endfacet
  facet normal 0.000000 0.000000 -1.000000
    outer loop
      vertex 8.629731 -4.372109 0.000000
      vertex 12.927051 -4.853170 0.000000
      vertex 12.000000 -4.853170 0.000000
    endloop
  endfacet
  facet normal -0.000000 0.000000 -1.000000
    outer loop
      vertex 3.000000 -0.196152 0.000000
      vertex 13.036475 1.426585 0.000000
      vertex 1.854102 -0.706339 0.000000
    endloop
  endfacet
  facet normal 0.000000 0.000000 -1.000000
    outer loop
      vertex 3.000000 -0.196152 0.000000
      vertex 15.000000 2.000000 0.000000
      vertex 13.036475 1.426585 0.000000
    endloop
  endfacet
  facet normal 0.000000 0.000000 -1.000000
    outer loop
      vertex 13.963525 -1.426585 0.000000
      vertex 14.372109 -1.129731 0.000000
      vertex 15.000000 -1.240445 0.000000
    endloop
  endfacet
  facet normal -0.000000 0.000000 -1.000000
    outer loop
      vertex 13.963525 -1.426585 0.000000
      vertex 15.000000 -1.240445 0.000000
      vertex 15.000000 -2.000000 0.000000
    endloop
  endfacet
  facet normal 0.000000 0.000000 -1.000000
    outer loop
      vertex -6.618322 -2.286475 0.000000
      vertex 12.000000 0.000000 0.000000
      vertex 12.286475 -0.881678 0.000000
    endloop
  endfacet
  facet normal -0.000000 0.000000 -1.000000
    outer loop
      vertex 8.926585 -3.036475 0.000000
      vertex 15.000000 -2.000000 0.000000
      vertex 14.427051 -3.763356 0.000000
    endloop
  endfacet
  facet normal -0.000000 0.000000 -1.000000
    outer loop
      vertex 8.629731 -4.372109 0.000000
      vertex 14.427051 -3.763356 0.000000
      vertex 12.927051 -4.853170 0.000000
    endloop
  endfacet
  facet normal 0.000000 0.000000 -1.000000
    outer loop
      vertex -8.629731 -4.372109 0.000000
      vertex -14.427051 -3.763356 0.000000
      vertex -8.926585 -3.963525 0.000000
    endloop
  endfacet
  facet normal 0.000000 0.000000 -1.000000
    outer loop
      vertex -6.073415 -3.036475 0.000000
      vertex 6.073415 -3.963525 0.000000
      vertex -6.073415 -3.963525 0.000000
    endloop
  endfacet
  facet normal -0.000000 0.000000 -1.000000
    outer loop
      vertex 8.926585 -3.963525 0.000000
      vertex 14.427051 -3.763356 0.000000
      vertex 8.629731 -4.372109 0.000000
    endloop
  endfacet
  facet normal 0.000000 0.000000 -1.000000
    outer loop
      vertex 8.926585 -3.036475 0.000000
      vertex 14.427051 -3.763356 0.000000
      vertex 8.926585 -3.963525 0.000000
    endloop
  endfacet
  facet normal -0.000000 0.000000 -1.000000
    outer loop
      vertex -6.618322 -2.286475 0.000000
      vertex 12.286475 -0.881678 0.000000
      vertex -6.073415 -3.036475 0.000000
    endloop
  endfacet
  facet normal -0.000000 0.000000 -1.000000
    outer loop
      vertex 8.381678 -2.286475 0.000000
      vertex 15.000000 -2.000000 0.000000
      vertex 8.926585 -3.036475 0.000000
    endloop
  endfacet
  facet normal 0.000000 0.000000 -1.000000
    outer loop
      vertex 13.963525 -1.426585 0.000000
      vertex 15.000000 -2.000000 0.000000
      vertex 8.381678 -2.286475 0.000000
    endloop
  endfacet
  facet normal 0.000000 0.000000 -1.000000
    outer loop
      vertex 13.963525 -1.426585 0.000000
      vertex 8.381678 -2.286475 0.000000
      vertex 7.500000 -2.000000 0.000000
    endloop
  endfacet
  facet normal 0.000000 0.000000 -1.000000
    outer loop
      vertex -6.618322 -2.286475 0.000000
      vertex 0.627171 -0.967131 0.000000
      vertex 12.286475 0.881678 0.000000
    endloop
  endfacet
  facet normal 0.000000 0.000000 -1.000000
    outer loop
      vertex -6.618322 -2.286475 0.000000
      vertex 12.286475 0.881678 0.000000
      vertex 12.000000 0.000000 0.000000
    endloop
  endfacet
  facet normal 0.000000 0.000000 -1.000000
    outer loop
      vertex -6.073415 -3.036475 0.000000
      vertex 13.036475 -1.426585 0.000000
      vertex 13.963525 -1.426585 0.000000
    endloop
  endfacet
  facet normal 0.000000 0.000000 -1.000000
    outer loop
      vertex -6.073415 -3.036475 0.000000
      vertex 6.618322 -2.286475 0.000000
      vertex 6.073415 -3.036475 0.000000
    endloop
  endfacet
  facet normal 0.000000 0.000000 -1.000000
    outer loop
      vertex 6.370269 -4.372109 0.000000
      vertex -6.073415 -3.963525 0.000000
      vertex 6.073415 -3.963525 0.000000
    endloop
  endfacet
  facet normal 0.000000 0.000000 -1.000000
    outer loop
      vertex -6.073415 -3.963525 0.000000
      vertex 6.370269 -4.372109 0.000000
      vertex 6.259555 -5.000000 0.000000
    endloop
  endfacet
  facet normal 0.000000 0.000000 -1.000000
    outer loop
      vertex -6.370269 -4.372109 0.000000
      vertex 6.259555 -5.000000 0.000000
      vertex -6.259555 -5.000000 0.000000
    endloop
  endfacet
  facet normal -0.000000 0.000000 -1.000000
    outer loop
      vertex -6.073415 -3.036475 0.000000
      vertex 6.073415 -3.036475 0.000000
      vertex 6.073415 -3.963525 0.000000
    endloop
  endfacet
  facet normal 0.000000 0.000000 -1.000000
    outer loop
      vertex -3.000000 10.196152 0.000000
      vertex 1.045285 14.945219 0.000000
      vertex -1.854102 10.706339 0.000000
    endloop
  endfacet
  facet normal 0.000000 0.000000 -1.000000
    outer loop
      vertex -6.073415 -3.036475 0.000000
      vertex 7.500000 -2.000000 0.000000
      vertex 6.618322 -2.286475 0.000000
    endloop
  endfacet
  facet normal 0.000000 0.000000 -1.000000
    outer loop
      vertex 12.286475 -0.881678 0.000000
      vertex 13.036475 -1.426585 0.000000
      vertex -6.073415 -3.036475 0.000000
    endloop
  endfacet
  facet normal -0.000000 0.000000 -1.000000
    outer loop
      vertex 4.014784 0.541131 0.000000
      vertex 15.000000 2.000000 0.000000
      vertex 3.000000 -0.196152 0.000000
    endloop
  endfacet
  facet normal 0.000000 0.000000 -1.000000
    outer loop
      vertex -14.427051 -3.763356 0.000000
      vertex -7.500000 -2.000000 0.000000
      vertex -8.381678 -2.286475 0.000000
    endloop
  endfacet
  facet normal 0.000000 0.000000 -1.000000
    outer loop
      vertex -6.073415 -3.036475 0.000000
      vertex 13.963525 -1.426585 0.000000
      vertex 7.500000 -2.000000 0.000000
    endloop
  endfacet
  facet normal 0.000000 -0.000000 -1.000000
    outer loop
      vertex -8.740445 -5.000000 0.000000
      vertex -14.427051 -3.763356 0.000000
      vertex -8.629731 -4.372109 0.000000
    endloop
  endfacet
  facet normal -0.000000 -0.000000 -1.000000
    outer loop
      vertex -12.927051 -4.853170 0.000000
      vertex -14.427051 -3.763356 0.000000
      vertex -12.000000 -4.853170 0.000000
    endloop
  endfacet
  facet normal 0.000000 0.000000 -1.000000
    outer loop
      vertex -12.000000 -4.853170 0.000000
      vertex -8.740445 -5.000000 0.000000
      vertex -12.000000 -5.000000 0.000000
    endloop
  endfacet
  facet normal 0.000000 0.000000 -1.000000
    outer loop
      vertex -14.427051 -3.763356 0.000000
      vertex -8.740445 -5.000000 0.000000
      vertex -12.000000 -4.853170 0.000000
    endloop
  endfacet
  facet normal 0.000000 -0.000000 -1.000000
    outer loop
      vertex -6.000000 5.000000 0.000000
      vertex -14.427051 -3.763356 0.000000
      vertex -5.868886 6.247470 0.000000
    endloop
  endfacet
  facet normal 0.000000 0.000000 -1.000000
    outer loop
      vertex -5.868886 3.752530 0.000000
      vertex -14.427051 -3.763356 0.000000
      vertex -6.000000 5.000000 0.000000
    endloop
  endfacet
  facet normal 0.000000 0.000000 -1.000000
    outer loop
      vertex -5.481273 2.559580 0.000000
      vertex -14.427051 -3.763356 0.000000
      vertex -5.868886 3.752530 0.000000
    endloop
  endfacet
  facet normal 0.000000 0.000000 -1.000000
    outer loop
      vertex -4.854102 1.473288 0.000000
      vertex -14.427051 -3.763356 0.000000
      vertex -5.481273 2.559580 0.000000
    endloop
  endfacet
  facet normal -0.000000 0.000000 -1.000000
    outer loop
      vertex 5.481273 7.440420 0.000000
      vertex 9.135455 9.067366 0.000000
      vertex 5.868886 6.247470 0.000000
    endloop
  endfacet
  facet normal -0.000000 0.000000 -1.000000
    outer loop
      vertex 4.014784 9.458869 0.000000
      vertex 8.090170 10.877853 0.000000
      vertex 4.854102 8.526712 0.000000
    endloop
  endfacet
  facet normal 0.000000 0.000000 -1.000000
    outer loop
      vertex -3.000000 -0.196152 0.000000
      vertex -14.427051 -3.763356 0.000000
      vertex -4.014784 0.541131 0.000000
    endloop
  endfacet
  facet normal 0.000000 -0.000000 -1.000000
    outer loop
      vertex -7.500000 -2.000000 0.000000
      vertex -14.427051 -3.763356 0.000000
      vertex -3.000000 -0.196152 0.000000
    endloop
  endfacet
  facet normal -0.000000 0.000000 -1.000000
    outer loop
      vertex 5.868886 3.752530 0.000000
      vertex 12.000000 4.853170 0.000000
      vertex 5.481273 2.559580 0.000000
    endloop
  endfacet
  facet normal 0.000000 0.000000 -1.000000
    outer loop
      vertex -0.627171 -0.967131 0.000000
      vertex -7.500000 -2.000000 0.000000
      vertex -1.854102 -0.706339 0.000000
    endloop
  endfacet
  facet normal 0.000000 0.000000 -1.000000
    outer loop
      vertex 5.868886 3.752530 0.000000
      vertex 10.000000 5.000000 0.000000
      vertex 12.000000 5.000000 0.000000
    endloop
  endfacet
  facet normal -0.000000 0.000000 -1.000000
    outer loop
      vertex 1.854102 -0.706339 0.000000
      vertex 13.036475 1.426585 0.000000
      vertex 0.627171 -0.967131 0.000000
    endloop
  endfacet
  facet normal 0.000000 0.000000 -1.000000
    outer loop
      vertex 0.627171 -0.967131 0.000000
      vertex -6.618322 -2.286475 0.000000
      vertex -0.627171 -0.967131 0.000000
    endloop
  endfacet
  facet normal 0.000000 -0.000000 -1.000000
    outer loop
      vertex -8.926585 -3.036475 0.000000
      vertex -14.427051 -3.763356 0.000000
      vertex -8.381678 -2.286475 0.000000
    endloop
  endfacet
  facet normal -0.000000 0.000000 -1.000000
    outer loop
      vertex 5.481273 2.559580 0.000000
      vertex 14.427051 3.763356 0.000000
      vertex 4.854102 1.473288 0.000000
    endloop
  endfacet
  facet normal -0.000000 0.000000 -1.000000
    outer loop
      vertex 4.854102 1.473288 0.000000
      vertex 14.427051 3.763356 0.000000
      vertex 4.014784 0.541131 0.000000
    endloop
  endfacet
  facet normal 0.000000 0.000000 -1.000000
    outer loop
      vertex 5.481273 2.559580 0.000000
      vertex 12.927051 4.853170 0.000000
      vertex 14.427051 3.763356 0.000000
    endloop
  endfacet
  facet normal 0.000000 0.000000 -1.000000
    outer loop
      vertex -1.854102 -0.706339 0.000000
      vertex -7.500000 -2.000000 0.000000
      vertex -3.000000 -0.196152 0.000000
    endloop
  endfacet
  facet normal -0.000000 0.000000 -1.000000
    outer loop
      vertex 6.000000 5.000000 0.000000
      vertex 9.781476 7.079117 0.000000
      vertex 5.868886 3.752530 0.000000
    endloop
  endfacet
  facet normal -0.000000 0.000000 -1.000000
    outer loop
      vertex 5.868886 6.247470 0.000000
      vertex 9.781476 7.079117 0.000000
      vertex 6.000000 5.000000 0.000000
    endloop
  endfacet
  facet normal -0.000000 0.000000 -1.000000
    outer loop
      vertex 4.854102 8.526712 0.000000
      vertex 8.090170 10.877853 0.000000
      vertex 5.481273 7.440420 0.000000
    endloop
  endfacet
  facet normal 0.000000 0.000000 -1.000000
    outer loop
      vertex -4.014784 0.541131 0.000000
      vertex -14.427051 -3.763356 0.000000
      vertex -4.854102 1.473288 0.000000
    endloop
  endfacet
  facet normal -0.000000 0.000000 -1.000000
    outer loop
      vertex 3.000000 10.196152 0.000000
      vertex 6.691306 12.431448 0.000000
      vertex 4.014784 9.458869 0.000000
    endloop
  endfacet
  facet normal -0.000000 0.000000 -1.000000
    outer loop
      vertex 1.854102 10.706339 0.000000
      vertex 5.000000 13.660254 0.000000
      vertex 3.000000 10.196152 0.000000
    endloop
  endfacet
  facet normal -0.000000 0.000000 -1.000000
    outer loop
      vertex 0.627171 10.967131 0.000000
      vertex 5.000000 13.660254 0.000000
      vertex 1.854102 10.706339 0.000000
    endloop
  endfacet
  facet normal 0.000000 0.000000 -1.000000
    outer loop
      vertex -5.868886 6.247470 0.000000
      vertex -14.427051 -3.763356 0.000000
      vertex -12.286475 -0.881678 0.000000
    endloop
  endfacet
  facet normal -0.000000 0.000000 -1.000000
    outer loop
      vertex -0.627171 10.967131 0.000000
      vertex 3.090170 14.510565 0.000000
      vertex 0.627171 10.967131 0.000000
    endloop
  endfacet
  facet normal 0.000000 0.000000 -1.000000
    outer loop
      vertex -1.854102 10.706339 0.000000
      vertex 1.045285 14.945219 0.000000
      vertex -0.627171 10.967131 0.000000
    endloop
  endfacet
  facet normal 0.000000 0.000000 -1.000000
    outer loop
      vertex -4.014784 9.458869 0.000000
      vertex -1.045285 14.945219 0.000000
      vertex -3.000000 10.196152 0.000000
    endloop
  endfacet
  facet normal 0.000000 -0.000000 -1.000000
    outer loop
      vertex -5.481273 7.440420 0.000000
      vertex -12.286475 -0.881678 0.000000
      vertex -4.854102 8.526712 0.000000
    endloop
  endfacet
  facet normal 0.000000 0.000000 -1.000000
    outer loop
      vertex -4.854102 8.526712 0.000000
      vertex -1.045285 14.945219 0.000000
      vertex -4.014784 9.458869 0.000000
    endloop
  endfacet
  facet normal 0.000000 0.000000 -1.000000
    outer loop
      vertex -12.286475 -0.881678 0.000000
      vertex -1.045285 14.945219 0.000000
      vertex -4.854102 8.526712 0.000000
    endloop
  endfacet
  facet normal 0.000000 -0.000000 -1.000000
    outer loop
      vertex -5.868886 6.247470 0.000000
      vertex -12.286475 -0.881678 0.000000
      vertex -5.481273 7.440420 0.000000
    endloop
  endfacet
  facet normal 0.000000 0.000000 -1.000000
    outer loop
      vertex 13.963525 1.426585 0.000000
      vertex 15.000000 1.240445 0.000000
      vertex 14.372109 1.129731 0.000000
    endloop
  endfacet
  facet normal 0.000000 0.000000 -1.000000
    outer loop
      vertex 8.629731 -4.372109 0.000000
      vertex 12.000000 -4.853170 0.000000
      vertex 12.000000 -5.000000 0.000000
    endloop
  endfacet
  facet normal 0.000000 0.000000 -1.000000
    outer loop
      vertex -6.073415 -3.963525 0.000000
      vertex 6.259555 -5.000000 0.000000
      vertex -6.370269 -4.372109 0.000000
    endloop
  endfacet
  facet normal 0.000000 0.000000 -1.000000
    outer loop
      vertex -8.926585 -3.963525 0.000000
      vertex -14.427051 -3.763356 0.000000
      vertex -8.926585 -3.036475 0.000000
    endloop
  endfacet
  facet normal -0.173648 0.984808 0.000000
    outer loop
      vertex -14.372109 -1.129731 4.000000
      vertex -14.372109 -1.129731 0.000000
      vertex -15.000000 -1.240445 4.000000
    endloop
  endfacet
  facet normal -0.173648 0.984808 0.000000
    outer loop
      vertex -15.000000 -1.240445 4.000000
      vertex -14.372109 -1.129731 0.000000
      vertex -15.000000 -1.240445 0.000000
    endloop
  endfacet
  facet normal 0.000000 -0.000000 1.000000
    outer loop
      vertex -15.000000 -1.240445 4.000000
      vertex -15.000000 -2.000000 4.000000
      vertex -14.427051 -3.763356 4.000000
    endloop
  endfacet
  facet normal -0.000000 0.000000 1.000000
    outer loop
      vertex -12.000000 -4.853170 4.000000
      vertex -15.000000 -1.240445 4.000000
      vertex -12.927051 -4.853170 4.000000
    endloop
  endfacet
  facet normal 0.000000 0.000000 1.000000
    outer loop
      vertex -12.927051 -4.853170 4.000000
      vertex -15.000000 -1.240445 4.000000
      vertex -14.427051 -3.763356 4.000000
    endloop
  endfacet
  facet normal 0.000000 0.000000 1.000000
    outer loop
      vertex -8.740445 -5.000000 4.000000
      vertex -15.000000 -1.240445 4.000000
      vertex -12.000000 -4.853170 4.000000
    endloop
  endfacet
  facet normal -0.000000 0.000000 1.000000
    outer loop
      vertex -8.740445 -5.000000 4.000000
      vertex -12.000000 -4.853170 4.000000
      vertex -12.000000 -5.000000 4.000000
    endloop
  endfacet
  facet normal -0.000000 0.000000 1.000000
    outer loop
      vertex -8.629731 -4.372109 4.000000
      vertex -15.000000 -1.240445 4.000000
      vertex -8.740445 -5.000000 4.000000
    endloop
  endfacet
  facet normal -0.000000 -0.000000 1.000000
    outer loop
      vertex -8.926585 -3.963525 4.000000
      vertex -15.000000 -1.240445 4.000000
      vertex -8.629731 -4.372109 4.000000
    endloop
  endfacet
  facet normal -0.000000 0.000000 1.000000
    outer loop
      vertex -8.926585 -3.036475 4.000000
      vertex -15.000000 -1.240445 4.000000
      vertex -8.926585 -3.963525 4.000000
    endloop
  endfacet
  facet normal -0.000000 -0.000000 1.000000
    outer loop
      vertex -13.963525 -1.426585 4.000000
      vertex -15.000000 -1.240445 4.000000
      vertex -8.926585 -3.036475 4.000000
    endloop
  endfacet
  facet normal 0.000000 0.000000 1.000000
    outer loop
      vertex -13.963525 -1.426585 4.000000
      vertex -14.372109 -1.129731 4.000000
      vertex -15.000000 -1.240445 4.000000
    endloop
  endfacet
  facet normal 0.000000 0.000000 1.000000
    outer loop
      vertex 6.259555 -5.000000 4.000000
      vertex -7.500000 -2.000000 4.000000
      vertex -6.618322 -2.286475 4.000000
    endloop
  endfacet
  facet normal 0.000000 0.000000 1.000000
    outer loop
      vertex 6.259555 -5.000000 4.000000
      vertex -6.618322 -2.286475 4.000000
      vertex -6.073415 -3.036475 4.000000
    endloop
  endfacet
  facet normal 0.000000 0.000000 1.000000
    outer loop
      vertex 6.259555 -5.000000 4.000000
      vertex -6.073415 -3.036475 4.000000
      vertex -6.073415 -3.963525 4.000000
    endloop
  endfacet
  facet normal 0.000000 0.000000 1.000000
    outer loop
      vertex -6.259555 -5.000000 4.000000
      vertex -6.073415 -3.963525 4.000000
      vertex -6.370269 -4.372109 4.000000
    endloop
  endfacet
  facet normal -0.000000 0.000000 1.000000
    outer loop
      vertex 6.259555 -5.000000 4.000000
      vertex -6.073415 -3.963525 4.000000
      vertex -6.259555 -5.000000 4.000000
    endloop
  endfacet
  facet normal -0.000000 0.000000 1.000000
    outer loop
      vertex 6.370269 -4.372109 4.000000
      vertex -7.500000 -2.000000 4.000000
      vertex 6.259555 -5.000000 4.000000
    endloop
  endfacet
  facet normal -0.000000 -0.000000 1.000000
    outer loop
      vertex 6.073415 -3.963525 4.000000
      vertex -7.500000 -2.000000 4.000000
      vertex 6.370269 -4.372109 4.000000
    endloop
  endfacet
  facet normal -0.000000 0.000000 1.000000
    outer loop
      vertex 6.073415 -3.036475 4.000000
      vertex -7.500000 -2.000000 4.000000
      vertex 6.073415 -3.963525 4.000000
    endloop
  endfacet
  facet normal 0.000000 0.000000 1.000000
    outer loop
      vertex -13.036475 -1.426585 4.000000
      vertex -8.381678 -2.286475 4.000000
      vertex -7.500000 -2.000000 4.000000
    endloop
  endfacet
  facet normal -0.000000 -0.000000 1.000000
    outer loop
      vertex -13.036475 -1.426585 4.000000
      vertex -13.963525 -1.426585 4.000000
      vertex -8.381678 -2.286475 4.000000
    endloop
  endfacet
  facet normal 0.000000 0.000000 1.000000
    outer loop
      vertex -5.481273 2.559580 4.000000
      vertex -12.286475 0.881678 4.000000
      vertex -12.000000 -0.000000 4.000000
    endloop
  endfacet
  facet normal 0.000000 0.000000 1.000000
    outer loop
      vertex 14.427051 -3.763356 4.000000
      vertex 7.500000 -2.000000 4.000000
      vertex 8.381678 -2.286475 4.000000
    endloop
  endfacet
  facet normal 0.000000 0.000000 1.000000
    outer loop
      vertex 12.000000 -5.000000 4.000000
      vertex 8.381678 -2.286475 4.000000
      vertex 8.926585 -3.036475 4.000000
    endloop
  endfacet
  facet normal 0.000000 0.000000 1.000000
    outer loop
      vertex 12.000000 -5.000000 4.000000
      vertex 8.926585 -3.036475 4.000000
      vertex 8.926585 -3.963525 4.000000
    endloop
  endfacet
  facet normal 0.000000 0.000000 1.000000
    outer loop
      vertex 8.740445 -5.000000 4.000000
      vertex 8.926585 -3.963525 4.000000
      vertex 8.629731 -4.372109 4.000000
    endloop
  endfacet
  facet normal -0.000000 0.000000 1.000000
    outer loop
      vertex 12.000000 -5.000000 4.000000
      vertex 8.926585 -3.963525 4.000000
      vertex 8.740445 -5.000000 4.000000
    endloop
  endfacet
  facet normal -0.000000 0.000000 1.000000
    outer loop
      vertex 12.000000 -4.853170 4.000000
      vertex 8.381678 -2.286475 4.000000
      vertex 12.000000 -5.000000 4.000000
    endloop
  endfacet
  facet normal -0.000000 0.000000 1.000000
    outer loop
      vertex 12.927051 -4.853170 4.000000
      vertex 8.381678 -2.286475 4.000000
      vertex 12.000000 -4.853170 4.000000
    endloop
  endfacet
  facet normal -0.000000 0.000000 1.000000
    outer loop
      vertex 14.427051 -3.763356 4.000000
      vertex 8.381678 -2.286475 4.000000
      vertex 12.927051 -4.853170 4.000000
    endloop
  endfacet
  facet normal 0.000000 0.000000 1.000000
    outer loop
      vertex 15.000000 -2.000000 4.000000
      vertex 7.500000 -2.000000 4.000000
      vertex 14.427051 -3.763356 4.000000
    endloop
  endfacet
  facet normal -0.000000 0.000000 1.000000
    outer loop
      vertex -5.481273 2.559580 4.000000
      vertex -5.868886 3.752530 4.000000
      vertex -12.286475 0.881678 4.000000
    endloop
  endfacet
  facet normal 0.000000 0.000000 1.000000
    outer loop
      vertex -12.000000 4.853170 4.000000
      vertex -12.927051 4.853170 4.000000
      vertex -13.963525 1.426585 4.000000
    endloop
  endfacet
  facet normal 0.000000 0.000000 1.000000
    outer loop
      vertex 15.000000 -1.240445 4.000000
      vertex 13.963525 -1.426585 4.000000
      vertex 15.000000 -2.000000 4.000000
    endloop
  endfacet
  facet normal 0.000000 -0.000000 1.000000
    outer loop
      vertex 13.963525 -1.426585 4.000000
      vertex 13.036475 -1.426585 4.000000
      vertex 15.000000 -2.000000 4.000000
    endloop
  endfacet
  facet normal 0.000000 -0.000000 1.000000
    outer loop
      vertex -9.135455 9.067366 4.000000
      vertex -9.781476 7.079117 4.000000
      vertex -6.691306 12.431448 4.000000
    endloop
  endfacet
  facet normal 0.000000 0.000000 1.000000
    outer loop
      vertex 15.000000 2.000000 4.000000
      vertex 13.036475 1.426585 4.000000
      vertex 13.963525 1.426585 4.000000
    endloop
  endfacet
  facet normal -0.000000 0.000000 1.000000
    outer loop
      vertex 15.000000 1.240445 4.000000
      vertex 13.963525 1.426585 4.000000
      vertex 14.372109 1.129731 4.000000
    endloop
  endfacet
  facet normal 0.000000 0.000000 1.000000
    outer loop
      vertex 15.000000 2.000000 4.000000
      vertex 13.963525 1.426585 4.000000
      vertex 15.000000 1.240445 4.000000
    endloop
  endfacet
  facet normal -0.000000 0.000000 1.000000
    outer loop
      vertex -3.000000 -0.196152 4.000000
      vertex -4.014784 0.541131 4.000000
      vertex -12.286475 -0.881678 4.000000
    endloop
  endfacet
  facet normal 0.000000 0.000000 1.000000
    outer loop
      vertex -0.627171 -0.967131 4.000000
      vertex -1.854102 -0.706339 4.000000
      vertex -12.286475 -0.881678 4.000000
    endloop
  endfacet
  facet normal -0.000000 0.000000 1.000000
    outer loop
      vertex -1.854102 -0.706339 4.000000
      vertex -3.000000 -0.196152 4.000000
      vertex -12.286475 -0.881678 4.000000
    endloop
  endfacet
  facet normal 0.000000 0.000000 1.000000
    outer loop
      vertex -12.286475 -0.881678 4.000000
      vertex 13.036475 -1.426585 4.000000
      vertex -0.627171 -0.967131 4.000000
    endloop
  endfacet
  facet normal -0.000000 0.000000 1.000000
    outer loop
      vertex -5.868886 6.247470 4.000000
      vertex -5.481273 7.440420 4.000000
      vertex -12.286475 0.881678 4.000000
    endloop
  endfacet
  facet normal 0.000000 0.000000 1.000000
    outer loop
      vertex 4.014784 9.458869 4.000000
      vertex 4.854102 8.526712 4.000000
      vertex 8.090170 10.877853 4.000000
    endloop
  endfacet
  facet normal 0.000000 0.000000 1.000000
    outer loop
      vertex -10.000000 5.000000 4.000000
      vertex -12.000000 5.000000 4.000000
      vertex -12.000000 4.853170 4.000000
    endloop
  endfacet
  facet normal 0.000000 0.000000 1.000000
    outer loop
      vertex -13.036475 1.426585 4.000000
      vertex -4.014784 9.458869 4.000000
      vertex 1.045285 14.945219 4.000000
    endloop
  endfacet
  facet normal 0.000000 0.000000 1.000000
    outer loop
      vertex -13.036475 1.426585 4.000000
      vertex -4.854102 8.526712 4.000000
      vertex -4.014784 9.458869 4.000000
    endloop
  endfacet
  facet normal 0.000000 0.000000 1.000000
    outer loop
      vertex -13.036475 1.426585 4.000000
      vertex -1.045285 14.945219 4.000000
      vertex -10.000000 5.000000 4.000000
    endloop
  endfacet
  facet normal 0.000000 -0.000000 1.000000
    outer loop
      vertex -6.691306 12.431448 4.000000
      vertex -9.781476 7.079117 4.000000
      vertex -5.000000 13.660254 4.000000
    endloop
  endfacet
  facet normal 0.000000 -0.000000 1.000000
    outer loop
      vertex -3.090170 14.510565 4.000000
      vertex -10.000000 5.000000 4.000000
      vertex -1.045285 14.945219 4.000000
    endloop
  endfacet
  facet normal 0.000000 0.000000 1.000000
    outer loop
      vertex -15.000000 1.240445 4.000000
      vertex -14.372109 1.129731 4.000000
      vertex -14.427051 3.763356 4.000000
    endloop
  endfacet
  facet normal 0.000000 0.000000 1.000000
    outer loop
      vertex -13.036475 1.426585 4.000000
      vertex 1.045285 14.945219 4.000000
      vertex -1.045285 14.945219 4.000000
    endloop
  endfacet
  facet normal 0.000000 0.000000 1.000000
    outer loop
      vertex -13.963525 1.426585 4.000000
      vertex -13.036475 1.426585 4.000000
      vertex -12.000000 4.853170 4.000000
    endloop
  endfacet
  facet normal 0.000000 0.000000 1.000000
    outer loop
      vertex -14.372109 1.129731 4.000000
      vertex -13.963525 1.426585 4.000000
      vertex -12.927051 4.853170 4.000000
    endloop
  endfacet
  facet normal 0.000000 -0.000000 1.000000
    outer loop
      vertex -15.000000 2.000000 4.000000
      vertex -15.000000 1.240445 4.000000
      vertex -14.427051 3.763356 4.000000
    endloop
  endfacet
  facet normal 0.000000 0.000000 1.000000
    outer loop
      vertex -14.427051 3.763356 4.000000
      vertex -14.372109 1.129731 4.000000
      vertex -12.927051 4.853170 4.000000
    endloop
  endfacet
  facet normal 0.000000 0.000000 1.000000
    outer loop
      vertex -10.000000 5.000000 4.000000
      vertex -12.000000 4.853170 4.000000
      vertex -13.036475 1.426585 4.000000
    endloop
  endfacet
  facet normal 0.000000 -0.000000 1.000000
    outer loop
      vertex 6.000000 5.000000 4.000000
      vertex 5.868886 3.752530 4.000000
      vertex 10.000000 5.000000 4.000000
    endloop
  endfacet
  facet normal 0.000000 0.000000 1.000000
    outer loop
      vertex 5.868886 6.247470 4.000000
      vertex 6.000000 5.000000 4.000000
      vertex 9.781476 7.079117 4.000000
    endloop
  endfacet
  facet normal 0.000000 -0.000000 1.000000
    outer loop
      vertex 4.014784 0.541131 4.000000
      vertex 3.000000 -0.196152 4.000000
      vertex 12.286475 0.881678 4.000000
    endloop
  endfacet
  facet normal 0.000000 0.000000 1.000000
    outer loop
      vertex 6.073415 -3.036475 4.000000
      vertex -13.036475 -1.426585 4.000000
      vertex -7.500000 -2.000000 4.000000
    endloop
  endfacet
  facet normal -0.000000 0.000000 1.000000
    outer loop
      vertex -8.381678 -2.286475 4.000000
      vertex -13.963525 -1.426585 4.000000
      vertex -8.926585 -3.036475 4.000000
    endloop
  endfacet
  facet normal 0.000000 0.000000 1.000000
    outer loop
      vertex 4.854102 8.526712 4.000000
      vertex 5.481273 7.440420 4.000000
      vertex 9.135455 9.067366 4.000000
    endloop
  endfacet
  facet normal 0.000000 0.000000 1.000000
    outer loop
      vertex 3.000000 10.196152 4.000000
      vertex 4.014784 9.458869 4.000000
      vertex 6.691306 12.431448 4.000000
    endloop
  endfacet
  facet normal 0.000000 -0.000000 1.000000
    outer loop
      vertex 5.481273 2.559580 4.000000
      vertex 4.854102 1.473288 4.000000
      vertex 14.427051 3.763356 4.000000
    endloop
  endfacet
  facet normal 0.000000 0.000000 1.000000
    outer loop
      vertex 5.868886 3.752530 4.000000
      vertex 12.000000 4.853170 4.000000
      vertex 12.000000 5.000000 4.000000
    endloop
  endfacet
  facet normal 0.000000 0.000000 1.000000
    outer loop
      vertex 0.627171 10.967131 4.000000
      vertex 1.854102 10.706339 4.000000
      vertex 5.000000 13.660254 4.000000
    endloop
  endfacet
  facet normal 0.000000 0.000000 1.000000
    outer loop
      vertex 1.854102 10.706339 4.000000
      vertex 3.000000 10.196152 4.000000
      vertex 6.691306 12.431448 4.000000
    endloop
  endfacet
  facet normal -0.000000 0.000000 1.000000
    outer loop
      vertex -6.000000 5.000000 4.000000
      vertex -5.868886 6.247470 4.000000
      vertex -12.286475 0.881678 4.000000
    endloop
  endfacet
  facet normal 0.000000 0.000000 1.000000
    outer loop
      vertex -1.854102 10.706339 4.000000
      vertex -0.627171 10.967131 4.000000
      vertex 3.090170 14.510565 4.000000
    endloop
  endfacet
  facet normal 0.000000 0.000000 1.000000
    outer loop
      vertex -4.014784 9.458869 4.000000
      vertex -3.000000 10.196152 4.000000
      vertex 1.045285 14.945219 4.000000
    endloop
  endfacet
  facet normal 0.000000 -0.000000 1.000000
    outer loop
      vertex 1.045285 14.945219 4.000000
      vertex -3.000000 10.196152 4.000000
      vertex 3.090170 14.510565 4.000000
    endloop
  endfacet
  facet normal 0.000000 0.000000 1.000000
    outer loop
      vertex -3.000000 10.196152 4.000000
      vertex -1.854102 10.706339 4.000000
      vertex 3.090170 14.510565 4.000000
    endloop
  endfacet
  facet normal 0.000000 -0.000000 1.000000
    outer loop
      vertex 3.090170 14.510565 4.000000
      vertex -0.627171 10.967131 4.000000
      vertex 5.000000 13.660254 4.000000
    endloop
  endfacet
  facet normal 0.000000 0.000000 1.000000
    outer loop
      vertex -0.627171 10.967131 4.000000
      vertex 0.627171 10.967131 4.000000
      vertex 5.000000 13.660254 4.000000
    endloop
  endfacet
  facet normal 0.000000 -0.000000 1.000000
    outer loop
      vertex 5.000000 13.660254 4.000000
      vertex 1.854102 10.706339 4.000000
      vertex 6.691306 12.431448 4.000000
    endloop
  endfacet
  facet normal 0.000000 -0.000000 1.000000
    outer loop
      vertex 6.691306 12.431448 4.000000
      vertex 4.014784 9.458869 4.000000
      vertex 8.090170 10.877853 4.000000
    endloop
  endfacet
  facet normal 0.000000 -0.000000 1.000000
    outer loop
      vertex 8.090170 10.877853 4.000000
      vertex 4.854102 8.526712 4.000000
      vertex 9.135455 9.067366 4.000000
    endloop
  endfacet
  facet normal 0.000000 -0.000000 1.000000
    outer loop
      vertex 9.135455 9.067366 4.000000
      vertex 5.481273 7.440420 4.000000
      vertex 9.781476 7.079117 4.000000
    endloop
  endfacet
  facet normal 0.000000 0.000000 1.000000
    outer loop
      vertex 5.868886 3.752530 4.000000
      vertex 12.927051 4.853170 4.000000
      vertex 12.000000 4.853170 4.000000
    endloop
  endfacet
  facet normal 0.000000 0.000000 1.000000
    outer loop
      vertex 5.481273 7.440420 4.000000
      vertex 5.868886 6.247470 4.000000
      vertex 9.781476 7.079117 4.000000
    endloop
  endfacet
  facet normal 0.000000 -0.000000 1.000000
    outer loop
      vertex 9.781476 7.079117 4.000000
      vertex 6.000000 5.000000 4.000000
      vertex 10.000000 5.000000 4.000000
    endloop
  endfacet
  facet normal 0.000000 0.000000 1.000000
    outer loop
      vertex -0.627171 -0.967131 4.000000
      vertex 13.036475 -1.426585 4.000000
      vertex 0.627171 -0.967131 4.000000
    endloop
  endfacet
  facet normal 0.000000 -0.000000 1.000000
    outer loop
      vertex 10.000000 5.000000 4.000000
      vertex 5.868886 3.752530 4.000000
      vertex 12.000000 5.000000 4.000000
    endloop
  endfacet
  facet normal 0.000000 -0.000000 1.000000
    outer loop
      vertex 12.927051 4.853170 4.000000
      vertex 5.481273 2.559580 4.000000
      vertex 14.427051 3.763356 4.000000
    endloop
  endfacet
  facet normal -0.000000 0.000000 1.000000
    outer loop
      vertex -4.014784 0.541131 4.000000
      vertex -4.854102 1.473288 4.000000
      vertex -12.000000 -0.000000 4.000000
    endloop
  endfacet
  facet normal 0.000000 -0.000000 1.000000
    outer loop
      vertex 14.427051 3.763356 4.000000
      vertex 4.854102 1.473288 4.000000
      vertex 15.000000 2.000000 4.000000
    endloop
  endfacet
  facet normal 0.000000 0.000000 1.000000
    outer loop
      vertex 13.036475 1.426585 4.000000
      vertex 4.014784 0.541131 4.000000
      vertex 12.286475 0.881678 4.000000
    endloop
  endfacet
  facet normal 0.000000 0.000000 1.000000
    outer loop
      vertex 12.286475 0.881678 4.000000
      vertex 3.000000 -0.196152 4.000000
      vertex 12.000000 0.000000 4.000000
    endloop
  endfacet
  facet normal 0.000000 -0.000000 1.000000
    outer loop
      vertex 12.000000 0.000000 4.000000
      vertex 1.854102 -0.706339 4.000000
      vertex 12.286475 -0.881678 4.000000
    endloop
  endfacet
  facet normal 0.000000 -0.000000 1.000000
    outer loop
      vertex 1.854102 -0.706339 4.000000
      vertex 0.627171 -0.967131 4.000000
      vertex 12.286475 -0.881678 4.000000
    endloop
  endfacet
  facet normal 0.000000 -0.000000 1.000000
    outer loop
      vertex 3.000000 -0.196152 4.000000
      vertex 1.854102 -0.706339 4.000000
      vertex 12.000000 0.000000 4.000000
    endloop
  endfacet
  facet normal 0.000000 0.000000 1.000000
    outer loop
      vertex 4.854102 1.473288 4.000000
      vertex 13.036475 1.426585 4.000000
      vertex 15.000000 2.000000 4.000000
    endloop
  endfacet
  facet normal 0.000000 0.000000 1.000000
    outer loop
      vertex 0.627171 -0.967131 4.000000
      vertex 13.036475 -1.426585 4.000000
      vertex 12.286475 -0.881678 4.000000
    endloop
  endfacet
  facet normal 0.000000 -0.000000 1.000000
    outer loop
      vertex 5.868886 3.752530 4.000000
      vertex 5.481273 2.559580 4.000000
      vertex 12.927051 4.853170 4.000000
    endloop
  endfacet
  facet normal 0.000000 0.000000 1.000000
    outer loop
      vertex -9.135455 9.067366 4.000000
      vertex -6.691306 12.431448 4.000000
      vertex -8.090170 10.877853 4.000000
    endloop
  endfacet
  facet normal 0.000000 -0.000000 1.000000
    outer loop
      vertex 14.372109 -1.129731 4.000000
      vertex 13.963525 -1.426585 4.000000
      vertex 15.000000 -1.240445 4.000000
    endloop
  endfacet
  facet normal 0.000000 0.000000 1.000000
    outer loop
      vertex -9.781476 7.079117 4.000000
      vertex -3.090170 14.510565 4.000000
      vertex -5.000000 13.660254 4.000000
    endloop
  endfacet
  facet normal 0.000000 -0.000000 1.000000
    outer loop
      vertex -9.781476 7.079117 4.000000
      vertex -10.000000 5.000000 4.000000
      vertex -3.090170 14.510565 4.000000
    endloop
  endfacet
  facet normal 0.000000 0.000000 1.000000
    outer loop
      vertex -13.036475 1.426585 4.000000
      vertex -5.481273 7.440420 4.000000
      vertex -4.854102 8.526712 4.000000
    endloop
  endfacet
  facet normal 0.000000 0.000000 1.000000
    outer loop
      vertex -13.036475 1.426585 4.000000
      vertex -12.286475 0.881678 4.000000
      vertex -5.481273 7.440420 4.000000
    endloop
  endfacet
  facet normal -0.000000 0.000000 1.000000
    outer loop
      vertex -5.868886 3.752530 4.000000
      vertex -6.000000 5.000000 4.000000
      vertex -12.286475 0.881678 4.000000
    endloop
  endfacet
  facet normal -0.000000 0.000000 1.000000
    outer loop
      vertex -4.854102 1.473288 4.000000
      vertex -5.481273 2.559580 4.000000
      vertex -12.000000 -0.000000 4.000000
    endloop
  endfacet
  facet normal 0.000000 0.000000 1.000000
    outer loop
      vertex -4.014784 0.541131 4.000000
      vertex -12.000000 -0.000000 4.000000
      vertex -12.286475 -0.881678 4.000000
    endloop
  endfacet
  facet normal 0.000000 -0.000000 1.000000
    outer loop
      vertex 4.854102 1.473288 4.000000
      vertex 4.014784 0.541131 4.000000
      vertex 13.036475 1.426585 4.000000
    endloop
  endfacet
  facet normal 0.000000 0.000000 1.000000
    outer loop
      vertex -12.286475 -0.881678 4.000000
      vertex 15.000000 -2.000000 4.000000
      vertex 13.036475 -1.426585 4.000000
    endloop
  endfacet
  facet normal 0.000000 0.000000 1.000000
    outer loop
      vertex -12.286475 -0.881678 4.000000
      vertex 7.500000 -2.000000 4.000000
      vertex 15.000000 -2.000000 4.000000
    endloop
  endfacet
  facet normal 0.000000 0.000000 1.000000
    outer loop
      vertex -12.286475 -0.881678 4.000000
      vertex 6.618322 -2.286475 4.000000
      vertex 7.500000 -2.000000 4.000000
    endloop
  endfacet
  facet normal 0.000000 0.000000 1.000000
    outer loop
      vertex -12.286475 -0.881678 4.000000
      vertex 6.073415 -3.036475 4.000000
      vertex 6.618322 -2.286475 4.000000
    endloop
  endfacet
  facet normal 0.000000 -0.000000 1.000000
    outer loop
      vertex -12.286475 -0.881678 4.000000
      vertex -13.036475 -1.426585 4.000000
      vertex 6.073415 -3.036475 4.000000
    endloop
  endfacet
  facet normal -0.587785 -0.809017 0.000000
    outer loop
      vertex -14.427051 -3.763356 4.000000
      vertex -14.427051 -3.763356 0.000000
      vertex -12.927051 -4.853170 0.000000
    endloop
  endfacet
  facet normal -0.587785 -0.809017 0.000000
    outer loop
      vertex -12.927051 -4.853170 4.000000
      vertex -14.427051 -3.763356 4.000000
      vertex -12.927051 -4.853170 0.000000
    endloop
  endfacet
  facet normal 0.000000 -1.000000 0.000000
    outer loop
      vertex -12.927051 -4.853170 4.000000
      vertex -12.927051 -4.853170 0.000000
      vertex -12.000000 -4.853170 0.000000
    endloop
  endfacet
  facet normal 0.000000 -1.000000 0.000000
    outer loop
      vertex -12.000000 -4.853170 4.000000
      vertex -12.927051 -4.853170 4.000000
      vertex -12.000000 -4.853170 0.000000
    endloop
  endfacet
  facet normal -1.000000 -0.000000 -0.000000
    outer loop
      vertex -12.000000 -5.000000 0.000000
      vertex -12.000000 -5.000000 4.000000
      vertex -12.000000 -4.853170 0.000000
    endloop
  endfacet
  facet normal -1.000000 0.000000 0.000000
    outer loop
      vertex -12.000000 -4.853170 0.000000
      vertex -12.000000 -5.000000 4.000000
      vertex -12.000000 -4.853170 4.000000
    endloop
  endfacet
  facet normal 0.000000 -1.000000 0.000000
    outer loop
      vertex -12.000000 -5.000000 4.000000
      vertex -12.000000 -5.000000 0.000000
      vertex -8.740445 -5.000000 0.000000
    endloop
  endfacet
  facet normal 0.000000 -1.000000 0.000000
    outer loop
      vertex -8.740445 -5.000000 4.000000
      vertex -12.000000 -5.000000 4.000000
      vertex -8.740445 -5.000000 0.000000
    endloop
  endfacet
  facet normal 0.984808 -0.173648 0.000000
    outer loop
      vertex -8.629731 -4.372109 0.000000
      vertex -8.629731 -4.372109 4.000000
      vertex -8.740445 -5.000000 4.000000
    endloop
  endfacet
  facet normal 0.984808 -0.173648 0.000000
    outer loop
      vertex -8.740445 -5.000000 0.000000
      vertex -8.629731 -4.372109 0.000000
      vertex -8.740445 -5.000000 4.000000
    endloop
  endfacet
  facet normal 0.809017 0.587785 0.000000
    outer loop
      vertex -8.926585 -3.963525 4.000000
      vertex -8.629731 -4.372109 4.000000
      vertex -8.629731 -4.372109 0.000000
    endloop
  endfacet
  facet normal 0.809017 0.587785 0.000000
    outer loop
      vertex -8.926585 -3.963525 0.000000
      vertex -8.926585 -3.963525 4.000000
      vertex -8.629731 -4.372109 0.000000
    endloop
  endfacet
  facet normal 1.000000 0.000000 0.000000
    outer loop
      vertex -8.926585 -3.036475 0.000000
      vertex -8.926585 -3.036475 4.000000
      vertex -8.926585 -3.963525 4.000000
    endloop
  endfacet
  facet normal 1.000000 0.000000 0.000000
    outer loop
      vertex -8.926585 -3.963525 0.000000
      vertex -8.926585 -3.036475 0.000000
      vertex -8.926585 -3.963525 4.000000
    endloop
  endfacet
  facet normal 0.809017 -0.587785 0.000000
    outer loop
      vertex -8.381678 -2.286475 0.000000
      vertex -8.381678 -2.286475 4.000000
      vertex -8.926585 -3.036475 4.000000
    endloop
  endfacet
  facet normal 0.809017 -0.587785 0.000000
    outer loop
      vertex -8.926585 -3.036475 0.000000
      vertex -8.381678 -2.286475 0.000000
      vertex -8.926585 -3.036475 4.000000
    endloop
  endfacet
  facet normal 0.309017 -0.951056 0.000000
    outer loop
      vertex -7.500000 -2.000000 0.000000
      vertex -7.500000 -2.000000 4.000000
      vertex -8.381678 -2.286475 4.000000
    endloop
  endfacet
  facet normal 0.309017 -0.951056 0.000000
    outer loop
      vertex -8.381678 -2.286475 0.000000
      vertex -7.500000 -2.000000 0.000000
      vertex -8.381678 -2.286475 4.000000
    endloop
  endfacet
  facet normal -0.309017 -0.951056 -0.000000
    outer loop
      vertex -6.618322 -2.286475 0.000000
      vertex -6.618322 -2.286475 4.000000
      vertex -7.500000 -2.000000 4.000000
    endloop
  endfacet
  facet normal -0.309017 -0.951056 -0.000000
    outer loop
      vertex -7.500000 -2.000000 0.000000
      vertex -6.618322 -2.286475 0.000000
      vertex -7.500000 -2.000000 4.000000
    endloop
  endfacet
  facet normal -0.809017 -0.587785 0.000000
    outer loop
      vertex -6.073415 -3.036475 4.000000
      vertex -6.618322 -2.286475 4.000000
      vertex -6.073415 -3.036475 0.000000
    endloop
  endfacet
  facet normal -0.809017 -0.587785 0.000000
    outer loop
      vertex -6.073415 -3.036475 0.000000
      vertex -6.618322 -2.286475 4.000000
      vertex -6.618322 -2.286475 0.000000
    endloop
  endfacet
  facet normal -1.000000 0.000000 0.000000
    outer loop
      vertex -6.073415 -3.036475 4.000000
      vertex -6.073415 -3.036475 0.000000
      vertex -6.073415 -3.963525 4.000000
    endloop
  endfacet
  facet normal -1.000000 0.000000 0.000000
    outer loop
      vertex -6.073415 -3.963525 4.000000
      vertex -6.073415 -3.036475 0.000000
      vertex -6.073415 -3.963525 0.000000
    endloop
  endfacet
  facet normal -0.809017 0.587785 0.000000
    outer loop
      vertex -6.073415 -3.963525 4.000000
      vertex -6.073415 -3.963525 0.000000
      vertex -6.370269 -4.372109 4.000000
    endloop
  endfacet
  facet normal -0.809017 0.587785 0.000000
    outer loop
      vertex -6.370269 -4.372109 4.000000
      vertex -6.073415 -3.963525 0.000000
      vertex -6.370269 -4.372109 0.000000
    endloop
  endfacet
  facet normal -0.984808 -0.173648 0.000000
    outer loop
      vertex -6.259555 -5.000000 4.000000
      vertex -6.370269 -4.372109 4.000000
      vertex -6.259555 -5.000000 0.000000
    endloop
  endfacet
  facet normal -0.984808 -0.173648 0.000000
    outer loop
      vertex -6.259555 -5.000000 0.000000
      vertex -6.370269 -4.372109 4.000000
      vertex -6.370269 -4.372109 0.000000
    endloop
  endfacet
  facet normal 0.000000 -1.000000 0.000000
    outer loop
      vertex -6.259555 -5.000000 4.000000
      vertex -6.259555 -5.000000 0.000000
      vertex 6.259555 -5.000000 0.000000
    endloop
  endfacet
  facet normal 0.000000 -1.000000 0.000000
    outer loop
      vertex 6.259555 -5.000000 4.000000
      vertex -6.259555 -5.000000 4.000000
      vertex 6.259555 -5.000000 0.000000
    endloop
  endfacet
  facet normal 0.984808 -0.173648 0.000000
    outer loop
      vertex 6.370269 -4.372109 0.000000
      vertex 6.370269 -4.372109 4.000000
      vertex 6.259555 -5.000000 4.000000
    endloop
  endfacet
  facet normal 0.984808 -0.173648 0.000000
    outer loop
      vertex 6.259555 -5.000000 0.000000
      vertex 6.370269 -4.372109 0.000000
      vertex 6.259555 -5.000000 4.000000
    endloop
  endfacet
  facet normal 0.809017 0.587785 0.000000
    outer loop
      vertex 6.073415 -3.963525 4.000000
      vertex 6.370269 -4.372109 4.000000
      vertex 6.370269 -4.372109 0.000000
    endloop
  endfacet
  facet normal 0.809017 0.587785 0.000000
    outer loop
      vertex 6.073415 -3.963525 0.000000
      vertex 6.073415 -3.963525 4.000000
      vertex 6.370269 -4.372109 0.000000
    endloop
  endfacet
  facet normal 1.000000 0.000000 0.000000
    outer loop
      vertex 6.073415 -3.036475 0.000000
      vertex 6.073415 -3.036475 4.000000
      vertex 6.073415 -3.963525 4.000000
    endloop
  endfacet
  facet normal 1.000000 0.000000 0.000000
    outer loop
      vertex 6.073415 -3.963525 0.000000
      vertex 6.073415 -3.036475 0.000000
      vertex 6.073415 -3.963525 4.000000
    endloop
  endfacet
  facet normal 0.809017 -0.587785 0.000000
    outer loop
      vertex 6.618322 -2.286475 0.000000
      vertex 6.618322 -2.286475 4.000000
      vertex 6.073415 -3.036475 4.000000
    endloop
  endfacet
  facet normal 0.809017 -0.587785 0.000000
    outer loop
      vertex 6.073415 -3.036475 0.000000
      vertex 6.618322 -2.286475 0.000000
      vertex 6.073415 -3.036475 4.000000
    endloop
  endfacet
  facet normal 0.309017 -0.951056 0.000000
    outer loop
      vertex 7.500000 -2.000000 0.000000
      vertex 7.500000 -2.000000 4.000000
      vertex 6.618322 -2.286475 4.000000
    endloop
  endfacet
  facet normal 0.309017 -0.951056 0.000000
    outer loop
      vertex 6.618322 -2.286475 0.000000
      vertex 7.500000 -2.000000 0.000000
      vertex 6.618322 -2.286475 4.000000
    endloop
  endfacet
  facet normal -0.309017 -0.951056 -0.000000
    outer loop
      vertex 8.381678 -2.286475 0.000000
      vertex 8.381678 -2.286475 4.000000
      vertex 7.500000 -2.000000 4.000000
    endloop
  endfacet
  facet normal -0.309017 -0.951056 -0.000000
    outer loop
      vertex 7.500000 -2.000000 0.000000
      vertex 8.381678 -2.286475 0.000000
      vertex 7.500000 -2.000000 4.000000
    endloop
  endfacet
  facet normal -0.809017 -0.587785 0.000000
    outer loop
      vertex 8.926585 -3.036475 4.000000
      vertex 8.381678 -2.286475 4.000000
      vertex 8.926585 -3.036475 0.000000
    endloop
  endfacet
  facet normal -0.809017 -0.587785 0.000000
    outer loop
      vertex 8.926585 -3.036475 0.000000
      vertex 8.381678 -2.286475 4.000000
      vertex 8.381678 -2.286475 0.000000
    endloop
  endfacet
  facet normal -1.000000 0.000000 0.000000
    outer loop
      vertex 8.926585 -3.036475 4.000000
      vertex 8.926585 -3.036475 0.000000
      vertex 8.926585 -3.963525 4.000000
    endloop
  endfacet
  facet normal -1.000000 0.000000 0.000000
    outer loop
      vertex 8.926585 -3.963525 4.000000
      vertex 8.926585 -3.036475 0.000000
      vertex 8.926585 -3.963525 0.000000
    endloop
  endfacet
  facet normal -0.809017 0.587785 0.000000
    outer loop
      vertex 8.926585 -3.963525 4.000000
      vertex 8.926585 -3.963525 0.000000
      vertex 8.629731 -4.372109 4.000000
    endloop
  endfacet
  facet normal -0.809017 0.587785 0.000000
    outer loop
      vertex 8.629731 -4.372109 4.000000
      vertex 8.926585 -3.963525 0.000000
      vertex 8.629731 -4.372109 0.000000
    endloop
  endfacet
  facet normal -0.984808 -0.173648 0.000000
    outer loop
      vertex 8.740445 -5.000000 4.000000
      vertex 8.629731 -4.372109 4.000000
      vertex 8.740445 -5.000000 0.000000
    endloop
  endfacet
  facet normal -0.984808 -0.173648 0.000000
    outer loop
      vertex 8.740445 -5.000000 0.000000
      vertex 8.629731 -4.372109 4.000000
      vertex 8.629731 -4.372109 0.000000
    endloop
  endfacet
  facet normal 0.000000 -1.000000 0.000000
    outer loop
      vertex 8.740445 -5.000000 4.000000
      vertex 8.740445 -5.000000 0.000000
      vertex 12.000000 -5.000000 0.000000
    endloop
  endfacet
  facet normal 0.000000 -1.000000 0.000000
    outer loop
      vertex 12.000000 -5.000000 4.000000
      vertex 8.740445 -5.000000 4.000000
      vertex 12.000000 -5.000000 0.000000
    endloop
  endfacet
  facet normal 1.000000 0.000000 -0.000000
    outer loop
      vertex 12.000000 -5.000000 4.000000
      vertex 12.000000 -5.000000 0.000000
      vertex 12.000000 -4.853170 0.000000
    endloop
  endfacet
  facet normal 1.000000 0.000000 0.000000
    outer loop
      vertex 12.000000 -4.853170 4.000000
      vertex 12.000000 -5.000000 4.000000
      vertex 12.000000 -4.853170 0.000000
    endloop
  endfacet
  facet normal 0.000000 -1.000000 0.000000
    outer loop
      vertex 12.000000 -4.853170 4.000000
      vertex 12.000000 -4.853170 0.000000
      vertex 12.927051 -4.853170 0.000000
    endloop
  endfacet
  facet normal 0.000000 -1.000000 0.000000
    outer loop
      vertex 12.927051 -4.853170 4.000000
      vertex 12.000000 -4.853170 4.000000
      vertex 12.927051 -4.853170 0.000000
    endloop
  endfacet
  facet normal 0.587785 -0.809017 0.000000
    outer loop
      vertex 12.927051 -4.853170 4.000000
      vertex 12.927051 -4.853170 0.000000
      vertex 14.427051 -3.763356 0.000000
    endloop
  endfacet
  facet normal 0.587785 -0.809017 0.000000
    outer loop
      vertex 14.427051 -3.763356 4.000000
      vertex 12.927051 -4.853170 4.000000
      vertex 14.427051 -3.763356 0.000000
    endloop
  endfacet
  facet normal 0.951057 -0.309017 0.000000
    outer loop
      vertex 14.427051 -3.763356 4.000000
      vertex 14.427051 -3.763356 0.000000
      vertex 15.000000 -2.000000 0.000000
    endloop
  endfacet
  facet normal 0.951057 -0.309017 0.000000
    outer loop
      vertex 15.000000 -2.000000 4.000000
      vertex 14.427051 -3.763356 4.000000
      vertex 15.000000 -2.000000 0.000000
    endloop
  endfacet
  facet normal 1.000000 0.000000 -0.000000
    outer loop
      vertex 15.000000 -2.000000 4.000000
      vertex 15.000000 -2.000000 0.000000
      vertex 15.000000 -1.240445 0.000000
    endloop
  endfacet
  facet normal 1.000000 0.000000 0.000000
    outer loop
      vertex 15.000000 -1.240445 4.000000
      vertex 15.000000 -2.000000 4.000000
      vertex 15.000000 -1.240445 0.000000
    endloop
  endfacet
  facet normal 0.173648 0.984808 -0.000000
    outer loop
      vertex 15.000000 -1.240445 4.000000
      vertex 15.000000 -1.240445 0.000000
      vertex 14.372109 -1.129731 4.000000
    endloop
  endfacet
  facet normal 0.173648 0.984808 -0.000000
    outer loop
      vertex 14.372109 -1.129731 4.000000
      vertex 15.000000 -1.240445 0.000000
      vertex 14.372109 -1.129731 0.000000
    endloop
  endfacet
  facet normal -0.587785 0.809017 0.000000
    outer loop
      vertex 14.372109 -1.129731 4.000000
      vertex 14.372109 -1.129731 0.000000
      vertex 13.963525 -1.426585 4.000000
    endloop
  endfacet
  facet normal -0.587785 0.809017 0.000000
    outer loop
      vertex 13.963525 -1.426585 4.000000
      vertex 14.372109 -1.129731 0.000000
      vertex 13.963525 -1.426585 0.000000
    endloop
  endfacet
  facet normal 0.000000 1.000000 0.000000
    outer loop
      vertex 13.963525 -1.426585 4.000000
      vertex 13.963525 -1.426585 0.000000
      vertex 13.036475 -1.426585 4.000000
    endloop
  endfacet
  facet normal 0.000000 1.000000 -0.000000
    outer loop
      vertex 13.036475 -1.426585 4.000000
      vertex 13.963525 -1.426585 0.000000
      vertex 13.036475 -1.426585 0.000000
    endloop
  endfacet
  facet normal 0.587785 0.809017 -0.000000
    outer loop
      vertex 13.036475 -1.426585 4.000000
      vertex 13.036475 -1.426585 0.000000
      vertex 12.286475 -0.881678 4.000000
    endloop
  endfacet
  facet normal 0.587785 0.809017 -0.000000
    outer loop
      vertex 12.286475 -0.881678 4.000000
      vertex 13.036475 -1.426585 0.000000
      vertex 12.286475 -0.881678 0.000000
    endloop
  endfacet
  facet normal 0.951056 0.309017 0.000000
    outer loop
      vertex 12.000000 0.000000 4.000000
      vertex 12.286475 -0.881678 4.000000
      vertex 12.286475 -0.881678 0.000000
    endloop
  endfacet
  facet normal 0.951056 0.309017 0.000000
    outer loop
      vertex 12.000000 0.000000 0.000000
      vertex 12.000000 0.000000 4.000000
      vertex 12.286475 -0.881678 0.000000
    endloop
  endfacet
  facet normal 0.951056 -0.309017 0.000000
    outer loop
      vertex 12.286475 0.881678 0.000000
      vertex 12.286475 0.881678 4.000000
      vertex 12.000000 0.000000 4.000000
    endloop
  endfacet
  facet normal 0.951056 -0.309017 0.000000
    outer loop
      vertex 12.000000 0.000000 0.000000
      vertex 12.286475 0.881678 0.000000
      vertex 12.000000 0.000000 4.000000
    endloop
  endfacet
  facet normal 0.587785 -0.809017 0.000000
    outer loop
      vertex 13.036475 1.426585 0.000000
      vertex 13.036475 1.426585 4.000000
      vertex 12.286475 0.881678 4.000000
    endloop
  endfacet
  facet normal 0.587785 -0.809017 0.000000
    outer loop
      vertex 12.286475 0.881678 0.000000
      vertex 13.036475 1.426585 0.000000
      vertex 12.286475 0.881678 4.000000
    endloop
  endfacet
  facet normal 0.000000 -1.000000 0.000000
    outer loop
      vertex 13.963525 1.426585 0.000000
      vertex 13.963525 1.426585 4.000000
      vertex 13.036475 1.426585 4.000000
    endloop
  endfacet
  facet normal -0.000000 -1.000000 -0.000000
    outer loop
      vertex 13.036475 1.426585 0.000000
      vertex 13.963525 1.426585 0.000000
      vertex 13.036475 1.426585 4.000000
    endloop
  endfacet
  facet normal -0.587785 -0.809017 -0.000000
    outer loop
      vertex 14.372109 1.129731 0.000000
      vertex 14.372109 1.129731 4.000000
      vertex 13.963525 1.426585 4.000000
    endloop
  endfacet
  facet normal -0.587785 -0.809017 -0.000000
    outer loop
      vertex 13.963525 1.426585 0.000000
      vertex 14.372109 1.129731 0.000000
      vertex 13.963525 1.426585 4.000000
    endloop
  endfacet
  facet normal 0.173648 -0.984808 0.000000
    outer loop
      vertex 15.000000 1.240445 0.000000
      vertex 15.000000 1.240445 4.000000
      vertex 14.372109 1.129731 4.000000
    endloop
  endfacet
  facet normal 0.173648 -0.984808 0.000000
    outer loop
      vertex 14.372109 1.129731 0.000000
      vertex 15.000000 1.240445 0.000000
      vertex 14.372109 1.129731 4.000000
    endloop
  endfacet
  facet normal 1.000000 0.000000 -0.000000
    outer loop
      vertex 15.000000 1.240445 4.000000
      vertex 15.000000 1.240445 0.000000
      vertex 15.000000 2.000000 0.000000
    endloop
  endfacet
  facet normal 1.000000 0.000000 0.000000
    outer loop
      vertex 15.000000 2.000000 4.000000
      vertex 15.000000 1.240445 4.000000
      vertex 15.000000 2.000000 0.000000
    endloop
  endfacet
  facet normal 0.951057 0.309017 0.000000
    outer loop
      vertex 15.000000 2.000000 0.000000
      vertex 14.427051 3.763356 0.000000
      vertex 14.427051 3.763356 4.000000
    endloop
  endfacet
  facet normal 0.951057 0.309017 -0.000000
    outer loop
      vertex 15.000000 2.000000 4.000000
      vertex 15.000000 2.000000 0.000000
      vertex 14.427051 3.763356 4.000000
    endloop
  endfacet
  facet normal 0.587785 0.809017 0.000000
    outer loop
      vertex 12.927051 4.853170 0.000000
      vertex 12.927051 4.853170 4.000000
      vertex 14.427051 3.763356 0.000000
    endloop
  endfacet
  facet normal 0.587785 0.809017 0.000000
    outer loop
      vertex 14.427051 3.763356 0.000000
      vertex 12.927051 4.853170 4.000000
      vertex 14.427051 3.763356 4.000000
    endloop
  endfacet
  facet normal 0.000000 1.000000 0.000000
    outer loop
      vertex 12.000000 4.853170 0.000000
      vertex 12.000000 4.853170 4.000000
      vertex 12.927051 4.853170 0.000000
    endloop
  endfacet
  facet normal 0.000000 1.000000 0.000000
    outer loop
      vertex 12.927051 4.853170 0.000000
      vertex 12.000000 4.853170 4.000000
      vertex 12.927051 4.853170 4.000000
    endloop
  endfacet
  facet normal 1.000000 0.000000 -0.000000
    outer loop
      vertex 12.000000 4.853170 4.000000
      vertex 12.000000 4.853170 0.000000
      vertex 12.000000 5.000000 0.000000
    endloop
  endfacet
  facet normal 1.000000 0.000000 0.000000
    outer loop
      vertex 12.000000 5.000000 4.000000
      vertex 12.000000 4.853170 4.000000
      vertex 12.000000 5.000000 0.000000
    endloop
  endfacet
  facet normal 0.000000 1.000000 0.000000
    outer loop
      vertex 10.000000 5.000000 0.000000
      vertex 10.000000 5.000000 4.000000
      vertex 12.000000 5.000000 0.000000
    endloop
  endfacet
  facet normal 0.000000 1.000000 0.000000
    outer loop
      vertex 12.000000 5.000000 0.000000
      vertex 10.000000 5.000000 4.000000
      vertex 12.000000 5.000000 4.000000
    endloop
  endfacet
  facet normal 0.994522 0.104528 0.000000
    outer loop
      vertex 10.000000 5.000000 0.000000
      vertex 9.781476 7.079117 0.000000
      vertex 9.781476 7.079117 4.000000
    endloop
  endfacet
  facet normal 0.994522 0.104528 -0.000000
    outer loop
      vertex 10.000000 5.000000 4.000000
      vertex 10.000000 5.000000 0.000000
      vertex 9.781476 7.079117 4.000000
    endloop
  endfacet
  facet normal 0.951057 0.309017 0.000000
    outer loop
      vertex 9.781476 7.079117 0.000000
      vertex 9.135455 9.067366 0.000000
      vertex 9.135455 9.067366 4.000000
    endloop
  endfacet
  facet normal 0.951057 0.309017 -0.000000
    outer loop
      vertex 9.781476 7.079117 4.000000
      vertex 9.781476 7.079117 0.000000
      vertex 9.135455 9.067366 4.000000
    endloop
  endfacet
  facet normal 0.866025 0.500000 0.000000
    outer loop
      vertex 9.135455 9.067366 0.000000
      vertex 8.090170 10.877853 0.000000
      vertex 8.090170 10.877853 4.000000
    endloop
  endfacet
  facet normal 0.866025 0.500000 -0.000000
    outer loop
      vertex 9.135455 9.067366 4.000000
      vertex 9.135455 9.067366 0.000000
      vertex 8.090170 10.877853 4.000000
    endloop
  endfacet
  facet normal 0.743145 0.669131 0.000000
    outer loop
      vertex 8.090170 10.877853 0.000000
      vertex 6.691306 12.431448 0.000000
      vertex 6.691306 12.431448 4.000000
    endloop
  endfacet
  facet normal 0.743145 0.669131 -0.000000
    outer loop
      vertex 8.090170 10.877853 4.000000
      vertex 8.090170 10.877853 0.000000
      vertex 6.691306 12.431448 4.000000
    endloop
  endfacet
  facet normal 0.587785 0.809017 0.000000
    outer loop
      vertex 5.000000 13.660254 0.000000
      vertex 5.000000 13.660254 4.000000
      vertex 6.691306 12.431448 0.000000
    endloop
  endfacet
  facet normal 0.587785 0.809017 0.000000
    outer loop
      vertex 6.691306 12.431448 0.000000
      vertex 5.000000 13.660254 4.000000
      vertex 6.691306 12.431448 4.000000
    endloop
  endfacet
  facet normal 0.406737 0.913545 0.000000
    outer loop
      vertex 3.090170 14.510565 0.000000
      vertex 3.090170 14.510565 4.000000
      vertex 5.000000 13.660254 0.000000
    endloop
  endfacet
  facet normal 0.406737 0.913545 0.000000
    outer loop
      vertex 5.000000 13.660254 0.000000
      vertex 3.090170 14.510565 4.000000
      vertex 5.000000 13.660254 4.000000
    endloop
  endfacet
  facet normal 0.207912 0.978148 0.000000
    outer loop
      vertex 1.045285 14.945219 0.000000
      vertex 1.045285 14.945219 4.000000
      vertex 3.090170 14.510565 0.000000
    endloop
  endfacet
  facet normal 0.207912 0.978148 0.000000
    outer loop
      vertex 3.090170 14.510565 0.000000
      vertex 1.045285 14.945219 4.000000
      vertex 3.090170 14.510565 4.000000
    endloop
  endfacet
  facet normal 0.000000 1.000000 0.000000
    outer loop
      vertex -1.045285 14.945219 0.000000
      vertex -1.045285 14.945219 4.000000
      vertex 1.045285 14.945219 0.000000
    endloop
  endfacet
  facet normal 0.000000 1.000000 0.000000
    outer loop
      vertex 1.045285 14.945219 0.000000
      vertex -1.045285 14.945219 4.000000
      vertex 1.045285 14.945219 4.000000
    endloop
  endfacet
  facet normal -0.207912 0.978148 0.000000
    outer loop
      vertex -3.090170 14.510565 0.000000
      vertex -3.090170 14.510565 4.000000
      vertex -1.045285 14.945219 0.000000
    endloop
  endfacet
  facet normal -0.207912 0.978148 0.000000
    outer loop
      vertex -1.045285 14.945219 0.000000
      vertex -3.090170 14.510565 4.000000
      vertex -1.045285 14.945219 4.000000
    endloop
  endfacet
  facet normal -0.406737 0.913545 0.000000
    outer loop
      vertex -5.000000 13.660254 0.000000
      vertex -5.000000 13.660254 4.000000
      vertex -3.090170 14.510565 0.000000
    endloop
  endfacet
  facet normal -0.406737 0.913545 0.000000
    outer loop
      vertex -3.090170 14.510565 0.000000
      vertex -5.000000 13.660254 4.000000
      vertex -3.090170 14.510565 4.000000
    endloop
  endfacet
  facet normal -0.587785 0.809017 0.000000
    outer loop
      vertex -6.691306 12.431448 0.000000
      vertex -6.691306 12.431448 4.000000
      vertex -5.000000 13.660254 0.000000
    endloop
  endfacet
  facet normal -0.587785 0.809017 0.000000
    outer loop
      vertex -5.000000 13.660254 0.000000
      vertex -6.691306 12.431448 4.000000
      vertex -5.000000 13.660254 4.000000
    endloop
  endfacet
  facet normal -0.743145 0.669131 0.000000
    outer loop
      vertex -8.090170 10.877853 0.000000
      vertex -8.090170 10.877853 4.000000
      vertex -6.691306 12.431448 0.000000
    endloop
  endfacet
  facet normal -0.743145 0.669131 0.000000
    outer loop
      vertex -6.691306 12.431448 0.000000
      vertex -8.090170 10.877853 4.000000
      vertex -6.691306 12.431448 4.000000
    endloop
  endfacet
  facet normal -0.866025 0.500000 0.000000
    outer loop
      vertex -9.135455 9.067366 0.000000
      vertex -9.135455 9.067366 4.000000
      vertex -8.090170 10.877853 0.000000
    endloop
  endfacet
  facet normal -0.866025 0.500000 0.000000
    outer loop
      vertex -8.090170 10.877853 0.000000
      vertex -9.135455 9.067366 4.000000
      vertex -8.090170 10.877853 4.000000
    endloop
  endfacet
  facet normal -0.951057 0.309017 0.000000
    outer loop
      vertex -9.781476 7.079117 0.000000
      vertex -9.781476 7.079117 4.000000
      vertex -9.135455 9.067366 0.000000
    endloop
  endfacet
  facet normal -0.951057 0.309017 0.000000
    outer loop
      vertex -9.135455 9.067366 0.000000
      vertex -9.781476 7.079117 4.000000
      vertex -9.135455 9.067366 4.000000
    endloop
  endfacet
  facet normal -0.994522 0.104528 0.000000
    outer loop
      vertex -10.000000 5.000000 0.000000
      vertex -10.000000 5.000000 4.000000
      vertex -9.781476 7.079117 0.000000
    endloop
  endfacet
  facet normal -0.994522 0.104528 0.000000
    outer loop
      vertex -9.781476 7.079117 0.000000
      vertex -10.000000 5.000000 4.000000
      vertex -9.781476 7.079117 4.000000
    endloop
  endfacet
  facet normal 0.000000 1.000000 0.000000
    outer loop
      vertex -12.000000 5.000000 0.000000
      vertex -12.000000 5.000000 4.000000
      vertex -10.000000 5.000000 0.000000
    endloop
  endfacet
  facet normal 0.000000 1.000000 0.000000
    outer loop
      vertex -10.000000 5.000000 0.000000
      vertex -12.000000 5.000000 4.000000
      vertex -10.000000 5.000000 4.000000
    endloop
  endfacet
  facet normal -1.000000 -0.000000 -0.000000
    outer loop
      vertex -12.000000 4.853170 0.000000
      vertex -12.000000 4.853170 4.000000
      vertex -12.000000 5.000000 0.000000
    endloop
  endfacet
  facet normal -1.000000 0.000000 0.000000
    outer loop
      vertex -12.000000 5.000000 0.000000
      vertex -12.000000 4.853170 4.000000
      vertex -12.000000 5.000000 4.000000
    endloop
  endfacet
  facet normal 0.000000 1.000000 0.000000
    outer loop
      vertex -12.927051 4.853170 0.000000
      vertex -12.927051 4.853170 4.000000
      vertex -12.000000 4.853170 0.000000
    endloop
  endfacet
  facet normal 0.000000 1.000000 0.000000
    outer loop
      vertex -12.000000 4.853170 0.000000
      vertex -12.927051 4.853170 4.000000
      vertex -12.000000 4.853170 4.000000
    endloop
  endfacet
  facet normal -0.587785 0.809017 0.000000
    outer loop
      vertex -14.427051 3.763356 0.000000
      vertex -14.427051 3.763356 4.000000
      vertex -12.927051 4.853170 0.000000
    endloop
  endfacet
  facet normal -0.587785 0.809017 0.000000
    outer loop
      vertex -12.927051 4.853170 0.000000
      vertex -14.427051 3.763356 4.000000
      vertex -12.927051 4.853170 4.000000
    endloop
  endfacet
  facet normal -0.951057 0.309017 0.000000
    outer loop
      vertex -15.000000 2.000000 0.000000
      vertex -15.000000 2.000000 4.000000
      vertex -14.427051 3.763356 0.000000
    endloop
  endfacet
  facet normal -0.951057 0.309017 0.000000
    outer loop
      vertex -14.427051 3.763356 0.000000
      vertex -15.000000 2.000000 4.000000
      vertex -14.427051 3.763356 4.000000
    endloop
  endfacet
  facet normal -1.000000 -0.000000 -0.000000
    outer loop
      vertex -15.000000 1.240445 0.000000
      vertex -15.000000 1.240445 4.000000
      vertex -15.000000 2.000000 0.000000
    endloop
  endfacet
  facet normal -1.000000 0.000000 0.000000
    outer loop
      vertex -15.000000 2.000000 0.000000
      vertex -15.000000 1.240445 4.000000
      vertex -15.000000 2.000000 4.000000
    endloop
  endfacet
  facet normal -0.173648 -0.984808 -0.000000
    outer loop
      vertex -14.372109 1.129731 0.000000
      vertex -14.372109 1.129731 4.000000
      vertex -15.000000 1.240445 4.000000
    endloop
  endfacet
  facet normal -0.173648 -0.984808 -0.000000
    outer loop
      vertex -15.000000 1.240445 0.000000
      vertex -14.372109 1.129731 0.000000
      vertex -15.000000 1.240445 4.000000
    endloop
  endfacet
  facet normal 0.587785 -0.809017 0.000000
    outer loop
      vertex -13.963525 1.426585 0.000000
      vertex -13.963525 1.426585 4.000000
      vertex -14.372109 1.129731 4.000000
    endloop
  endfacet
  facet normal 0.587785 -0.809017 0.000000
    outer loop
      vertex -14.372109 1.129731 0.000000
      vertex -13.963525 1.426585 0.000000
      vertex -14.372109 1.129731 4.000000
    endloop
  endfacet
  facet normal -0.000000 -1.000000 -0.000000
    outer loop
      vertex -13.036475 1.426585 0.000000
      vertex -13.036475 1.426585 4.000000
      vertex -13.963525 1.426585 4.000000
    endloop
  endfacet
  facet normal -0.000000 -1.000000 -0.000000
    outer loop
      vertex -13.963525 1.426585 0.000000
      vertex -13.036475 1.426585 0.000000
      vertex -13.963525 1.426585 4.000000
    endloop
  endfacet
  facet normal -0.587785 -0.809017 -0.000000
    outer loop
      vertex -12.286475 0.881678 0.000000
      vertex -12.286475 0.881678 4.000000
      vertex -13.036475 1.426585 4.000000
    endloop
  endfacet
  facet normal -0.587785 -0.809017 -0.000000
    outer loop
      vertex -13.036475 1.426585 0.000000
      vertex -12.286475 0.881678 0.000000
      vertex -13.036475 1.426585 4.000000
    endloop
  endfacet
  facet normal -0.951056 -0.309017 0.000000
    outer loop
      vertex -12.000000 -0.000000 4.000000
      vertex -12.286475 0.881678 4.000000
      vertex -12.000000 -0.000000 0.000000
    endloop
  endfacet
  facet normal -0.951056 -0.309017 0.000000
    outer loop
      vertex -12.000000 -0.000000 0.000000
      vertex -12.286475 0.881678 4.000000
      vertex -12.286475 0.881678 0.000000
    endloop
  endfacet
  facet normal -0.951056 0.309017 0.000000
    outer loop
      vertex -12.000000 -0.000000 4.000000
      vertex -12.000000 -0.000000 0.000000
      vertex -12.286475 -0.881678 4.000000
    endloop
  endfacet
  facet normal -0.951056 0.309017 0.000000
    outer loop
      vertex -12.286475 -0.881678 4.000000
      vertex -12.000000 -0.000000 0.000000
      vertex -12.286475 -0.881678 0.000000
    endloop
  endfacet
  facet normal -0.587785 0.809017 0.000000
    outer loop
      vertex -12.286475 -0.881678 4.000000
      vertex -12.286475 -0.881678 0.000000
      vertex -13.036475 -1.426585 4.000000
    endloop
  endfacet
  facet normal -0.587785 0.809017 0.000000
    outer loop
      vertex -13.036475 -1.426585 4.000000
      vertex -12.286475 -0.881678 0.000000
      vertex -13.036475 -1.426585 0.000000
    endloop
  endfacet
  facet normal 0.000000 1.000000 -0.000000
    outer loop
      vertex -13.036475 -1.426585 4.000000
      vertex -13.036475 -1.426585 0.000000
      vertex -13.963525 -1.426585 4.000000
    endloop
  endfacet
  facet normal 0.000000 1.000000 -0.000000
    outer loop
      vertex -13.963525 -1.426585 4.000000
      vertex -13.036475 -1.426585 0.000000
      vertex -13.963525 -1.426585 0.000000
    endloop
  endfacet
  facet normal 0.587785 0.809017 -0.000000
    outer loop
      vertex -13.963525 -1.426585 4.000000
      vertex -13.963525 -1.426585 0.000000
      vertex -14.372109 -1.129731 4.000000
    endloop
  endfacet
  facet normal 0.587785 0.809017 -0.000000
    outer loop
      vertex -14.372109 -1.129731 4.000000
      vertex -13.963525 -1.426585 0.000000
      vertex -14.372109 -1.129731 0.000000
    endloop
  endfacet
  facet normal 0.994522 -0.104528 0.000000
    outer loop
      vertex -5.868886 6.247470 0.000000
      vertex -5.868886 6.247470 4.000000
      vertex -6.000000 5.000000 4.000000
    endloop
  endfacet
  facet normal 0.994522 -0.104528 0.000000
    outer loop
      vertex -6.000000 5.000000 0.000000
      vertex -5.868886 6.247470 0.000000
      vertex -6.000000 5.000000 4.000000
    endloop
  endfacet
  facet normal 0.994522 0.104528 0.000000
    outer loop
      vertex -6.000000 5.000000 4.000000
      vertex -5.868886 3.752530 4.000000
      vertex -5.868886 3.752530 0.000000
    endloop
  endfacet
  facet normal 0.994522 0.104528 0.000000
    outer loop
      vertex -6.000000 5.000000 0.000000
      vertex -6.000000 5.000000 4.000000
      vertex -5.868886 3.752530 0.000000
    endloop
  endfacet
  facet normal 0.951057 -0.309017 0.000000
    outer loop
      vertex -5.481273 7.440420 0.000000
      vertex -5.481273 7.440420 4.000000
      vertex -5.868886 6.247470 4.000000
    endloop
  endfacet
  facet normal 0.951057 -0.309017 0.000000
    outer loop
      vertex -5.868886 6.247470 0.000000
      vertex -5.481273 7.440420 0.000000
      vertex -5.868886 6.247470 4.000000
    endloop
  endfacet
  facet normal 0.866025 -0.500000 0.000000
    outer loop
      vertex -4.854102 8.526712 0.000000
      vertex -4.854102 8.526712 4.000000
      vertex -5.481273 7.440420 4.000000
    endloop
  endfacet
  facet normal 0.866025 -0.500000 0.000000
    outer loop
      vertex -5.481273 7.440420 0.000000
      vertex -4.854102 8.526712 0.000000
      vertex -5.481273 7.440420 4.000000
    endloop
  endfacet
  facet normal 0.743145 -0.669131 0.000000
    outer loop
      vertex -4.014784 9.458869 0.000000
      vertex -4.014784 9.458869 4.000000
      vertex -4.854102 8.526712 4.000000
    endloop
  endfacet
  facet normal 0.743145 -0.669131 0.000000
    outer loop
      vertex -4.854102 8.526712 0.000000
      vertex -4.014784 9.458869 0.000000
      vertex -4.854102 8.526712 4.000000
    endloop
  endfacet
  facet normal 0.587785 -0.809017 0.000000
    outer loop
      vertex -3.000000 10.196152 0.000000
      vertex -3.000000 10.196152 4.000000
      vertex -4.014784 9.458869 4.000000
    endloop
  endfacet
  facet normal 0.587785 -0.809017 0.000000
    outer loop
      vertex -4.014784 9.458869 0.000000
      vertex -3.000000 10.196152 0.000000
      vertex -4.014784 9.458869 4.000000
    endloop
  endfacet
  facet normal 0.406737 -0.913545 0.000000
    outer loop
      vertex -1.854102 10.706339 0.000000
      vertex -1.854102 10.706339 4.000000
      vertex -3.000000 10.196152 4.000000
    endloop
  endfacet
  facet normal 0.406737 -0.913545 0.000000
    outer loop
      vertex -3.000000 10.196152 0.000000
      vertex -1.854102 10.706339 0.000000
      vertex -3.000000 10.196152 4.000000
    endloop
  endfacet
  facet normal 0.207912 -0.978148 0.000000
    outer loop
      vertex -0.627171 10.967131 0.000000
      vertex -0.627171 10.967131 4.000000
      vertex -1.854102 10.706339 4.000000
    endloop
  endfacet
  facet normal 0.207912 -0.978148 0.000000
    outer loop
      vertex -1.854102 10.706339 0.000000
      vertex -0.627171 10.967131 0.000000
      vertex -1.854102 10.706339 4.000000
    endloop
  endfacet
  facet normal 0.000000 -1.000000 0.000000
    outer loop
      vertex 0.627171 10.967131 0.000000
      vertex 0.627171 10.967131 4.000000
      vertex -0.627171 10.967131 4.000000
    endloop
  endfacet
  facet normal -0.000000 -1.000000 -0.000000
    outer loop
      vertex -0.627171 10.967131 0.000000
      vertex 0.627171 10.967131 0.000000
      vertex -0.627171 10.967131 4.000000
    endloop
  endfacet
  facet normal -0.207912 -0.978148 -0.000000
    outer loop
      vertex 1.854102 10.706339 0.000000
      vertex 1.854102 10.706339 4.000000
      vertex 0.627171 10.967131 4.000000
    endloop
  endfacet
  facet normal -0.207912 -0.978148 -0.000000
    outer loop
      vertex 0.627171 10.967131 0.000000
      vertex 1.854102 10.706339 0.000000
      vertex 0.627171 10.967131 4.000000
    endloop
  endfacet
  facet normal -0.406737 -0.913545 -0.000000
    outer loop
      vertex 3.000000 10.196152 0.000000
      vertex 3.000000 10.196152 4.000000
      vertex 1.854102 10.706339 4.000000
    endloop
  endfacet
  facet normal -0.406737 -0.913545 -0.000000
    outer loop
      vertex 1.854102 10.706339 0.000000
      vertex 3.000000 10.196152 0.000000
      vertex 1.854102 10.706339 4.000000
    endloop
  endfacet
  facet normal -0.587785 -0.809017 -0.000000
    outer loop
      vertex 4.014784 9.458869 0.000000
      vertex 4.014784 9.458869 4.000000
      vertex 3.000000 10.196152 4.000000
    endloop
  endfacet
  facet normal -0.587785 -0.809017 -0.000000
    outer loop
      vertex 3.000000 10.196152 0.000000
      vertex 4.014784 9.458869 0.000000
      vertex 3.000000 10.196152 4.000000
    endloop
  endfacet
  facet normal -0.743145 -0.669131 0.000000
    outer loop
      vertex 4.854102 8.526712 4.000000
      vertex 4.014784 9.458869 4.000000
      vertex 4.854102 8.526712 0.000000
    endloop
  endfacet
  facet normal -0.743145 -0.669131 0.000000
    outer loop
      vertex 4.854102 8.526712 0.000000
      vertex 4.014784 9.458869 4.000000
      vertex 4.014784 9.458869 0.000000
    endloop
  endfacet
  facet normal -0.866025 -0.500000 0.000000
    outer loop
      vertex 5.481273 7.440420 4.000000
      vertex 4.854102 8.526712 4.000000
      vertex 5.481273 7.440420 0.000000
    endloop
  endfacet
  facet normal -0.866025 -0.500000 0.000000
    outer loop
      vertex 5.481273 7.440420 0.000000
      vertex 4.854102 8.526712 4.000000
      vertex 4.854102 8.526712 0.000000
    endloop
  endfacet
  facet normal -0.951057 -0.309017 0.000000
    outer loop
      vertex 5.868886 6.247470 4.000000
      vertex 5.481273 7.440420 4.000000
      vertex 5.868886 6.247470 0.000000
    endloop
  endfacet
  facet normal -0.951057 -0.309017 0.000000
    outer loop
      vertex 5.868886 6.247470 0.000000
      vertex 5.481273 7.440420 4.000000
      vertex 5.481273 7.440420 0.000000
    endloop
  endfacet
  facet normal -0.994522 -0.104528 0.000000
    outer loop
      vertex 6.000000 5.000000 4.000000
      vertex 5.868886 6.247470 4.000000
      vertex 6.000000 5.000000 0.000000
    endloop
  endfacet
  facet normal -0.994522 -0.104528 0.000000
    outer loop
      vertex 6.000000 5.000000 0.000000
      vertex 5.868886 6.247470 4.000000
      vertex 5.868886 6.247470 0.000000
    endloop
  endfacet
  facet normal -0.994522 0.104528 0.000000
    outer loop
      vertex 6.000000 5.000000 4.000000
      vertex 6.000000 5.000000 0.000000
      vertex 5.868886 3.752530 4.000000
    endloop
  endfacet
  facet normal -0.994522 0.104528 0.000000
    outer loop
      vertex 5.868886 3.752530 4.000000
      vertex 6.000000 5.000000 0.000000
      vertex 5.868886 3.752530 0.000000
    endloop
  endfacet
  facet normal -0.951057 0.309017 0.000000
    outer loop
      vertex 5.868886 3.752530 4.000000
      vertex 5.868886 3.752530 0.000000
      vertex 5.481273 2.559580 4.000000
    endloop
  endfacet
  facet normal -0.951057 0.309017 0.000000
    outer loop
      vertex 5.481273 2.559580 4.000000
      vertex 5.868886 3.752530 0.000000
      vertex 5.481273 2.559580 0.000000
    endloop
  endfacet
  facet normal -0.866025 0.500000 0.000000
    outer loop
      vertex 5.481273 2.559580 4.000000
      vertex 5.481273 2.559580 0.000000
      vertex 4.854102 1.473288 4.000000
    endloop
  endfacet
  facet normal -0.866025 0.500000 0.000000
    outer loop
      vertex 4.854102 1.473288 4.000000
      vertex 5.481273 2.559580 0.000000
      vertex 4.854102 1.473288 0.000000
    endloop
  endfacet
  facet normal -0.743145 0.669131 0.000000
    outer loop
      vertex 4.854102 1.473288 4.000000
      vertex 4.854102 1.473288 0.000000
      vertex 4.014784 0.541131 4.000000
    endloop
  endfacet
  facet normal -0.743145 0.669131 0.000000
    outer loop
      vertex 4.014784 0.541131 4.000000
      vertex 4.854102 1.473288 0.000000
      vertex 4.014784 0.541131 0.000000
    endloop
  endfacet
  facet normal -0.587785 0.809017 0.000000
    outer loop
      vertex 4.014784 0.541131 4.000000
      vertex 4.014784 0.541131 0.000000
      vertex 3.000000 -0.196152 4.000000
    endloop
  endfacet
  facet normal -0.587785 0.809017 0.000000
    outer loop
      vertex 3.000000 -0.196152 4.000000
      vertex 4.014784 0.541131 0.000000
      vertex 3.000000 -0.196152 0.000000
    endloop
  endfacet
  facet normal -0.406737 0.913545 0.000000
    outer loop
      vertex 3.000000 -0.196152 4.000000
      vertex 3.000000 -0.196152 0.000000
      vertex 1.854102 -0.706339 4.000000
    endloop
  endfacet
  facet normal -0.406737 0.913545 0.000000
    outer loop
      vertex 1.854102 -0.706339 4.000000
      vertex 3.000000 -0.196152 0.000000
      vertex 1.854102 -0.706339 0.000000
    endloop
  endfacet
  facet normal -0.207912 0.978148 0.000000
    outer loop
      vertex 1.854102 -0.706339 4.000000
      vertex 1.854102 -0.706339 0.000000
      vertex 0.627171 -0.967131 4.000000
    endloop
  endfacet
  facet normal -0.207912 0.978148 0.000000
    outer loop
      vertex 0.627171 -0.967131 4.000000
      vertex 1.854102 -0.706339 0.000000
      vertex 0.627171 -0.967131 0.000000
    endloop
  endfacet
  facet normal 0.000000 1.000000 0.000000
    outer loop
      vertex 0.627171 -0.967131 4.000000
      vertex 0.627171 -0.967131 0.000000
      vertex -0.627171 -0.967131 4.000000
    endloop
  endfacet
  facet normal 0.000000 1.000000 -0.000000
    outer loop
      vertex -0.627171 -0.967131 4.000000
      vertex 0.627171 -0.967131 0.000000
      vertex -0.627171 -0.967131 0.000000
    endloop
  endfacet
  facet normal 0.207912 0.978148 -0.000000
    outer loop
      vertex -0.627171 -0.967131 4.000000
      vertex -0.627171 -0.967131 0.000000
      vertex -1.854102 -0.706339 4.000000
    endloop
  endfacet
  facet normal 0.207912 0.978148 -0.000000
    outer loop
      vertex -1.854102 -0.706339 4.000000
      vertex -0.627171 -0.967131 0.000000
      vertex -1.854102 -0.706339 0.000000
    endloop
  endfacet
  facet normal 0.406737 0.913545 -0.000000
    outer loop
      vertex -1.854102 -0.706339 4.000000
      vertex -1.854102 -0.706339 0.000000
      vertex -3.000000 -0.196152 4.000000
    endloop
  endfacet
  facet normal 0.406737 0.913545 -0.000000
    outer loop
      vertex -3.000000 -0.196152 4.000000
      vertex -1.854102 -0.706339 0.000000
      vertex -3.000000 -0.196152 0.000000
    endloop
  endfacet
  facet normal 0.587785 0.809017 -0.000000
    outer loop
      vertex -3.000000 -0.196152 4.000000
      vertex -3.000000 -0.196152 0.000000
      vertex -4.014784 0.541131 4.000000
    endloop
  endfacet
  facet normal 0.587785 0.809017 -0.000000
    outer loop
      vertex -4.014784 0.541131 4.000000
      vertex -3.000000 -0.196152 0.000000
      vertex -4.014784 0.541131 0.000000
    endloop
  endfacet
  facet normal 0.743145 0.669131 0.000000
    outer loop
      vertex -4.854102 1.473288 4.000000
      vertex -4.014784 0.541131 4.000000
      vertex -4.014784 0.541131 0.000000
    endloop
  endfacet
  facet normal 0.743145 0.669131 0.000000
    outer loop
      vertex -4.854102 1.473288 0.000000
      vertex -4.854102 1.473288 4.000000
      vertex -4.014784 0.541131 0.000000
    endloop
  endfacet
  facet normal 0.866025 0.500000 0.000000
    outer loop
      vertex -5.481273 2.559580 4.000000
      vertex -4.854102 1.473288 4.000000
      vertex -4.854102 1.473288 0.000000
    endloop
  endfacet
  facet normal 0.866025 0.500000 0.000000
    outer loop
      vertex -5.481273 2.559580 0.000000
      vertex -5.481273 2.559580 4.000000
      vertex -4.854102 1.473288 0.000000
    endloop
  endfacet
  facet normal 0.951057 0.309017 0.000000
    outer loop
      vertex -5.868886 3.752530 4.000000
      vertex -5.481273 2.559580 4.000000
      vertex -5.481273 2.559580 0.000000
    endloop
  endfacet
  facet normal 0.951057 0.309017 0.000000
    outer loop
      vertex -5.868886 3.752530 0.000000
      vertex -5.868886 3.752530 4.000000
      vertex -5.481273 2.559580 0.000000
    endloop
  endfacet
endsolid OpenSCAD_Model
