solid OpenSCAD_Model
  facet normal -1.000000 -0.000000 -0.000000
    outer loop
      vertex 0.000000 0.000000 0.000000
      vertex 0.000000 0.000000 4.000000
      vertex 0.000000 4.000000 0.000000
    endloop
  endfacet
  facet normal -1.000000 0.000000 0.000000
    outer loop
      vertex 0.000000 4.000000 0.000000
      vertex 0.000000 0.000000 4.000000
      vertex 0.000000 4.000000 4.000000
    endloop
  endfacet
  facet normal 0.000000 -1.000000 0.000000
    outer loop
      vertex 0.000000 0.000000 4.000000
      vertex 0.000000 0.000000 0.000000
      vertex 73.500000 0.000000 0.000000
    endloop
  endfacet
  facet normal 0.000000 -1.000000 0.000000
    outer loop
      vertex 73.500000 0.000000 4.000000
      vertex 0.000000 0.000000 4.000000
      vertex 73.500000 0.000000 0.000000
    endloop
  endfacet
  facet normal -0.000000 -0.000000 -1.000000
    outer loop
      vertex 0.000000 0.000000 0.000000
      vertex 0.000000 4.000000 0.000000
      vertex 73.500000 0.000000 0.000000
    endloop
  endfacet
  facet normal 0.000000 0.000000 -1.000000
    outer loop
      vertex 73.500000 0.000000 0.000000
      vertex 0.000000 4.000000 0.000000
      vertex 17.000000 4.000000 0.000000
    endloop
  endfacet
  facet normal 0.000000 0.000000 -1.000000
    outer loop
      vertex 17.179228 4.000000 0.000000
      vertex 17.000000 4.000000 0.000000
      vertex 17.000000 4.066839 0.000000
    endloop
  endfacet
  facet normal 0.000000 0.000000 -1.000000
    outer loop
      vertex 73.500000 0.000000 0.000000
      vertex 17.000000 4.000000 0.000000
      vertex 17.179228 4.000000 0.000000
    endloop
  endfacet
  facet normal 0.000000 0.000000 -1.000000
    outer loop
      vertex 73.500000 0.000000 0.000000
      vertex 17.179228 4.000000 0.000000
      vertex 17.186053 4.000000 0.000000
    endloop
  endfacet
  facet normal -0.000000 0.000000 -1.000000
    outer loop
      vertex 75.267767 8.267767 0.000000
      vertex 77.552684 11.581905 0.000000
      vertex 76.000000 6.500000 0.000000
    endloop
  endfacet
  facet normal 0.000000 0.000000 -1.000000
    outer loop
      vertex 18.029983 4.506619 0.000000
      vertex 73.500000 0.000000 0.000000
      vertex 17.445042 4.040144 0.000000
    endloop
  endfacet
  facet normal 0.000000 0.000000 -1.000000
    outer loop
      vertex 17.264327 7.972456 0.000000
      vertex 17.445042 7.939856 0.000000
      vertex 17.254172 7.896291 0.000000
    endloop
  endfacet
  facet normal -0.000000 0.000000 -1.000000
    outer loop
      vertex 18.029983 4.506619 0.000000
      vertex 18.671444 4.891694 0.000000
      vertex 73.500000 0.000000 0.000000
    endloop
  endfacet
  facet normal -0.000000 0.000000 -1.000000
    outer loop
      vertex 18.671444 4.891694 0.000000
      vertex 18.690313 5.033215 0.000000
      vertex 73.500000 0.000000 0.000000
    endloop
  endfacet
  facet normal 0.000000 0.000000 -1.000000
    outer loop
      vertex 73.500000 0.000000 0.000000
      vertex 18.690313 5.033215 0.000000
      vertex 18.801938 5.122233 0.000000
    endloop
  endfacet
  facet normal 0.000000 0.000000 -1.000000
    outer loop
      vertex 30.813947 4.000000 0.000000
      vertex 30.554958 4.040144 0.000000
      vertex 30.694152 4.071914 0.000000
    endloop
  endfacet
  facet normal 0.000000 0.000000 -1.000000
    outer loop
      vertex 29.198062 5.122233 0.000000
      vertex 18.801938 5.870400 0.000000
      vertex 18.900819 6.612004 0.000000
    endloop
  endfacet
  facet normal 0.000000 0.000000 -1.000000
    outer loop
      vertex 29.198062 5.870400 0.000000
      vertex 18.216997 7.324242 0.000000
      vertex 17.698838 7.863933 0.000000
    endloop
  endfacet
  facet normal 0.000000 0.000000 -1.000000
    outer loop
      vertex 17.698838 7.863933 0.000000
      vertex 17.556667 7.850838 0.000000
      vertex 17.445042 7.939856 0.000000
    endloop
  endfacet
  facet normal 0.000000 0.000000 -1.000000
    outer loop
      vertex 29.198062 5.122233 0.000000
      vertex 18.801938 6.714994 0.000000
      vertex 18.801938 6.857767 0.000000
    endloop
  endfacet
  facet normal 0.000000 0.000000 -1.000000
    outer loop
      vertex 29.198062 5.122233 0.000000
      vertex 18.801938 6.857767 0.000000
      vertex 18.216997 7.324242 0.000000
    endloop
  endfacet
  facet normal 0.000000 0.000000 -1.000000
    outer loop
      vertex 17.264327 7.972456 0.000000
      vertex 4.000000 9.741033 0.000000
      vertex 4.000000 12.990000 0.000000
    endloop
  endfacet
  facet normal 0.000000 -0.000000 -1.000000
    outer loop
      vertex 30.301162 7.863933 0.000000
      vertex 17.264327 7.972456 0.000000
      vertex 30.554958 7.939856 0.000000
    endloop
  endfacet
  facet normal 0.000000 -0.000000 -1.000000
    outer loop
      vertex 4.024953 12.988752 0.000000
      vertex 4.000000 12.990000 0.000000
      vertex 4.025016 12.990000 0.000000
    endloop
  endfacet
  facet normal 0.000000 -0.000000 -1.000000
    outer loop
      vertex 30.443333 7.850838 0.000000
      vertex 30.301162 7.863933 0.000000
      vertex 30.554958 7.939856 0.000000
    endloop
  endfacet
  facet normal 0.000000 0.000000 -1.000000
    outer loop
      vertex 44.000000 9.741033 0.000000
      vertex 43.975047 12.988752 0.000000
      vertex 44.000000 12.990000 0.000000
    endloop
  endfacet
  facet normal 0.000000 -0.000000 -1.000000
    outer loop
      vertex 43.975047 12.988752 0.000000
      vertex 43.974984 12.990000 0.000000
      vertex 44.000000 12.990000 0.000000
    endloop
  endfacet
  facet normal 0.000000 0.000000 -1.000000
    outer loop
      vertex 44.000000 9.741033 0.000000
      vertex 24.000000 11.990000 0.000000
      vertex 43.975047 12.988752 0.000000
    endloop
  endfacet
  facet normal 0.000000 -0.000000 -1.000000
    outer loop
      vertex 30.735673 7.972456 0.000000
      vertex 24.000000 11.990000 0.000000
      vertex 44.000000 9.741033 0.000000
    endloop
  endfacet
  facet normal 0.000000 0.000000 -1.000000
    outer loop
      vertex 73.500000 0.054577 0.000000
      vertex 80.000000 6.500000 0.000000
      vertex 79.711223 4.584091 0.000000
    endloop
  endfacet
  facet normal 0.000000 0.000000 -1.000000
    outer loop
      vertex 59.732233 4.732233 0.000000
      vertex 61.500000 4.000000 0.000000
      vertex 49.807612 4.000000 0.000000
    endloop
  endfacet
  facet normal 0.000000 0.000000 -1.000000
    outer loop
      vertex 30.735673 7.972456 0.000000
      vertex 4.000000 12.990000 0.000000
      vertex 4.024953 12.988752 0.000000
    endloop
  endfacet
  facet normal -0.000000 -0.000000 -1.000000
    outer loop
      vertex 17.264327 7.972456 0.000000
      vertex 4.000000 12.990000 0.000000
      vertex 30.735673 7.972456 0.000000
    endloop
  endfacet
  facet normal 0.000000 0.000000 -1.000000
    outer loop
      vertex 73.500000 0.054577 0.000000
      vertex 79.711223 4.584091 0.000000
      vertex 78.870552 2.838420 0.000000
    endloop
  endfacet
  facet normal -0.000000 0.000000 -1.000000
    outer loop
      vertex 30.554958 7.939856 0.000000
      vertex 30.735673 7.972456 0.000000
      vertex 30.745828 7.896291 0.000000
    endloop
  endfacet
  facet normal 0.000000 0.000000 -1.000000
    outer loop
      vertex 73.500000 0.054577 0.000000
      vertex 78.870552 2.838420 0.000000
      vertex 77.552684 1.418095 0.000000
    endloop
  endfacet
  facet normal 0.000000 0.000000 -1.000000
    outer loop
      vertex 17.264327 7.972456 0.000000
      vertex 30.735673 7.972456 0.000000
      vertex 30.554958 7.939856 0.000000
    endloop
  endfacet
  facet normal 0.000000 0.000000 -1.000000
    outer loop
      vertex 29.198062 5.870400 0.000000
      vertex 17.264327 7.972456 0.000000
      vertex 29.099181 6.612004 0.000000
    endloop
  endfacet
  facet normal 0.000000 -0.000000 -1.000000
    outer loop
      vertex 29.783003 7.324242 0.000000
      vertex 17.264327 7.972456 0.000000
      vertex 30.301162 7.863933 0.000000
    endloop
  endfacet
  facet normal 0.000000 0.000000 -1.000000
    outer loop
      vertex 73.500000 0.054577 0.000000
      vertex 77.552684 1.418095 0.000000
      vertex 75.874717 0.449321 0.000000
    endloop
  endfacet
  facet normal 0.000000 0.000000 -1.000000
    outer loop
      vertex 29.198062 5.870400 0.000000
      vertex 17.445042 7.939856 0.000000
      vertex 17.264327 7.972456 0.000000
    endloop
  endfacet
  facet normal 0.000000 0.000000 -1.000000
    outer loop
      vertex 29.198062 5.870400 0.000000
      vertex 17.698838 7.863933 0.000000
      vertex 17.445042 7.939856 0.000000
    endloop
  endfacet
  facet normal 0.000000 0.000000 -1.000000
    outer loop
      vertex 17.264327 7.972456 0.000000
      vertex 29.783003 7.324242 0.000000
      vertex 29.198062 6.857767 0.000000
    endloop
  endfacet
  facet normal 0.000000 0.000000 -1.000000
    outer loop
      vertex 56.903806 11.096194 0.000000
      vertex 59.000000 6.500000 0.000000
      vertex 59.732233 4.732233 0.000000
    endloop
  endfacet
  facet normal 0.000000 0.000000 -1.000000
    outer loop
      vertex 17.264327 7.972456 0.000000
      vertex 29.198062 6.857767 0.000000
      vertex 29.198062 6.714994 0.000000
    endloop
  endfacet
  facet normal 0.000000 0.000000 -1.000000
    outer loop
      vertex 61.500000 4.000000 0.000000
      vertex 73.500000 0.000000 0.000000
      vertex 49.807612 4.000000 0.000000
    endloop
  endfacet
  facet normal 0.000000 0.000000 -1.000000
    outer loop
      vertex 17.264327 7.972456 0.000000
      vertex 29.198062 6.714994 0.000000
      vertex 29.099181 6.612004 0.000000
    endloop
  endfacet
  facet normal 0.000000 0.000000 -1.000000
    outer loop
      vertex 29.198062 5.122233 0.000000
      vertex 18.216997 7.324242 0.000000
      vertex 29.198062 5.870400 0.000000
    endloop
  endfacet
  facet normal 0.000000 0.000000 -1.000000
    outer loop
      vertex 29.198062 5.122233 0.000000
      vertex 18.900819 6.612004 0.000000
      vertex 18.801938 6.714994 0.000000
    endloop
  endfacet
  facet normal 0.000000 0.000000 -1.000000
    outer loop
      vertex 29.309687 5.033215 0.000000
      vertex 18.801938 5.870400 0.000000
      vertex 29.198062 5.122233 0.000000
    endloop
  endfacet
  facet normal 0.000000 0.000000 -1.000000
    outer loop
      vertex 29.970017 4.506619 0.000000
      vertex 18.801938 5.870400 0.000000
      vertex 29.328556 4.891694 0.000000
    endloop
  endfacet
  facet normal 0.000000 0.000000 -1.000000
    outer loop
      vertex 29.328556 4.891694 0.000000
      vertex 18.801938 5.870400 0.000000
      vertex 29.309687 5.033215 0.000000
    endloop
  endfacet
  facet normal 0.000000 0.000000 -1.000000
    outer loop
      vertex 31.000000 4.000000 0.000000
      vertex 73.500000 0.000000 0.000000
      vertex 30.820772 4.000000 0.000000
    endloop
  endfacet
  facet normal -0.000000 -0.000000 -1.000000
    outer loop
      vertex 18.801938 5.122233 0.000000
      vertex 18.801938 5.870400 0.000000
      vertex 29.970017 4.506619 0.000000
    endloop
  endfacet
  facet normal 0.000000 0.000000 -1.000000
    outer loop
      vertex 18.801938 5.122233 0.000000
      vertex 29.970017 4.506619 0.000000
      vertex 30.554958 4.040144 0.000000
    endloop
  endfacet
  facet normal 0.000000 0.000000 -1.000000
    outer loop
      vertex 31.000000 4.066839 0.000000
      vertex 31.000000 4.000000 0.000000
      vertex 30.820772 4.000000 0.000000
    endloop
  endfacet
  facet normal 0.000000 0.000000 -1.000000
    outer loop
      vertex 18.801938 5.122233 0.000000
      vertex 30.554958 4.040144 0.000000
      vertex 30.813947 4.000000 0.000000
    endloop
  endfacet
  facet normal 0.000000 0.000000 -1.000000
    outer loop
      vertex 18.801938 5.122233 0.000000
      vertex 30.813947 4.000000 0.000000
      vertex 73.500000 0.000000 0.000000
    endloop
  endfacet
  facet normal 0.000000 0.000000 -1.000000
    outer loop
      vertex 30.813947 4.000000 0.000000
      vertex 30.820772 4.000000 0.000000
      vertex 73.500000 0.000000 0.000000
    endloop
  endfacet
  facet normal 0.000000 0.000000 -1.000000
    outer loop
      vertex 49.807612 4.000000 0.000000
      vertex 73.500000 0.000000 0.000000
      vertex 31.000000 4.000000 0.000000
    endloop
  endfacet
  facet normal 0.000000 0.000000 -1.000000
    outer loop
      vertex 56.903806 11.096194 0.000000
      vertex 56.926384 11.073616 0.000000
      vertex 59.000000 6.500000 0.000000
    endloop
  endfacet
  facet normal 0.000000 0.000000 -1.000000
    outer loop
      vertex 63.267767 8.267767 0.000000
      vertex 73.500000 0.000000 0.000000
      vertex 64.000000 6.500000 0.000000
    endloop
  endfacet
  facet normal 0.000000 0.000000 -1.000000
    outer loop
      vertex 63.267767 8.267767 0.000000
      vertex 58.250000 12.129165 0.000000
      vertex 60.053614 12.837031 0.000000
    endloop
  endfacet
  facet normal 0.000000 0.000000 -1.000000
    outer loop
      vertex 73.500000 0.000000 0.000000
      vertex 60.053614 12.837031 0.000000
      vertex 61.500000 12.945423 0.000000
    endloop
  endfacet
  facet normal -0.000000 -0.000000 -1.000000
    outer loop
      vertex 61.500000 12.945423 0.000000
      vertex 61.500000 13.000000 0.000000
      vertex 73.500000 0.000000 0.000000
    endloop
  endfacet
  facet normal 0.000000 0.000000 -1.000000
    outer loop
      vertex 73.500000 12.945423 0.000000
      vertex 61.500000 13.000000 0.000000
      vertex 73.500000 13.000000 0.000000
    endloop
  endfacet
  facet normal 0.000000 0.000000 -1.000000
    outer loop
      vertex 73.500000 0.000000 0.000000
      vertex 61.500000 13.000000 0.000000
      vertex 73.500000 0.054577 0.000000
    endloop
  endfacet
  facet normal 0.000000 0.000000 -1.000000
    outer loop
      vertex 63.267767 4.732233 0.000000
      vertex 73.500000 0.000000 0.000000
      vertex 61.500000 4.000000 0.000000
    endloop
  endfacet
  facet normal 0.000000 0.000000 -1.000000
    outer loop
      vertex 75.267767 8.267767 0.000000
      vertex 75.874717 12.550679 0.000000
      vertex 77.552684 11.581905 0.000000
    endloop
  endfacet
  facet normal 0.000000 0.000000 -1.000000
    outer loop
      vertex 76.000000 6.500000 0.000000
      vertex 77.552684 11.581905 0.000000
      vertex 78.870552 10.161580 0.000000
    endloop
  endfacet
  facet normal 0.000000 0.000000 -1.000000
    outer loop
      vertex 71.000000 6.500000 0.000000
      vertex 73.500000 0.054577 0.000000
      vertex 61.500000 13.000000 0.000000
    endloop
  endfacet
  facet normal 0.000000 0.000000 -1.000000
    outer loop
      vertex 59.732233 8.267767 0.000000
      vertex 59.000000 6.500000 0.000000
      vertex 56.926384 11.073616 0.000000
    endloop
  endfacet
  facet normal 0.000000 0.000000 -1.000000
    outer loop
      vertex 73.500000 0.054577 0.000000
      vertex 78.870552 10.161580 0.000000
      vertex 79.711223 8.415909 0.000000
    endloop
  endfacet
  facet normal 0.000000 0.000000 -1.000000
    outer loop
      vertex 30.735673 7.972456 0.000000
      vertex 4.024953 12.988752 0.000000
      vertex 24.000000 11.990000 0.000000
    endloop
  endfacet
  facet normal 0.000000 0.000000 -1.000000
    outer loop
      vertex 73.500000 0.054577 0.000000
      vertex 79.711223 8.415909 0.000000
      vertex 80.000000 6.500000 0.000000
    endloop
  endfacet
  facet normal 0.000000 0.000000 -1.000000
    outer loop
      vertex 64.000000 6.500000 0.000000
      vertex 73.500000 0.000000 0.000000
      vertex 63.267767 4.732233 0.000000
    endloop
  endfacet
  facet normal -0.000000 -0.000000 -1.000000
    outer loop
      vertex 61.500000 9.000000 0.000000
      vertex 58.250000 12.129165 0.000000
      vertex 63.267767 8.267767 0.000000
    endloop
  endfacet
  facet normal 0.000000 0.000000 -1.000000
    outer loop
      vertex 73.500000 9.000000 0.000000
      vertex 73.985746 12.981825 0.000000
      vertex 75.874717 12.550679 0.000000
    endloop
  endfacet
  facet normal 0.000000 0.000000 -1.000000
    outer loop
      vertex 59.732233 8.267767 0.000000
      vertex 56.926384 11.073616 0.000000
      vertex 58.250000 12.129165 0.000000
    endloop
  endfacet
  facet normal 0.000000 0.000000 -1.000000
    outer loop
      vertex 73.500000 0.000000 0.000000
      vertex 63.267767 8.267767 0.000000
      vertex 60.053614 12.837031 0.000000
    endloop
  endfacet
  facet normal 0.000000 -0.000000 -1.000000
    outer loop
      vertex 59.732233 8.267767 0.000000
      vertex 58.250000 12.129165 0.000000
      vertex 61.500000 9.000000 0.000000
    endloop
  endfacet
  facet normal 0.000000 0.000000 -1.000000
    outer loop
      vertex 75.267767 4.732233 0.000000
      vertex 73.500000 0.054577 0.000000
      vertex 73.500000 4.000000 0.000000
    endloop
  endfacet
  facet normal 0.000000 0.000000 -1.000000
    outer loop
      vertex 71.732233 4.732233 0.000000
      vertex 73.500000 0.054577 0.000000
      vertex 71.000000 6.500000 0.000000
    endloop
  endfacet
  facet normal 0.000000 0.000000 -1.000000
    outer loop
      vertex 73.500000 12.945423 0.000000
      vertex 71.000000 6.500000 0.000000
      vertex 61.500000 13.000000 0.000000
    endloop
  endfacet
  facet normal 0.000000 0.000000 -1.000000
    outer loop
      vertex 73.500000 4.000000 0.000000
      vertex 73.500000 0.054577 0.000000
      vertex 71.732233 4.732233 0.000000
    endloop
  endfacet
  facet normal 0.000000 0.000000 -1.000000
    outer loop
      vertex 71.732233 8.267767 0.000000
      vertex 73.500000 12.945423 0.000000
      vertex 73.500000 9.000000 0.000000
    endloop
  endfacet
  facet normal -0.000000 0.000000 -1.000000
    outer loop
      vertex 73.500000 9.000000 0.000000
      vertex 75.874717 12.550679 0.000000
      vertex 75.267767 8.267767 0.000000
    endloop
  endfacet
  facet normal 0.000000 0.000000 -1.000000
    outer loop
      vertex 75.267767 4.732233 0.000000
      vertex 76.000000 6.500000 0.000000
      vertex 78.870552 10.161580 0.000000
    endloop
  endfacet
  facet normal -0.000000 0.000000 -1.000000
    outer loop
      vertex 73.500000 12.945423 0.000000
      vertex 73.985746 12.981825 0.000000
      vertex 73.500000 9.000000 0.000000
    endloop
  endfacet
  facet normal 0.000000 0.000000 -1.000000
    outer loop
      vertex 73.500000 12.945423 0.000000
      vertex 71.732233 8.267767 0.000000
      vertex 71.000000 6.500000 0.000000
    endloop
  endfacet
  facet normal 0.000000 0.000000 -1.000000
    outer loop
      vertex 17.445042 4.040144 0.000000
      vertex 73.500000 0.000000 0.000000
      vertex 17.186053 4.000000 0.000000
    endloop
  endfacet
  facet normal 0.000000 0.000000 -1.000000
    outer loop
      vertex 17.305848 4.071914 0.000000
      vertex 17.445042 4.040144 0.000000
      vertex 17.186053 4.000000 0.000000
    endloop
  endfacet
  facet normal 0.000000 0.000000 -1.000000
    outer loop
      vertex 73.500000 0.054577 0.000000
      vertex 75.267767 4.732233 0.000000
      vertex 78.870552 10.161580 0.000000
    endloop
  endfacet
  facet normal 0.000000 0.000000 -1.000000
    outer loop
      vertex 56.903806 11.096194 0.000000
      vertex 59.732233 4.732233 0.000000
      vertex 49.807612 4.000000 0.000000
    endloop
  endfacet
  facet normal -0.000000 0.000000 -1.000000
    outer loop
      vertex 73.500000 0.054577 0.000000
      vertex 75.874717 0.449321 0.000000
      vertex 73.985746 0.018175 0.000000
    endloop
  endfacet
  facet normal 0.000000 1.000000 0.000000
    outer loop
      vertex 0.000000 4.000000 0.000000
      vertex 0.000000 4.000000 4.000000
      vertex 17.000000 4.000000 0.000000
    endloop
  endfacet
  facet normal 0.000000 1.000000 0.000000
    outer loop
      vertex 17.000000 4.000000 0.000000
      vertex 0.000000 4.000000 4.000000
      vertex 17.000000 4.000000 4.000000
    endloop
  endfacet
  facet normal 0.000000 -0.000000 1.000000
    outer loop
      vertex 0.000000 4.000000 4.000000
      vertex 0.000000 0.000000 4.000000
      vertex 73.500000 0.000000 4.000000
    endloop
  endfacet
  facet normal -0.000000 0.000000 1.000000
    outer loop
      vertex 75.874717 0.449321 4.000000
      vertex 0.000000 4.000000 4.000000
      vertex 73.500000 0.054577 4.000000
    endloop
  endfacet
  facet normal -0.000000 0.000000 1.000000
    outer loop
      vertex 73.500000 0.054577 4.000000
      vertex 0.000000 4.000000 4.000000
      vertex 73.500000 0.000000 4.000000
    endloop
  endfacet
  facet normal 0.000000 0.000000 1.000000
    outer loop
      vertex 75.874717 0.449321 4.000000
      vertex 73.500000 0.054577 4.000000
      vertex 73.985746 0.018175 4.000000
    endloop
  endfacet
  facet normal -0.000000 0.000000 1.000000
    outer loop
      vertex 77.552684 1.418095 4.000000
      vertex 0.000000 4.000000 4.000000
      vertex 75.874717 0.449321 4.000000
    endloop
  endfacet
  facet normal -0.000000 0.000000 1.000000
    outer loop
      vertex 78.870552 2.838420 4.000000
      vertex 0.000000 4.000000 4.000000
      vertex 77.552684 1.418095 4.000000
    endloop
  endfacet
  facet normal 0.000000 -0.000000 1.000000
    outer loop
      vertex 49.807612 4.000000 4.000000
      vertex 31.000000 4.000000 4.000000
      vertex 78.870552 2.838420 4.000000
    endloop
  endfacet
  facet normal 0.000000 -0.000000 1.000000
    outer loop
      vertex 61.500000 13.000000 4.000000
      vertex 61.500000 12.945423 4.000000
      vertex 73.500000 13.000000 4.000000
    endloop
  endfacet
  facet normal 0.000000 0.000000 1.000000
    outer loop
      vertex 17.698838 7.863933 4.000000
      vertex 44.000000 12.990000 4.000000
      vertex 43.975047 12.988752 4.000000
    endloop
  endfacet
  facet normal 0.000000 0.000000 1.000000
    outer loop
      vertex 43.975047 12.988752 4.000000
      vertex 17.556667 7.850838 4.000000
      vertex 17.698838 7.863933 4.000000
    endloop
  endfacet
  facet normal 0.000000 -0.000000 1.000000
    outer loop
      vertex 61.500000 12.945423 4.000000
      vertex 58.250000 12.129165 4.000000
      vertex 73.500000 13.000000 4.000000
    endloop
  endfacet
  facet normal 0.000000 0.000000 1.000000
    outer loop
      vertex 43.975047 12.988752 4.000000
      vertex 17.264327 7.972456 4.000000
      vertex 17.445042 7.939856 4.000000
    endloop
  endfacet
  facet normal 0.000000 -0.000000 1.000000
    outer loop
      vertex 58.250000 12.129165 4.000000
      vertex 56.926384 11.073616 4.000000
      vertex 73.500000 13.000000 4.000000
    endloop
  endfacet
  facet normal 0.000000 0.000000 1.000000
    outer loop
      vertex 44.000000 9.741033 4.000000
      vertex 18.900819 6.612004 4.000000
      vertex 30.735673 7.972456 4.000000
    endloop
  endfacet
  facet normal 0.000000 -0.000000 1.000000
    outer loop
      vertex 61.500000 4.000000 4.000000
      vertex 49.807612 4.000000 4.000000
      vertex 78.870552 2.838420 4.000000
    endloop
  endfacet
  facet normal 0.000000 -0.000000 1.000000
    outer loop
      vertex 31.000000 4.000000 4.000000
      vertex 30.820772 4.000000 4.000000
      vertex 78.870552 2.838420 4.000000
    endloop
  endfacet
  facet normal 0.000000 -0.000000 1.000000
    outer loop
      vertex 30.820772 4.000000 4.000000
      vertex 30.813947 4.000000 4.000000
      vertex 78.870552 2.838420 4.000000
    endloop
  endfacet
  facet normal 0.000000 0.000000 1.000000
    outer loop
      vertex 73.500000 9.000000 4.000000
      vertex 75.267767 8.267767 4.000000
      vertex 79.711223 8.415909 4.000000
    endloop
  endfacet
  facet normal 0.000000 0.000000 1.000000
    outer loop
      vertex 31.000000 4.066839 4.000000
      vertex 30.820772 4.000000 4.000000
      vertex 31.000000 4.000000 4.000000
    endloop
  endfacet
  facet normal 0.000000 -0.000000 1.000000
    outer loop
      vertex 30.813947 4.000000 4.000000
      vertex 17.186053 4.000000 4.000000
      vertex 78.870552 2.838420 4.000000
    endloop
  endfacet
  facet normal 0.000000 -0.000000 1.000000
    outer loop
      vertex 17.186053 4.000000 4.000000
      vertex 17.179228 4.000000 4.000000
      vertex 78.870552 2.838420 4.000000
    endloop
  endfacet
  facet normal 0.000000 0.000000 1.000000
    outer loop
      vertex 30.443333 7.850838 4.000000
      vertex 30.554958 7.939856 4.000000
      vertex 30.301162 7.863933 4.000000
    endloop
  endfacet
  facet normal 0.000000 0.000000 1.000000
    outer loop
      vertex 18.801938 5.870400 4.000000
      vertex 29.198062 6.714994 4.000000
      vertex 29.198062 6.857767 4.000000
    endloop
  endfacet
  facet normal -0.000000 0.000000 1.000000
    outer loop
      vertex 17.179228 4.000000 4.000000
      vertex 17.000000 4.066839 4.000000
      vertex 17.000000 4.000000 4.000000
    endloop
  endfacet
  facet normal 0.000000 0.000000 1.000000
    outer loop
      vertex 44.000000 9.741033 4.000000
      vertex 18.801938 6.857767 4.000000
      vertex 18.801938 6.714994 4.000000
    endloop
  endfacet
  facet normal 0.000000 -0.000000 1.000000
    outer loop
      vertex 17.445042 4.040144 4.000000
      vertex 17.186053 4.000000 4.000000
      vertex 30.554958 4.040144 4.000000
    endloop
  endfacet
  facet normal -0.000000 0.000000 1.000000
    outer loop
      vertex 44.000000 9.741033 4.000000
      vertex 44.000000 12.990000 4.000000
      vertex 18.216997 7.324242 4.000000
    endloop
  endfacet
  facet normal 0.000000 0.000000 1.000000
    outer loop
      vertex 18.029983 4.506619 4.000000
      vertex 30.554958 4.040144 4.000000
      vertex 29.970017 4.506619 4.000000
    endloop
  endfacet
  facet normal 0.000000 0.000000 1.000000
    outer loop
      vertex 18.671444 4.891694 4.000000
      vertex 29.328556 4.891694 4.000000
      vertex 29.309687 5.033215 4.000000
    endloop
  endfacet
  facet normal 0.000000 -0.000000 1.000000
    outer loop
      vertex 18.029983 4.506619 4.000000
      vertex 17.445042 4.040144 4.000000
      vertex 30.554958 4.040144 4.000000
    endloop
  endfacet
  facet normal 0.000000 0.000000 1.000000
    outer loop
      vertex 18.801938 5.870400 4.000000
      vertex 29.099181 6.612004 4.000000
      vertex 29.198062 6.714994 4.000000
    endloop
  endfacet
  facet normal 0.000000 0.000000 1.000000
    outer loop
      vertex 18.801938 5.870400 4.000000
      vertex 29.198062 5.870400 4.000000
      vertex 29.099181 6.612004 4.000000
    endloop
  endfacet
  facet normal 0.000000 0.000000 1.000000
    outer loop
      vertex 30.745828 7.896291 4.000000
      vertex 30.735673 7.972456 4.000000
      vertex 30.554958 7.939856 4.000000
    endloop
  endfacet
  facet normal 0.000000 0.000000 1.000000
    outer loop
      vertex 44.000000 9.741033 4.000000
      vertex 18.801938 6.714994 4.000000
      vertex 18.900819 6.612004 4.000000
    endloop
  endfacet
  facet normal 0.000000 -0.000000 1.000000
    outer loop
      vertex 18.801938 5.870400 4.000000
      vertex 18.801938 5.122233 4.000000
      vertex 29.198062 5.870400 4.000000
    endloop
  endfacet
  facet normal 0.000000 0.000000 1.000000
    outer loop
      vertex 18.900819 6.612004 4.000000
      vertex 30.554958 7.939856 4.000000
      vertex 30.735673 7.972456 4.000000
    endloop
  endfacet
  facet normal 0.000000 -0.000000 1.000000
    outer loop
      vertex 17.305848 4.071914 4.000000
      vertex 17.186053 4.000000 4.000000
      vertex 17.445042 4.040144 4.000000
    endloop
  endfacet
  facet normal 0.000000 0.000000 1.000000
    outer loop
      vertex 43.974984 12.990000 4.000000
      vertex 43.975047 12.988752 4.000000
      vertex 44.000000 12.990000 4.000000
    endloop
  endfacet
  facet normal 0.000000 0.000000 1.000000
    outer loop
      vertex 17.445042 7.939856 4.000000
      vertex 17.556667 7.850838 4.000000
      vertex 43.975047 12.988752 4.000000
    endloop
  endfacet
  facet normal 0.000000 0.000000 1.000000
    outer loop
      vertex 4.000000 9.741033 4.000000
      vertex 17.264327 7.972456 4.000000
      vertex 24.000000 11.990000 4.000000
    endloop
  endfacet
  facet normal 0.000000 0.000000 1.000000
    outer loop
      vertex 17.698838 7.863933 4.000000
      vertex 18.216997 7.324242 4.000000
      vertex 44.000000 12.990000 4.000000
    endloop
  endfacet
  facet normal 0.000000 -0.000000 1.000000
    outer loop
      vertex 4.024953 12.988752 4.000000
      vertex 4.000000 9.741033 4.000000
      vertex 24.000000 11.990000 4.000000
    endloop
  endfacet
  facet normal 0.000000 -0.000000 1.000000
    outer loop
      vertex 4.000000 12.990000 4.000000
      vertex 4.000000 9.741033 4.000000
      vertex 4.024953 12.988752 4.000000
    endloop
  endfacet
  facet normal 0.000000 0.000000 1.000000
    outer loop
      vertex 4.000000 12.990000 4.000000
      vertex 4.024953 12.988752 4.000000
      vertex 4.025016 12.990000 4.000000
    endloop
  endfacet
  facet normal 0.000000 -0.000000 1.000000
    outer loop
      vertex 17.264327 7.972456 4.000000
      vertex 17.254172 7.896291 4.000000
      vertex 17.445042 7.939856 4.000000
    endloop
  endfacet
  facet normal 0.000000 0.000000 1.000000
    outer loop
      vertex 18.900819 6.612004 4.000000
      vertex 29.783003 7.324242 4.000000
      vertex 30.301162 7.863933 4.000000
    endloop
  endfacet
  facet normal 0.000000 -0.000000 1.000000
    outer loop
      vertex 18.900819 6.612004 4.000000
      vertex 18.801938 5.870400 4.000000
      vertex 29.783003 7.324242 4.000000
    endloop
  endfacet
  facet normal 0.000000 0.000000 1.000000
    outer loop
      vertex 18.900819 6.612004 4.000000
      vertex 30.301162 7.863933 4.000000
      vertex 30.554958 7.939856 4.000000
    endloop
  endfacet
  facet normal 0.000000 0.000000 1.000000
    outer loop
      vertex 43.975047 12.988752 4.000000
      vertex 24.000000 11.990000 4.000000
      vertex 17.264327 7.972456 4.000000
    endloop
  endfacet
  facet normal 0.000000 0.000000 1.000000
    outer loop
      vertex 29.783003 7.324242 4.000000
      vertex 18.801938 5.870400 4.000000
      vertex 29.198062 6.857767 4.000000
    endloop
  endfacet
  facet normal 0.000000 -0.000000 1.000000
    outer loop
      vertex 18.690313 5.033215 4.000000
      vertex 18.671444 4.891694 4.000000
      vertex 29.198062 5.122233 4.000000
    endloop
  endfacet
  facet normal 0.000000 -0.000000 1.000000
    outer loop
      vertex 29.328556 4.891694 4.000000
      vertex 18.029983 4.506619 4.000000
      vertex 29.970017 4.506619 4.000000
    endloop
  endfacet
  facet normal 0.000000 0.000000 1.000000
    outer loop
      vertex 30.813947 4.000000 4.000000
      vertex 30.694152 4.071914 4.000000
      vertex 30.554958 4.040144 4.000000
    endloop
  endfacet
  facet normal 0.000000 -0.000000 1.000000
    outer loop
      vertex 30.554958 4.040144 4.000000
      vertex 17.186053 4.000000 4.000000
      vertex 30.813947 4.000000 4.000000
    endloop
  endfacet
  facet normal 0.000000 -0.000000 1.000000
    outer loop
      vertex 17.179228 4.000000 4.000000
      vertex 17.000000 4.000000 4.000000
      vertex 78.870552 2.838420 4.000000
    endloop
  endfacet
  facet normal 0.000000 -0.000000 1.000000
    outer loop
      vertex 17.000000 4.000000 4.000000
      vertex 0.000000 4.000000 4.000000
      vertex 78.870552 2.838420 4.000000
    endloop
  endfacet
  facet normal -0.000000 0.000000 1.000000
    outer loop
      vertex 61.500000 4.000000 4.000000
      vertex 59.732233 4.732233 4.000000
      vertex 49.807612 4.000000 4.000000
    endloop
  endfacet
  facet normal -0.000000 0.000000 1.000000
    outer loop
      vertex 73.500000 4.000000 4.000000
      vertex 63.267767 4.732233 4.000000
      vertex 61.500000 4.000000 4.000000
    endloop
  endfacet
  facet normal 0.000000 0.000000 1.000000
    outer loop
      vertex 44.000000 9.741033 4.000000
      vertex 18.216997 7.324242 4.000000
      vertex 18.801938 6.857767 4.000000
    endloop
  endfacet
  facet normal -0.000000 0.000000 1.000000
    outer loop
      vertex 71.732233 8.267767 4.000000
      vertex 61.500000 9.000000 4.000000
      vertex 63.267767 8.267767 4.000000
    endloop
  endfacet
  facet normal 0.000000 -0.000000 1.000000
    outer loop
      vertex 77.552684 11.581905 4.000000
      vertex 61.500000 9.000000 4.000000
      vertex 78.870552 10.161580 4.000000
    endloop
  endfacet
  facet normal 0.000000 -0.000000 1.000000
    outer loop
      vertex 75.267767 4.732233 4.000000
      vertex 73.500000 4.000000 4.000000
      vertex 79.711223 4.584091 4.000000
    endloop
  endfacet
  facet normal 0.000000 -0.000000 1.000000
    outer loop
      vertex 73.500000 4.000000 4.000000
      vertex 61.500000 4.000000 4.000000
      vertex 78.870552 2.838420 4.000000
    endloop
  endfacet
  facet normal 0.000000 0.000000 1.000000
    outer loop
      vertex 61.500000 9.000000 4.000000
      vertex 73.500000 9.000000 4.000000
      vertex 78.870552 10.161580 4.000000
    endloop
  endfacet
  facet normal -0.000000 0.000000 1.000000
    outer loop
      vertex 71.000000 6.500000 4.000000
      vertex 71.732233 8.267767 4.000000
      vertex 64.000000 6.500000 4.000000
    endloop
  endfacet
  facet normal 0.000000 0.000000 1.000000
    outer loop
      vertex 71.732233 8.267767 4.000000
      vertex 73.500000 9.000000 4.000000
      vertex 61.500000 9.000000 4.000000
    endloop
  endfacet
  facet normal 0.000000 -0.000000 1.000000
    outer loop
      vertex 78.870552 10.161580 4.000000
      vertex 73.500000 9.000000 4.000000
      vertex 79.711223 8.415909 4.000000
    endloop
  endfacet
  facet normal 0.000000 0.000000 1.000000
    outer loop
      vertex 75.267767 8.267767 4.000000
      vertex 76.000000 6.500000 4.000000
      vertex 79.711223 8.415909 4.000000
    endloop
  endfacet
  facet normal 0.000000 -0.000000 1.000000
    outer loop
      vertex 79.711223 8.415909 4.000000
      vertex 76.000000 6.500000 4.000000
      vertex 80.000000 6.500000 4.000000
    endloop
  endfacet
  facet normal 0.000000 0.000000 1.000000
    outer loop
      vertex 80.000000 6.500000 4.000000
      vertex 75.267767 4.732233 4.000000
      vertex 79.711223 4.584091 4.000000
    endloop
  endfacet
  facet normal 0.000000 0.000000 1.000000
    outer loop
      vertex 79.711223 4.584091 4.000000
      vertex 73.500000 4.000000 4.000000
      vertex 78.870552 2.838420 4.000000
    endloop
  endfacet
  facet normal -0.000000 0.000000 1.000000
    outer loop
      vertex 71.732233 4.732233 4.000000
      vertex 71.000000 6.500000 4.000000
      vertex 63.267767 4.732233 4.000000
    endloop
  endfacet
  facet normal 0.000000 -0.000000 1.000000
    outer loop
      vertex 60.053614 12.837031 4.000000
      vertex 58.250000 12.129165 4.000000
      vertex 61.500000 12.945423 4.000000
    endloop
  endfacet
  facet normal 0.000000 0.000000 1.000000
    outer loop
      vertex 29.198062 5.122233 4.000000
      vertex 18.801938 5.122233 4.000000
      vertex 18.690313 5.033215 4.000000
    endloop
  endfacet
  facet normal -0.000000 0.000000 1.000000
    outer loop
      vertex 29.198062 5.122233 4.000000
      vertex 29.198062 5.870400 4.000000
      vertex 18.801938 5.122233 4.000000
    endloop
  endfacet
  facet normal 0.000000 0.000000 1.000000
    outer loop
      vertex 18.671444 4.891694 4.000000
      vertex 29.309687 5.033215 4.000000
      vertex 29.198062 5.122233 4.000000
    endloop
  endfacet
  facet normal 0.000000 -0.000000 1.000000
    outer loop
      vertex 18.671444 4.891694 4.000000
      vertex 18.029983 4.506619 4.000000
      vertex 29.328556 4.891694 4.000000
    endloop
  endfacet
  facet normal 0.000000 0.000000 1.000000
    outer loop
      vertex 56.926384 11.073616 4.000000
      vertex 73.500000 12.945423 4.000000
      vertex 73.500000 13.000000 4.000000
    endloop
  endfacet
  facet normal 0.000000 0.000000 1.000000
    outer loop
      vertex 56.926384 11.073616 4.000000
      vertex 73.985746 12.981825 4.000000
      vertex 73.500000 12.945423 4.000000
    endloop
  endfacet
  facet normal 0.000000 0.000000 1.000000
    outer loop
      vertex 56.926384 11.073616 4.000000
      vertex 75.874717 12.550679 4.000000
      vertex 73.985746 12.981825 4.000000
    endloop
  endfacet
  facet normal 0.000000 0.000000 1.000000
    outer loop
      vertex 56.926384 11.073616 4.000000
      vertex 77.552684 11.581905 4.000000
      vertex 75.874717 12.550679 4.000000
    endloop
  endfacet
  facet normal 0.000000 0.000000 1.000000
    outer loop
      vertex 56.926384 11.073616 4.000000
      vertex 61.500000 9.000000 4.000000
      vertex 77.552684 11.581905 4.000000
    endloop
  endfacet
  facet normal 0.000000 0.000000 1.000000
    outer loop
      vertex 63.267767 8.267767 4.000000
      vertex 64.000000 6.500000 4.000000
      vertex 71.732233 8.267767 4.000000
    endloop
  endfacet
  facet normal 0.000000 0.000000 1.000000
    outer loop
      vertex 56.926384 11.073616 4.000000
      vertex 59.732233 8.267767 4.000000
      vertex 61.500000 9.000000 4.000000
    endloop
  endfacet
  facet normal 0.000000 0.000000 0.000000
    outer loop
      vertex 56.903806 11.096194 4.000000
      vertex 59.732233 8.267767 4.000000
      vertex 56.926384 11.073616 4.000000
    endloop
  endfacet
  facet normal 0.000000 -0.000000 1.000000
    outer loop
      vertex 76.000000 6.500000 4.000000
      vertex 75.267767 4.732233 4.000000
      vertex 80.000000 6.500000 4.000000
    endloop
  endfacet
  facet normal 0.000000 -0.000000 1.000000
    outer loop
      vertex 64.000000 6.500000 4.000000
      vertex 63.267767 4.732233 4.000000
      vertex 71.000000 6.500000 4.000000
    endloop
  endfacet
  facet normal 0.000000 0.000000 1.000000
    outer loop
      vertex 56.903806 11.096194 4.000000
      vertex 59.000000 6.500000 4.000000
      vertex 59.732233 8.267767 4.000000
    endloop
  endfacet
  facet normal 0.000000 0.000000 1.000000
    outer loop
      vertex 73.500000 4.000000 4.000000
      vertex 71.732233 4.732233 4.000000
      vertex 63.267767 4.732233 4.000000
    endloop
  endfacet
  facet normal 0.000000 0.000000 1.000000
    outer loop
      vertex 56.903806 11.096194 4.000000
      vertex 59.732233 4.732233 4.000000
      vertex 59.000000 6.500000 4.000000
    endloop
  endfacet
  facet normal 0.000000 -0.000000 1.000000
    outer loop
      vertex 56.903806 11.096194 4.000000
      vertex 49.807612 4.000000 4.000000
      vertex 59.732233 4.732233 4.000000
    endloop
  endfacet
  facet normal 1.000000 0.000000 -0.000000
    outer loop
      vertex 73.500000 0.000000 4.000000
      vertex 73.500000 0.000000 0.000000
      vertex 73.500000 0.054577 0.000000
    endloop
  endfacet
  facet normal 1.000000 0.000000 0.000000
    outer loop
      vertex 73.500000 0.054577 4.000000
      vertex 73.500000 0.000000 4.000000
      vertex 73.500000 0.054577 0.000000
    endloop
  endfacet
  facet normal -0.074730 -0.997204 0.000000
    outer loop
      vertex 73.500000 0.054577 4.000000
      vertex 73.500000 0.054577 0.000000
      vertex 73.985746 0.018175 0.000000
    endloop
  endfacet
  facet normal -0.074730 -0.997204 0.000000
    outer loop
      vertex 73.985746 0.018175 4.000000
      vertex 73.500000 0.054577 4.000000
      vertex 73.985746 0.018175 0.000000
    endloop
  endfacet
  facet normal 0.222521 -0.974928 0.000000
    outer loop
      vertex 73.985746 0.018175 4.000000
      vertex 73.985746 0.018175 0.000000
      vertex 75.874717 0.449321 0.000000
    endloop
  endfacet
  facet normal 0.222521 -0.974928 0.000000
    outer loop
      vertex 75.874717 0.449321 4.000000
      vertex 73.985746 0.018175 4.000000
      vertex 75.874717 0.449321 0.000000
    endloop
  endfacet
  facet normal 0.500000 -0.866026 0.000000
    outer loop
      vertex 75.874717 0.449321 4.000000
      vertex 75.874717 0.449321 0.000000
      vertex 77.552684 1.418095 0.000000
    endloop
  endfacet
  facet normal 0.500000 -0.866026 0.000000
    outer loop
      vertex 77.552684 1.418095 4.000000
      vertex 75.874717 0.449321 4.000000
      vertex 77.552684 1.418095 0.000000
    endloop
  endfacet
  facet normal 0.733052 -0.680172 0.000000
    outer loop
      vertex 77.552684 1.418095 4.000000
      vertex 77.552684 1.418095 0.000000
      vertex 78.870552 2.838420 0.000000
    endloop
  endfacet
  facet normal 0.733052 -0.680172 0.000000
    outer loop
      vertex 78.870552 2.838420 4.000000
      vertex 77.552684 1.418095 4.000000
      vertex 78.870552 2.838420 0.000000
    endloop
  endfacet
  facet normal 0.900969 -0.433884 0.000000
    outer loop
      vertex 78.870552 2.838420 4.000000
      vertex 78.870552 2.838420 0.000000
      vertex 79.711223 4.584091 0.000000
    endloop
  endfacet
  facet normal 0.900969 -0.433884 0.000000
    outer loop
      vertex 79.711223 4.584091 4.000000
      vertex 78.870552 2.838420 4.000000
      vertex 79.711223 4.584091 0.000000
    endloop
  endfacet
  facet normal 0.988831 -0.149042 0.000000
    outer loop
      vertex 79.711223 4.584091 4.000000
      vertex 79.711223 4.584091 0.000000
      vertex 80.000000 6.500000 0.000000
    endloop
  endfacet
  facet normal 0.988831 -0.149042 0.000000
    outer loop
      vertex 80.000000 6.500000 4.000000
      vertex 79.711223 4.584091 4.000000
      vertex 80.000000 6.500000 0.000000
    endloop
  endfacet
  facet normal 0.988831 0.149042 0.000000
    outer loop
      vertex 80.000000 6.500000 0.000000
      vertex 79.711223 8.415909 0.000000
      vertex 79.711223 8.415909 4.000000
    endloop
  endfacet
  facet normal 0.988831 0.149042 -0.000000
    outer loop
      vertex 80.000000 6.500000 4.000000
      vertex 80.000000 6.500000 0.000000
      vertex 79.711223 8.415909 4.000000
    endloop
  endfacet
  facet normal 0.900969 0.433884 0.000000
    outer loop
      vertex 79.711223 8.415909 0.000000
      vertex 78.870552 10.161580 0.000000
      vertex 78.870552 10.161580 4.000000
    endloop
  endfacet
  facet normal 0.900969 0.433884 -0.000000
    outer loop
      vertex 79.711223 8.415909 4.000000
      vertex 79.711223 8.415909 0.000000
      vertex 78.870552 10.161580 4.000000
    endloop
  endfacet
  facet normal 0.733052 0.680172 0.000000
    outer loop
      vertex 78.870552 10.161580 0.000000
      vertex 77.552684 11.581905 0.000000
      vertex 77.552684 11.581905 4.000000
    endloop
  endfacet
  facet normal 0.733052 0.680172 -0.000000
    outer loop
      vertex 78.870552 10.161580 4.000000
      vertex 78.870552 10.161580 0.000000
      vertex 77.552684 11.581905 4.000000
    endloop
  endfacet
  facet normal 0.500000 0.866026 0.000000
    outer loop
      vertex 75.874717 12.550679 0.000000
      vertex 75.874717 12.550679 4.000000
      vertex 77.552684 11.581905 0.000000
    endloop
  endfacet
  facet normal 0.500000 0.866026 0.000000
    outer loop
      vertex 77.552684 11.581905 0.000000
      vertex 75.874717 12.550679 4.000000
      vertex 77.552684 11.581905 4.000000
    endloop
  endfacet
  facet normal 0.222521 0.974928 0.000000
    outer loop
      vertex 73.985746 12.981825 0.000000
      vertex 73.985746 12.981825 4.000000
      vertex 75.874717 12.550679 0.000000
    endloop
  endfacet
  facet normal 0.222521 0.974928 0.000000
    outer loop
      vertex 75.874717 12.550679 0.000000
      vertex 73.985746 12.981825 4.000000
      vertex 75.874717 12.550679 4.000000
    endloop
  endfacet
  facet normal -0.074730 0.997204 0.000000
    outer loop
      vertex 73.500000 12.945423 0.000000
      vertex 73.500000 12.945423 4.000000
      vertex 73.985746 12.981825 0.000000
    endloop
  endfacet
  facet normal -0.074730 0.997204 0.000000
    outer loop
      vertex 73.985746 12.981825 0.000000
      vertex 73.500000 12.945423 4.000000
      vertex 73.985746 12.981825 4.000000
    endloop
  endfacet
  facet normal 1.000000 0.000000 -0.000000
    outer loop
      vertex 73.500000 12.945423 4.000000
      vertex 73.500000 12.945423 0.000000
      vertex 73.500000 13.000000 0.000000
    endloop
  endfacet
  facet normal 1.000000 0.000000 0.000000
    outer loop
      vertex 73.500000 13.000000 4.000000
      vertex 73.500000 12.945423 4.000000
      vertex 73.500000 13.000000 0.000000
    endloop
  endfacet
  facet normal 0.000000 1.000000 0.000000
    outer loop
      vertex 61.500000 13.000000 0.000000
      vertex 61.500000 13.000000 4.000000
      vertex 73.500000 13.000000 0.000000
    endloop
  endfacet
  facet normal 0.000000 1.000000 0.000000
    outer loop
      vertex 73.500000 13.000000 0.000000
      vertex 61.500000 13.000000 4.000000
      vertex 73.500000 13.000000 4.000000
    endloop
  endfacet
  facet normal -1.000000 -0.000000 -0.000000
    outer loop
      vertex 61.500000 12.945423 0.000000
      vertex 61.500000 12.945423 4.000000
      vertex 61.500000 13.000000 0.000000
    endloop
  endfacet
  facet normal -1.000000 0.000000 0.000000
    outer loop
      vertex 61.500000 13.000000 0.000000
      vertex 61.500000 12.945423 4.000000
      vertex 61.500000 13.000000 4.000000
    endloop
  endfacet
  facet normal -0.074730 0.997204 0.000000
    outer loop
      vertex 60.053614 12.837031 0.000000
      vertex 60.053614 12.837031 4.000000
      vertex 61.500000 12.945423 0.000000
    endloop
  endfacet
  facet normal -0.074730 0.997204 0.000000
    outer loop
      vertex 61.500000 12.945423 0.000000
      vertex 60.053614 12.837031 4.000000
      vertex 61.500000 12.945423 4.000000
    endloop
  endfacet
  facet normal -0.365341 0.930874 0.000000
    outer loop
      vertex 58.250000 12.129165 0.000000
      vertex 58.250000 12.129165 4.000000
      vertex 60.053614 12.837031 0.000000
    endloop
  endfacet
  facet normal -0.365341 0.930874 0.000000
    outer loop
      vertex 60.053614 12.837031 0.000000
      vertex 58.250000 12.129165 4.000000
      vertex 60.053614 12.837031 4.000000
    endloop
  endfacet
  facet normal -0.623490 0.781832 0.000000
    outer loop
      vertex 56.926384 11.073616 0.000000
      vertex 56.926384 11.073616 4.000000
      vertex 58.250000 12.129165 0.000000
    endloop
  endfacet
  facet normal -0.623490 0.781832 0.000000
    outer loop
      vertex 58.250000 12.129165 0.000000
      vertex 56.926384 11.073616 4.000000
      vertex 58.250000 12.129165 4.000000
    endloop
  endfacet
  facet normal 0.707107 0.707107 0.000000
    outer loop
      vertex 56.926384 11.073616 0.000000
      vertex 56.903806 11.096194 0.000000
      vertex 56.903806 11.096194 4.000000
    endloop
  endfacet
  facet normal 0.707107 0.707107 -0.000000
    outer loop
      vertex 56.926384 11.073616 4.000000
      vertex 56.926384 11.073616 0.000000
      vertex 56.903806 11.096194 4.000000
    endloop
  endfacet
  facet normal -0.707107 0.707107 0.000000
    outer loop
      vertex 49.807612 4.000000 0.000000
      vertex 49.807612 4.000000 4.000000
      vertex 56.903806 11.096194 0.000000
    endloop
  endfacet
  facet normal -0.707107 0.707107 0.000000
    outer loop
      vertex 56.903806 11.096194 0.000000
      vertex 49.807612 4.000000 4.000000
      vertex 56.903806 11.096194 4.000000
    endloop
  endfacet
  facet normal 0.000000 1.000000 0.000000
    outer loop
      vertex 31.000000 4.000000 0.000000
      vertex 31.000000 4.000000 4.000000
      vertex 49.807612 4.000000 0.000000
    endloop
  endfacet
  facet normal 0.000000 1.000000 0.000000
    outer loop
      vertex 49.807612 4.000000 0.000000
      vertex 31.000000 4.000000 4.000000
      vertex 49.807612 4.000000 4.000000
    endloop
  endfacet
  facet normal 1.000000 0.000000 0.000000
    outer loop
      vertex 31.000000 4.066839 0.000000
      vertex 31.000000 4.066839 4.000000
      vertex 31.000000 4.000000 4.000000
    endloop
  endfacet
  facet normal 1.000000 0.000000 0.000000
    outer loop
      vertex 31.000000 4.000000 0.000000
      vertex 31.000000 4.066839 0.000000
      vertex 31.000000 4.000000 4.000000
    endloop
  endfacet
  facet normal -0.349419 0.936967 0.000000
    outer loop
      vertex 31.000000 4.066839 4.000000
      vertex 31.000000 4.066839 0.000000
      vertex 30.820772 4.000000 4.000000
    endloop
  endfacet
  facet normal -0.349419 0.936967 0.000000
    outer loop
      vertex 30.820772 4.000000 4.000000
      vertex 31.000000 4.066839 0.000000
      vertex 30.820772 4.000000 0.000000
    endloop
  endfacet
  facet normal 0.000000 1.000000 0.000000
    outer loop
      vertex 30.813947 4.000000 0.000000
      vertex 30.813947 4.000000 4.000000
      vertex 30.820772 4.000000 0.000000
    endloop
  endfacet
  facet normal 0.000000 1.000000 0.000000
    outer loop
      vertex 30.820772 4.000000 0.000000
      vertex 30.813947 4.000000 4.000000
      vertex 30.820772 4.000000 4.000000
    endloop
  endfacet
  facet normal 0.514691 0.857376 -0.000000
    outer loop
      vertex 30.813947 4.000000 4.000000
      vertex 30.813947 4.000000 0.000000
      vertex 30.694152 4.071914 4.000000
    endloop
  endfacet
  facet normal 0.514691 0.857376 -0.000000
    outer loop
      vertex 30.694152 4.071914 4.000000
      vertex 30.813947 4.000000 0.000000
      vertex 30.694152 4.071914 0.000000
    endloop
  endfacet
  facet normal -0.222521 0.974928 0.000000
    outer loop
      vertex 30.694152 4.071914 4.000000
      vertex 30.694152 4.071914 0.000000
      vertex 30.554958 4.040144 4.000000
    endloop
  endfacet
  facet normal -0.222521 0.974928 0.000000
    outer loop
      vertex 30.554958 4.040144 4.000000
      vertex 30.694152 4.071914 0.000000
      vertex 30.554958 4.040144 0.000000
    endloop
  endfacet
  facet normal 0.623490 0.781831 -0.000000
    outer loop
      vertex 30.554958 4.040144 4.000000
      vertex 30.554958 4.040144 0.000000
      vertex 29.970017 4.506619 4.000000
    endloop
  endfacet
  facet normal 0.623490 0.781831 -0.000000
    outer loop
      vertex 29.970017 4.506619 4.000000
      vertex 30.554958 4.040144 0.000000
      vertex 29.970017 4.506619 0.000000
    endloop
  endfacet
  facet normal 0.514691 0.857376 -0.000000
    outer loop
      vertex 29.970017 4.506619 4.000000
      vertex 29.970017 4.506619 0.000000
      vertex 29.328556 4.891694 4.000000
    endloop
  endfacet
  facet normal 0.514691 0.857376 -0.000000
    outer loop
      vertex 29.328556 4.891694 4.000000
      vertex 29.970017 4.506619 0.000000
      vertex 29.328556 4.891694 0.000000
    endloop
  endfacet
  facet normal 0.991228 0.132164 0.000000
    outer loop
      vertex 29.309687 5.033215 4.000000
      vertex 29.328556 4.891694 4.000000
      vertex 29.328556 4.891694 0.000000
    endloop
  endfacet
  facet normal 0.991228 0.132164 0.000000
    outer loop
      vertex 29.309687 5.033215 0.000000
      vertex 29.309687 5.033215 4.000000
      vertex 29.328556 4.891694 0.000000
    endloop
  endfacet
  facet normal 0.623490 0.781831 -0.000000
    outer loop
      vertex 29.309687 5.033215 4.000000
      vertex 29.309687 5.033215 0.000000
      vertex 29.198062 5.122233 4.000000
    endloop
  endfacet
  facet normal 0.623490 0.781831 -0.000000
    outer loop
      vertex 29.198062 5.122233 4.000000
      vertex 29.309687 5.033215 0.000000
      vertex 29.198062 5.122233 0.000000
    endloop
  endfacet
  facet normal 1.000000 0.000000 0.000000
    outer loop
      vertex 29.198062 5.870400 0.000000
      vertex 29.198062 5.870400 4.000000
      vertex 29.198062 5.122233 4.000000
    endloop
  endfacet
  facet normal 1.000000 0.000000 0.000000
    outer loop
      vertex 29.198062 5.122233 0.000000
      vertex 29.198062 5.870400 0.000000
      vertex 29.198062 5.122233 4.000000
    endloop
  endfacet
  facet normal 0.991228 0.132164 0.000000
    outer loop
      vertex 29.099181 6.612004 4.000000
      vertex 29.198062 5.870400 4.000000
      vertex 29.198062 5.870400 0.000000
    endloop
  endfacet
  facet normal 0.991228 0.132164 0.000000
    outer loop
      vertex 29.099181 6.612004 0.000000
      vertex 29.099181 6.612004 4.000000
      vertex 29.198062 5.870400 0.000000
    endloop
  endfacet
  facet normal 0.721350 -0.692570 0.000000
    outer loop
      vertex 29.198062 6.714994 0.000000
      vertex 29.198062 6.714994 4.000000
      vertex 29.099181 6.612004 4.000000
    endloop
  endfacet
  facet normal 0.721350 -0.692570 0.000000
    outer loop
      vertex 29.099181 6.612004 0.000000
      vertex 29.198062 6.714994 0.000000
      vertex 29.099181 6.612004 4.000000
    endloop
  endfacet
  facet normal 1.000000 0.000000 0.000000
    outer loop
      vertex 29.198062 6.857767 0.000000
      vertex 29.198062 6.857767 4.000000
      vertex 29.198062 6.714994 4.000000
    endloop
  endfacet
  facet normal 1.000000 0.000000 0.000000
    outer loop
      vertex 29.198062 6.714994 0.000000
      vertex 29.198062 6.857767 0.000000
      vertex 29.198062 6.714994 4.000000
    endloop
  endfacet
  facet normal 0.623490 -0.781831 0.000000
    outer loop
      vertex 29.783003 7.324242 0.000000
      vertex 29.783003 7.324242 4.000000
      vertex 29.198062 6.857767 4.000000
    endloop
  endfacet
  facet normal 0.623490 -0.781831 0.000000
    outer loop
      vertex 29.198062 6.857767 0.000000
      vertex 29.783003 7.324242 0.000000
      vertex 29.198062 6.857767 4.000000
    endloop
  endfacet
  facet normal 0.721350 -0.692570 0.000000
    outer loop
      vertex 30.301162 7.863933 0.000000
      vertex 30.301162 7.863933 4.000000
      vertex 29.783003 7.324242 4.000000
    endloop
  endfacet
  facet normal 0.721350 -0.692570 0.000000
    outer loop
      vertex 29.783003 7.324242 0.000000
      vertex 30.301162 7.863933 0.000000
      vertex 29.783003 7.324242 4.000000
    endloop
  endfacet
  facet normal -0.091719 -0.995785 -0.000000
    outer loop
      vertex 30.443333 7.850838 0.000000
      vertex 30.443333 7.850838 4.000000
      vertex 30.301162 7.863933 4.000000
    endloop
  endfacet
  facet normal -0.091719 -0.995785 -0.000000
    outer loop
      vertex 30.301162 7.863933 0.000000
      vertex 30.443333 7.850838 0.000000
      vertex 30.301162 7.863933 4.000000
    endloop
  endfacet
  facet normal 0.623490 -0.781831 0.000000
    outer loop
      vertex 30.554958 7.939856 0.000000
      vertex 30.554958 7.939856 4.000000
      vertex 30.443333 7.850838 4.000000
    endloop
  endfacet
  facet normal 0.623490 -0.781831 0.000000
    outer loop
      vertex 30.443333 7.850838 0.000000
      vertex 30.554958 7.939856 0.000000
      vertex 30.443333 7.850838 4.000000
    endloop
  endfacet
  facet normal -0.222521 -0.974928 -0.000000
    outer loop
      vertex 30.745828 7.896291 0.000000
      vertex 30.745828 7.896291 4.000000
      vertex 30.554958 7.939856 4.000000
    endloop
  endfacet
  facet normal -0.222521 -0.974928 -0.000000
    outer loop
      vertex 30.554958 7.939856 0.000000
      vertex 30.745828 7.896291 0.000000
      vertex 30.554958 7.939856 4.000000
    endloop
  endfacet
  facet normal 0.991228 0.132164 0.000000
    outer loop
      vertex 30.735673 7.972456 4.000000
      vertex 30.745828 7.896291 4.000000
      vertex 30.745828 7.896291 0.000000
    endloop
  endfacet
  facet normal 0.991228 0.132164 0.000000
    outer loop
      vertex 30.735673 7.972456 0.000000
      vertex 30.735673 7.972456 4.000000
      vertex 30.745828 7.896291 0.000000
    endloop
  endfacet
  facet normal 0.132164 -0.991228 0.000000
    outer loop
      vertex 44.000000 9.741033 0.000000
      vertex 44.000000 9.741033 4.000000
      vertex 30.735673 7.972456 4.000000
    endloop
  endfacet
  facet normal 0.132164 -0.991228 0.000000
    outer loop
      vertex 30.735673 7.972456 0.000000
      vertex 44.000000 9.741033 0.000000
      vertex 30.735673 7.972456 4.000000
    endloop
  endfacet
  facet normal 1.000000 0.000000 -0.000000
    outer loop
      vertex 44.000000 9.741033 4.000000
      vertex 44.000000 9.741033 0.000000
      vertex 44.000000 12.990000 0.000000
    endloop
  endfacet
  facet normal 1.000000 0.000000 0.000000
    outer loop
      vertex 44.000000 12.990000 4.000000
      vertex 44.000000 9.741033 4.000000
      vertex 44.000000 12.990000 0.000000
    endloop
  endfacet
  facet normal 0.000000 1.000000 0.000000
    outer loop
      vertex 43.974984 12.990000 0.000000
      vertex 43.974984 12.990000 4.000000
      vertex 44.000000 12.990000 0.000000
    endloop
  endfacet
  facet normal 0.000000 1.000000 0.000000
    outer loop
      vertex 44.000000 12.990000 0.000000
      vertex 43.974984 12.990000 4.000000
      vertex 44.000000 12.990000 4.000000
    endloop
  endfacet
  facet normal -0.998752 -0.049938 0.000000
    outer loop
      vertex 43.975047 12.988752 4.000000
      vertex 43.974984 12.990000 4.000000
      vertex 43.975047 12.988752 0.000000
    endloop
  endfacet
  facet normal -0.998752 -0.049938 0.000000
    outer loop
      vertex 43.975047 12.988752 0.000000
      vertex 43.974984 12.990000 4.000000
      vertex 43.974984 12.990000 0.000000
    endloop
  endfacet
  facet normal -0.049938 0.998752 0.000000
    outer loop
      vertex 43.975047 12.988752 4.000000
      vertex 43.975047 12.988752 0.000000
      vertex 24.000000 11.990000 4.000000
    endloop
  endfacet
  facet normal -0.049938 0.998752 0.000000
    outer loop
      vertex 24.000000 11.990000 4.000000
      vertex 43.975047 12.988752 0.000000
      vertex 24.000000 11.990000 0.000000
    endloop
  endfacet
  facet normal 0.049938 0.998752 0.000000
    outer loop
      vertex 4.024953 12.988752 0.000000
      vertex 4.024953 12.988752 4.000000
      vertex 24.000000 11.990000 0.000000
    endloop
  endfacet
  facet normal 0.049938 0.998752 0.000000
    outer loop
      vertex 24.000000 11.990000 0.000000
      vertex 4.024953 12.988752 4.000000
      vertex 24.000000 11.990000 4.000000
    endloop
  endfacet
  facet normal 0.998752 -0.049938 0.000000
    outer loop
      vertex 4.024953 12.988752 4.000000
      vertex 4.024953 12.988752 0.000000
      vertex 4.025016 12.990000 0.000000
    endloop
  endfacet
  facet normal 0.998752 -0.049938 0.000000
    outer loop
      vertex 4.025016 12.990000 4.000000
      vertex 4.024953 12.988752 4.000000
      vertex 4.025016 12.990000 0.000000
    endloop
  endfacet
  facet normal 0.000000 1.000000 0.000000
    outer loop
      vertex 4.000000 12.990000 0.000000
      vertex 4.000000 12.990000 4.000000
      vertex 4.025016 12.990000 0.000000
    endloop
  endfacet
  facet normal 0.000000 1.000000 0.000000
    outer loop
      vertex 4.025016 12.990000 0.000000
      vertex 4.000000 12.990000 4.000000
      vertex 4.025016 12.990000 4.000000
    endloop
  endfacet
  facet normal -1.000000 -0.000000 -0.000000
    outer loop
      vertex 4.000000 9.741033 0.000000
      vertex 4.000000 9.741033 4.000000
      vertex 4.000000 12.990000 0.000000
    endloop
  endfacet
  facet normal -1.000000 0.000000 0.000000
    outer loop
      vertex 4.000000 12.990000 0.000000
      vertex 4.000000 9.741033 4.000000
      vertex 4.000000 12.990000 4.000000
    endloop
  endfacet
  facet normal -0.132164 -0.991228 0.000000
    outer loop
      vertex 4.000000 9.741033 4.000000
      vertex 4.000000 9.741033 0.000000
      vertex 17.264327 7.972456 0.000000
    endloop
  endfacet
  facet normal -0.132164 -0.991228 0.000000
    outer loop
      vertex 17.264327 7.972456 4.000000
      vertex 4.000000 9.741033 4.000000
      vertex 17.264327 7.972456 0.000000
    endloop
  endfacet
  facet normal -0.991228 0.132164 0.000000
    outer loop
      vertex 17.254172 7.896291 0.000000
      vertex 17.254172 7.896291 4.000000
      vertex 17.264327 7.972456 0.000000
    endloop
  endfacet
  facet normal -0.991228 0.132164 0.000000
    outer loop
      vertex 17.264327 7.972456 0.000000
      vertex 17.254172 7.896291 4.000000
      vertex 17.264327 7.972456 4.000000
    endloop
  endfacet
  facet normal 0.222521 -0.974928 0.000000
    outer loop
      vertex 17.254172 7.896291 4.000000
      vertex 17.254172 7.896291 0.000000
      vertex 17.445042 7.939856 0.000000
    endloop
  endfacet
  facet normal 0.222521 -0.974928 0.000000
    outer loop
      vertex 17.445042 7.939856 4.000000
      vertex 17.254172 7.896291 4.000000
      vertex 17.445042 7.939856 0.000000
    endloop
  endfacet
  facet normal -0.623490 -0.781831 0.000000
    outer loop
      vertex 17.445042 7.939856 4.000000
      vertex 17.445042 7.939856 0.000000
      vertex 17.556667 7.850838 0.000000
    endloop
  endfacet
  facet normal -0.623490 -0.781831 0.000000
    outer loop
      vertex 17.556667 7.850838 4.000000
      vertex 17.445042 7.939856 4.000000
      vertex 17.556667 7.850838 0.000000
    endloop
  endfacet
  facet normal 0.091719 -0.995785 0.000000
    outer loop
      vertex 17.556667 7.850838 4.000000
      vertex 17.556667 7.850838 0.000000
      vertex 17.698838 7.863933 0.000000
    endloop
  endfacet
  facet normal 0.091719 -0.995785 0.000000
    outer loop
      vertex 17.698838 7.863933 4.000000
      vertex 17.556667 7.850838 4.000000
      vertex 17.698838 7.863933 0.000000
    endloop
  endfacet
  facet normal -0.721350 -0.692570 -0.000000
    outer loop
      vertex 17.698838 7.863933 0.000000
      vertex 18.216997 7.324242 0.000000
      vertex 17.698838 7.863933 4.000000
    endloop
  endfacet
  facet normal -0.721350 -0.692570 0.000000
    outer loop
      vertex 17.698838 7.863933 4.000000
      vertex 18.216997 7.324242 0.000000
      vertex 18.216997 7.324242 4.000000
    endloop
  endfacet
  facet normal -0.623490 -0.781831 0.000000
    outer loop
      vertex 18.216997 7.324242 4.000000
      vertex 18.216997 7.324242 0.000000
      vertex 18.801938 6.857767 0.000000
    endloop
  endfacet
  facet normal -0.623490 -0.781831 0.000000
    outer loop
      vertex 18.801938 6.857767 4.000000
      vertex 18.216997 7.324242 4.000000
      vertex 18.801938 6.857767 0.000000
    endloop
  endfacet
  facet normal -1.000000 -0.000000 -0.000000
    outer loop
      vertex 18.801938 6.714994 0.000000
      vertex 18.801938 6.714994 4.000000
      vertex 18.801938 6.857767 0.000000
    endloop
  endfacet
  facet normal -1.000000 0.000000 0.000000
    outer loop
      vertex 18.801938 6.857767 0.000000
      vertex 18.801938 6.714994 4.000000
      vertex 18.801938 6.857767 4.000000
    endloop
  endfacet
  facet normal -0.721350 -0.692570 -0.000000
    outer loop
      vertex 18.801938 6.714994 0.000000
      vertex 18.900819 6.612004 0.000000
      vertex 18.801938 6.714994 4.000000
    endloop
  endfacet
  facet normal -0.721350 -0.692570 0.000000
    outer loop
      vertex 18.801938 6.714994 4.000000
      vertex 18.900819 6.612004 0.000000
      vertex 18.900819 6.612004 4.000000
    endloop
  endfacet
  facet normal -0.991228 0.132164 0.000000
    outer loop
      vertex 18.801938 5.870400 0.000000
      vertex 18.801938 5.870400 4.000000
      vertex 18.900819 6.612004 0.000000
    endloop
  endfacet
  facet normal -0.991228 0.132164 0.000000
    outer loop
      vertex 18.900819 6.612004 0.000000
      vertex 18.801938 5.870400 4.000000
      vertex 18.900819 6.612004 4.000000
    endloop
  endfacet
  facet normal -1.000000 -0.000000 -0.000000
    outer loop
      vertex 18.801938 5.122233 0.000000
      vertex 18.801938 5.122233 4.000000
      vertex 18.801938 5.870400 0.000000
    endloop
  endfacet
  facet normal -1.000000 0.000000 0.000000
    outer loop
      vertex 18.801938 5.870400 0.000000
      vertex 18.801938 5.122233 4.000000
      vertex 18.801938 5.870400 4.000000
    endloop
  endfacet
  facet normal -0.623490 0.781831 0.000000
    outer loop
      vertex 18.690313 5.033215 0.000000
      vertex 18.690313 5.033215 4.000000
      vertex 18.801938 5.122233 0.000000
    endloop
  endfacet
  facet normal -0.623490 0.781831 0.000000
    outer loop
      vertex 18.801938 5.122233 0.000000
      vertex 18.690313 5.033215 4.000000
      vertex 18.801938 5.122233 4.000000
    endloop
  endfacet
  facet normal -0.991228 0.132164 0.000000
    outer loop
      vertex 18.671444 4.891694 0.000000
      vertex 18.671444 4.891694 4.000000
      vertex 18.690313 5.033215 0.000000
    endloop
  endfacet
  facet normal -0.991228 0.132164 0.000000
    outer loop
      vertex 18.690313 5.033215 0.000000
      vertex 18.671444 4.891694 4.000000
      vertex 18.690313 5.033215 4.000000
    endloop
  endfacet
  facet normal -0.514691 0.857376 0.000000
    outer loop
      vertex 18.029983 4.506619 0.000000
      vertex 18.029983 4.506619 4.000000
      vertex 18.671444 4.891694 0.000000
    endloop
  endfacet
  facet normal -0.514691 0.857376 0.000000
    outer loop
      vertex 18.671444 4.891694 0.000000
      vertex 18.029983 4.506619 4.000000
      vertex 18.671444 4.891694 4.000000
    endloop
  endfacet
  facet normal -0.623490 0.781831 0.000000
    outer loop
      vertex 17.445042 4.040144 0.000000
      vertex 17.445042 4.040144 4.000000
      vertex 18.029983 4.506619 0.000000
    endloop
  endfacet
  facet normal -0.623490 0.781831 0.000000
    outer loop
      vertex 18.029983 4.506619 0.000000
      vertex 17.445042 4.040144 4.000000
      vertex 18.029983 4.506619 4.000000
    endloop
  endfacet
  facet normal 0.222521 0.974928 0.000000
    outer loop
      vertex 17.305848 4.071914 0.000000
      vertex 17.305848 4.071914 4.000000
      vertex 17.445042 4.040144 0.000000
    endloop
  endfacet
  facet normal 0.222521 0.974928 0.000000
    outer loop
      vertex 17.445042 4.040144 0.000000
      vertex 17.305848 4.071914 4.000000
      vertex 17.445042 4.040144 4.000000
    endloop
  endfacet
  facet normal -0.514691 0.857376 0.000000
    outer loop
      vertex 17.186053 4.000000 0.000000
      vertex 17.186053 4.000000 4.000000
      vertex 17.305848 4.071914 0.000000
    endloop
  endfacet
  facet normal -0.514691 0.857376 0.000000
    outer loop
      vertex 17.305848 4.071914 0.000000
      vertex 17.186053 4.000000 4.000000
      vertex 17.305848 4.071914 4.000000
    endloop
  endfacet
  facet normal 0.000000 1.000000 0.000000
    outer loop
      vertex 17.179228 4.000000 0.000000
      vertex 17.179228 4.000000 4.000000
      vertex 17.186053 4.000000 0.000000
    endloop
  endfacet
  facet normal 0.000000 1.000000 0.000000
    outer loop
      vertex 17.186053 4.000000 0.000000
      vertex 17.179228 4.000000 4.000000
      vertex 17.186053 4.000000 4.000000
    endloop
  endfacet
  facet normal 0.349419 0.936967 0.000000
    outer loop
      vertex 17.000000 4.066839 0.000000
      vertex 17.000000 4.066839 4.000000
      vertex 17.179228 4.000000 0.000000
    endloop
  endfacet
  facet normal 0.349419 0.936967 0.000000
    outer loop
      vertex 17.179228 4.000000 0.000000
      vertex 17.000000 4.066839 4.000000
      vertex 17.179228 4.000000 4.000000
    endloop
  endfacet
  facet normal -1.000000 -0.000000 -0.000000
    outer loop
      vertex 17.000000 4.000000 0.000000
      vertex 17.000000 4.000000 4.000000
      vertex 17.000000 4.066839 0.000000
    endloop
  endfacet
  facet normal -1.000000 0.000000 0.000000
    outer loop
      vertex 17.000000 4.066839 0.000000
      vertex 17.000000 4.000000 4.000000
      vertex 17.000000 4.066839 4.000000
    endloop
  endfacet
  facet normal 0.923880 -0.382683 0.000000
    outer loop
      vertex 59.732233 8.267767 0.000000
      vertex 59.732233 8.267767 4.000000
      vertex 59.000000 6.500000 4.000000
    endloop
  endfacet
  facet normal 0.923880 -0.382683 0.000000
    outer loop
      vertex 59.000000 6.500000 0.000000
      vertex 59.732233 8.267767 0.000000
      vertex 59.000000 6.500000 4.000000
    endloop
  endfacet
  facet normal 0.923880 0.382683 0.000000
    outer loop
      vertex 59.000000 6.500000 4.000000
      vertex 59.732233 4.732233 4.000000
      vertex 59.732233 4.732233 0.000000
    endloop
  endfacet
  facet normal 0.923880 0.382683 0.000000
    outer loop
      vertex 59.000000 6.500000 0.000000
      vertex 59.000000 6.500000 4.000000
      vertex 59.732233 4.732233 0.000000
    endloop
  endfacet
  facet normal 0.382683 -0.923880 0.000000
    outer loop
      vertex 61.500000 9.000000 0.000000
      vertex 61.500000 9.000000 4.000000
      vertex 59.732233 8.267767 4.000000
    endloop
  endfacet
  facet normal 0.382683 -0.923880 0.000000
    outer loop
      vertex 59.732233 8.267767 0.000000
      vertex 61.500000 9.000000 0.000000
      vertex 59.732233 8.267767 4.000000
    endloop
  endfacet
  facet normal -0.382683 -0.923880 -0.000000
    outer loop
      vertex 63.267767 8.267767 0.000000
      vertex 63.267767 8.267767 4.000000
      vertex 61.500000 9.000000 4.000000
    endloop
  endfacet
  facet normal -0.382683 -0.923880 -0.000000
    outer loop
      vertex 61.500000 9.000000 0.000000
      vertex 63.267767 8.267767 0.000000
      vertex 61.500000 9.000000 4.000000
    endloop
  endfacet
  facet normal -0.923880 -0.382683 0.000000
    outer loop
      vertex 64.000000 6.500000 4.000000
      vertex 63.267767 8.267767 4.000000
      vertex 64.000000 6.500000 0.000000
    endloop
  endfacet
  facet normal -0.923880 -0.382683 0.000000
    outer loop
      vertex 64.000000 6.500000 0.000000
      vertex 63.267767 8.267767 4.000000
      vertex 63.267767 8.267767 0.000000
    endloop
  endfacet
  facet normal -0.923880 0.382683 0.000000
    outer loop
      vertex 64.000000 6.500000 4.000000
      vertex 64.000000 6.500000 0.000000
      vertex 63.267767 4.732233 4.000000
    endloop
  endfacet
  facet normal -0.923880 0.382683 0.000000
    outer loop
      vertex 63.267767 4.732233 4.000000
      vertex 64.000000 6.500000 0.000000
      vertex 63.267767 4.732233 0.000000
    endloop
  endfacet
  facet normal -0.382683 0.923880 0.000000
    outer loop
      vertex 63.267767 4.732233 4.000000
      vertex 63.267767 4.732233 0.000000
      vertex 61.500000 4.000000 4.000000
    endloop
  endfacet
  facet normal -0.382683 0.923880 0.000000
    outer loop
      vertex 61.500000 4.000000 4.000000
      vertex 63.267767 4.732233 0.000000
      vertex 61.500000 4.000000 0.000000
    endloop
  endfacet
  facet normal 0.382683 0.923880 -0.000000
    outer loop
      vertex 61.500000 4.000000 4.000000
      vertex 61.500000 4.000000 0.000000
      vertex 59.732233 4.732233 4.000000
    endloop
  endfacet
  facet normal 0.382683 0.923880 -0.000000
    outer loop
      vertex 59.732233 4.732233 4.000000
      vertex 61.500000 4.000000 0.000000
      vertex 59.732233 4.732233 0.000000
    endloop
  endfacet
  facet normal 0.923880 -0.382683 0.000000
    outer loop
      vertex 71.732233 8.267767 0.000000
      vertex 71.732233 8.267767 4.000000
      vertex 71.000000 6.500000 4.000000
    endloop
  endfacet
  facet normal 0.923880 -0.382683 0.000000
    outer loop
      vertex 71.000000 6.500000 0.000000
      vertex 71.732233 8.267767 0.000000
      vertex 71.000000 6.500000 4.000000
    endloop
  endfacet
  facet normal 0.923880 0.382683 0.000000
    outer loop
      vertex 71.000000 6.500000 4.000000
      vertex 71.732233 4.732233 4.000000
      vertex 71.732233 4.732233 0.000000
    endloop
  endfacet
  facet normal 0.923880 0.382683 0.000000
    outer loop
      vertex 71.000000 6.500000 0.000000
      vertex 71.000000 6.500000 4.000000
      vertex 71.732233 4.732233 0.000000
    endloop
  endfacet
  facet normal 0.382683 -0.923880 0.000000
    outer loop
      vertex 73.500000 9.000000 0.000000
      vertex 73.500000 9.000000 4.000000
      vertex 71.732233 8.267767 4.000000
    endloop
  endfacet
  facet normal 0.382683 -0.923880 0.000000
    outer loop
      vertex 71.732233 8.267767 0.000000
      vertex 73.500000 9.000000 0.000000
      vertex 71.732233 8.267767 4.000000
    endloop
  endfacet
  facet normal -0.382683 -0.923880 -0.000000
    outer loop
      vertex 75.267767 8.267767 0.000000
      vertex 75.267767 8.267767 4.000000
      vertex 73.500000 9.000000 4.000000
    endloop
  endfacet
  facet normal -0.382683 -0.923880 -0.000000
    outer loop
      vertex 73.500000 9.000000 0.000000
      vertex 75.267767 8.267767 0.000000
      vertex 73.500000 9.000000 4.000000
    endloop
  endfacet
  facet normal -0.923880 -0.382683 0.000000
    outer loop
      vertex 76.000000 6.500000 4.000000
      vertex 75.267767 8.267767 4.000000
      vertex 76.000000 6.500000 0.000000
    endloop
  endfacet
  facet normal -0.923880 -0.382683 0.000000
    outer loop
      vertex 76.000000 6.500000 0.000000
      vertex 75.267767 8.267767 4.000000
      vertex 75.267767 8.267767 0.000000
    endloop
  endfacet
  facet normal -0.923880 0.382683 0.000000
    outer loop
      vertex 76.000000 6.500000 4.000000
      vertex 76.000000 6.500000 0.000000
      vertex 75.267767 4.732233 4.000000
    endloop
  endfacet
  facet normal -0.923880 0.382683 0.000000
    outer loop
      vertex 75.267767 4.732233 4.000000
      vertex 76.000000 6.500000 0.000000
      vertex 75.267767 4.732233 0.000000
    endloop
  endfacet
  facet normal -0.382683 0.923880 0.000000
    outer loop
      vertex 75.267767 4.732233 4.000000
      vertex 75.267767 4.732233 0.000000
      vertex 73.500000 4.000000 4.000000
    endloop
  endfacet
  facet normal -0.382683 0.923880 0.000000
    outer loop
      vertex 73.500000 4.000000 4.000000
      vertex 75.267767 4.732233 0.000000
      vertex 73.500000 4.000000 0.000000
    endloop
  endfacet
  facet normal 0.382683 0.923880 -0.000000
    outer loop
      vertex 73.500000 4.000000 4.000000
      vertex 73.500000 4.000000 0.000000
      vertex 71.732233 4.732233 4.000000
    endloop
  endfacet
  facet normal 0.382683 0.923880 -0.000000
    outer loop
      vertex 71.732233 4.732233 4.000000
      vertex 73.500000 4.000000 0.000000
      vertex 71.732233 4.732233 0.000000
    endloop
  endfacet
endsolid OpenSCAD_Model
