solid OpenSCAD_Model
  facet normal -1.000000 -0.000000 -0.000000
    outer loop
      vertex 0.000000 0.000000 0.000000
      vertex 0.000000 0.000000 3.000000
      vertex 0.000000 3.000000 0.000000
    endloop
  endfacet
  facet normal -1.000000 0.000000 0.000000
    outer loop
      vertex 0.000000 3.000000 0.000000
      vertex 0.000000 0.000000 3.000000
      vertex 0.000000 3.000000 3.000000
    endloop
  endfacet
  facet normal 0.000000 -1.000000 0.000000
    outer loop
      vertex 0.000000 0.000000 3.000000
      vertex 0.000000 0.000000 0.000000
      vertex 95.000000 0.000000 0.000000
    endloop
  endfacet
  facet normal 0.000000 -1.000000 0.000000
    outer loop
      vertex 95.000000 0.000000 3.000000
      vertex 0.000000 0.000000 3.000000
      vertex 95.000000 0.000000 0.000000
    endloop
  endfacet
  facet normal -0.000000 -0.000000 -1.000000
    outer loop
      vertex 0.000000 0.000000 0.000000
      vertex 0.000000 3.000000 0.000000
      vertex 95.000000 0.000000 0.000000
    endloop
  endfacet
  facet normal 0.000000 0.000000 -1.000000
    outer loop
      vertex 95.000000 0.000000 0.000000
      vertex 0.000000 3.000000 0.000000
      vertex 18.500000 3.000000 0.000000
    endloop
  endfacet
  facet normal 0.000000 0.000000 -1.000000
    outer loop
      vertex 95.000000 0.000000 0.000000
      vertex 18.500000 3.000000 0.000000
      vertex 18.500000 3.214024 0.000000
    endloop
  endfacet
  facet normal 0.000000 0.000000 -1.000000
    outer loop
      vertex 95.000000 0.000000 0.000000
      vertex 18.500000 3.214024 0.000000
      vertex 18.798397 3.310979 0.000000
    endloop
  endfacet
  facet normal 0.000000 0.000000 -1.000000
    outer loop
      vertex 95.000000 0.000000 0.000000
      vertex 18.798397 3.310979 0.000000
      vertex 19.586354 3.455672 0.000000
    endloop
  endfacet
  facet normal 0.000000 0.000000 -1.000000
    outer loop
      vertex 65.928932 3.000000 0.000000
      vertex 95.000000 0.000000 0.000000
      vertex 31.500000 3.000000 0.000000
    endloop
  endfacet
  facet normal 0.000000 0.000000 -1.000000
    outer loop
      vertex 31.500000 3.000000 0.000000
      vertex 19.601870 3.572043 0.000000
      vertex 19.713525 3.608322 0.000000
    endloop
  endfacet
  facet normal 0.000000 0.000000 -1.000000
    outer loop
      vertex 30.286475 4.409455 0.000000
      vertex 19.713525 4.409455 0.000000
      vertex 19.819406 5.203560 0.000000
    endloop
  endfacet
  facet normal 0.000000 0.000000 -1.000000
    outer loop
      vertex 30.286475 4.409455 0.000000
      vertex 19.819406 5.203560 0.000000
      vertex 19.713525 5.254277 0.000000
    endloop
  endfacet
  facet normal 0.000000 0.000000 -1.000000
    outer loop
      vertex 31.301754 5.976842 0.000000
      vertex 5.000000 7.803275 0.000000
      vertex 5.000000 10.990000 0.000000
    endloop
  endfacet
  facet normal 0.000000 -0.000000 -1.000000
    outer loop
      vertex 5.024953 10.988752 0.000000
      vertex 5.000000 10.990000 0.000000
      vertex 5.025016 10.990000 0.000000
    endloop
  endfacet
  facet normal 0.000000 0.000000 -1.000000
    outer loop
      vertex 30.286475 4.409455 0.000000
      vertex 19.713525 5.371678 0.000000
      vertex 18.951603 5.619242 0.000000
    endloop
  endfacet
  facet normal 0.000000 0.000000 -1.000000
    outer loop
      vertex 45.000000 7.803275 0.000000
      vertex 44.975047 10.988752 0.000000
      vertex 45.000000 10.990000 0.000000
    endloop
  endfacet
  facet normal 0.000000 -0.000000 -1.000000
    outer loop
      vertex 44.975047 10.988752 0.000000
      vertex 44.974984 10.990000 0.000000
      vertex 45.000000 10.990000 0.000000
    endloop
  endfacet
  facet normal 0.000000 0.000000 -1.000000
    outer loop
      vertex 45.000000 7.803275 0.000000
      vertex 25.000000 9.990000 0.000000
      vertex 44.975047 10.988752 0.000000
    endloop
  endfacet
  facet normal 0.000000 0.000000 -1.000000
    outer loop
      vertex 75.000000 3.000000 0.000000
      vertex 95.000000 0.000000 0.000000
      vertex 65.928932 3.000000 0.000000
    endloop
  endfacet
  facet normal 0.000000 0.000000 -1.000000
    outer loop
      vertex 30.286475 4.409455 0.000000
      vertex 18.698246 5.976842 0.000000
      vertex 30.180594 5.203560 0.000000
    endloop
  endfacet
  facet normal 0.000000 0.000000 -1.000000
    outer loop
      vertex 31.301754 5.976842 0.000000
      vertex 5.000000 10.990000 0.000000
      vertex 5.024953 10.988752 0.000000
    endloop
  endfacet
  facet normal 0.000000 0.000000 -1.000000
    outer loop
      vertex 31.331362 5.754783 0.000000
      vertex 5.000000 7.803275 0.000000
      vertex 31.301754 5.976842 0.000000
    endloop
  endfacet
  facet normal 0.000000 -0.000000 -1.000000
    outer loop
      vertex 30.286475 5.371678 0.000000
      vertex 5.000000 7.803275 0.000000
      vertex 31.048397 5.619242 0.000000
    endloop
  endfacet
  facet normal 0.000000 -0.000000 -1.000000
    outer loop
      vertex 31.048397 5.619242 0.000000
      vertex 5.000000 7.803275 0.000000
      vertex 31.331362 5.754783 0.000000
    endloop
  endfacet
  facet normal 0.000000 0.000000 -1.000000
    outer loop
      vertex 30.286475 4.409455 0.000000
      vertex 19.713525 5.254277 0.000000
      vertex 19.713525 5.371678 0.000000
    endloop
  endfacet
  facet normal 0.000000 0.000000 -1.000000
    outer loop
      vertex 71.464466 8.535533 0.000000
      vertex 73.000000 5.000000 0.000000
      vertex 73.585786 3.585786 0.000000
    endloop
  endfacet
  facet normal -0.000000 -0.000000 -1.000000
    outer loop
      vertex 18.698246 5.976842 0.000000
      vertex 5.000000 7.803275 0.000000
      vertex 30.286475 5.371678 0.000000
    endloop
  endfacet
  facet normal 0.000000 0.000000 -1.000000
    outer loop
      vertex 73.585786 3.585786 0.000000
      vertex 75.000000 3.000000 0.000000
      vertex 65.928932 3.000000 0.000000
    endloop
  endfacet
  facet normal 0.000000 0.000000 -1.000000
    outer loop
      vertex 18.698246 5.976842 0.000000
      vertex 30.286475 5.371678 0.000000
      vertex 30.286475 5.254277 0.000000
    endloop
  endfacet
  facet normal 0.000000 0.000000 -1.000000
    outer loop
      vertex 71.464466 8.535533 0.000000
      vertex 73.585786 3.585786 0.000000
      vertex 65.928932 3.000000 0.000000
    endloop
  endfacet
  facet normal 0.000000 0.000000 -1.000000
    outer loop
      vertex 18.698246 5.976842 0.000000
      vertex 30.286475 5.254277 0.000000
      vertex 30.180594 5.203560 0.000000
    endloop
  endfacet
  facet normal 0.000000 0.000000 -1.000000
    outer loop
      vertex 31.500000 3.000000 0.000000
      vertex 19.713525 3.608322 0.000000
      vertex 31.500000 3.214024 0.000000
    endloop
  endfacet
  facet normal 0.000000 0.000000 -1.000000
    outer loop
      vertex 30.286475 3.608322 0.000000
      vertex 19.713525 4.409455 0.000000
      vertex 30.286475 4.409455 0.000000
    endloop
  endfacet
  facet normal -0.000000 -0.000000 -1.000000
    outer loop
      vertex 19.713525 3.608322 0.000000
      vertex 19.713525 4.409455 0.000000
      vertex 30.286475 3.608322 0.000000
    endloop
  endfacet
  facet normal 0.000000 0.000000 -1.000000
    outer loop
      vertex 19.713525 3.608322 0.000000
      vertex 30.286475 3.608322 0.000000
      vertex 30.398130 3.572043 0.000000
    endloop
  endfacet
  facet normal 0.000000 0.000000 -1.000000
    outer loop
      vertex 19.713525 3.608322 0.000000
      vertex 30.398130 3.572043 0.000000
      vertex 30.413646 3.455672 0.000000
    endloop
  endfacet
  facet normal 0.000000 0.000000 -1.000000
    outer loop
      vertex 19.713525 3.608322 0.000000
      vertex 30.413646 3.455672 0.000000
      vertex 31.201603 3.310979 0.000000
    endloop
  endfacet
  facet normal 0.000000 0.000000 -1.000000
    outer loop
      vertex 19.713525 3.608322 0.000000
      vertex 31.201603 3.310979 0.000000
      vertex 31.500000 3.214024 0.000000
    endloop
  endfacet
  facet normal -0.000000 0.000000 -1.000000
    outer loop
      vertex 19.586354 3.455672 0.000000
      vertex 19.601870 3.572043 0.000000
      vertex 31.500000 3.000000 0.000000
    endloop
  endfacet
  facet normal 0.000000 0.000000 -1.000000
    outer loop
      vertex 19.586354 3.455672 0.000000
      vertex 31.500000 3.000000 0.000000
      vertex 95.000000 0.000000 0.000000
    endloop
  endfacet
  facet normal 0.000000 0.000000 -1.000000
    outer loop
      vertex 76.414214 3.585786 0.000000
      vertex 95.000000 0.000000 0.000000
      vertex 75.000000 3.000000 0.000000
    endloop
  endfacet
  facet normal 0.000000 0.000000 -1.000000
    outer loop
      vertex 95.000000 0.000000 0.000000
      vertex 71.464466 8.535533 0.000000
      vertex 71.464466 8.535534 0.000000
    endloop
  endfacet
  facet normal 0.000000 0.000000 -1.000000
    outer loop
      vertex 95.000000 0.000000 0.000000
      vertex 71.464466 8.535534 0.000000
      vertex 73.086583 9.619398 0.000000
    endloop
  endfacet
  facet normal 0.000000 0.000000 -1.000000
    outer loop
      vertex 95.000000 0.000000 0.000000
      vertex 73.086583 9.619398 0.000000
      vertex 75.000000 10.000000 0.000000
    endloop
  endfacet
  facet normal 0.000000 -0.000000 -1.000000
    outer loop
      vertex 93.000000 5.000000 0.000000
      vertex 75.000000 10.000000 0.000000
      vertex 95.000000 10.000000 0.000000
    endloop
  endfacet
  facet normal 0.000000 -0.000000 -1.000000
    outer loop
      vertex 95.000000 7.000000 0.000000
      vertex 95.000000 10.000000 0.000000
      vertex 96.913417 9.619398 0.000000
    endloop
  endfacet
  facet normal 0.000000 -0.000000 -1.000000
    outer loop
      vertex 97.000000 5.000000 0.000000
      vertex 96.913417 9.619398 0.000000
      vertex 98.535534 8.535534 0.000000
    endloop
  endfacet
  facet normal 0.000000 0.000000 -1.000000
    outer loop
      vertex 95.000000 0.000000 0.000000
      vertex 98.535534 8.535534 0.000000
      vertex 99.619398 6.913417 0.000000
    endloop
  endfacet
  facet normal 0.000000 0.000000 -1.000000
    outer loop
      vertex 95.000000 0.000000 0.000000
      vertex 99.619398 6.913417 0.000000
      vertex 100.000000 5.000000 0.000000
    endloop
  endfacet
  facet normal 0.000000 0.000000 -1.000000
    outer loop
      vertex 95.000000 0.000000 0.000000
      vertex 100.000000 5.000000 0.000000
      vertex 99.619398 3.086583 0.000000
    endloop
  endfacet
  facet normal 0.000000 0.000000 -1.000000
    outer loop
      vertex 95.000000 0.000000 0.000000
      vertex 99.619398 3.086583 0.000000
      vertex 98.535534 1.464466 0.000000
    endloop
  endfacet
  facet normal 0.000000 0.000000 -1.000000
    outer loop
      vertex 95.000000 0.000000 0.000000
      vertex 98.535534 1.464466 0.000000
      vertex 96.913417 0.380602 0.000000
    endloop
  endfacet
  facet normal 0.000000 0.000000 -1.000000
    outer loop
      vertex 73.585786 6.414214 0.000000
      vertex 73.000000 5.000000 0.000000
      vertex 71.464466 8.535533 0.000000
    endloop
  endfacet
  facet normal 0.000000 0.000000 -1.000000
    outer loop
      vertex 31.301754 5.976842 0.000000
      vertex 5.024953 10.988752 0.000000
      vertex 25.000000 9.990000 0.000000
    endloop
  endfacet
  facet normal 0.000000 0.000000 -1.000000
    outer loop
      vertex 30.286475 4.409455 0.000000
      vertex 18.668638 5.754783 0.000000
      vertex 18.698246 5.976842 0.000000
    endloop
  endfacet
  facet normal 0.000000 0.000000 -1.000000
    outer loop
      vertex 77.000000 5.000000 0.000000
      vertex 95.000000 0.000000 0.000000
      vertex 76.414214 3.585786 0.000000
    endloop
  endfacet
  facet normal 0.000000 -0.000000 -1.000000
    outer loop
      vertex 31.301754 5.976842 0.000000
      vertex 25.000000 9.990000 0.000000
      vertex 45.000000 7.803275 0.000000
    endloop
  endfacet
  facet normal 0.000000 -0.000000 -1.000000
    outer loop
      vertex 73.585786 6.414214 0.000000
      vertex 71.464466 8.535533 0.000000
      vertex 75.000000 7.000000 0.000000
    endloop
  endfacet
  facet normal 0.000000 0.000000 -1.000000
    outer loop
      vertex 95.000000 0.000000 0.000000
      vertex 77.000000 5.000000 0.000000
      vertex 76.414214 6.414214 0.000000
    endloop
  endfacet
  facet normal 0.000000 0.000000 -1.000000
    outer loop
      vertex 95.000000 0.000000 0.000000
      vertex 76.414214 6.414214 0.000000
      vertex 71.464466 8.535533 0.000000
    endloop
  endfacet
  facet normal 0.000000 0.000000 -1.000000
    outer loop
      vertex 76.414214 6.414214 0.000000
      vertex 75.000000 7.000000 0.000000
      vertex 71.464466 8.535533 0.000000
    endloop
  endfacet
  facet normal 0.000000 0.000000 -1.000000
    outer loop
      vertex 96.414214 3.585786 0.000000
      vertex 95.000000 0.000000 0.000000
      vertex 95.000000 3.000000 0.000000
    endloop
  endfacet
  facet normal 0.000000 0.000000 -1.000000
    outer loop
      vertex 95.000000 0.000000 0.000000
      vertex 75.000000 10.000000 0.000000
      vertex 93.000000 5.000000 0.000000
    endloop
  endfacet
  facet normal 0.000000 -0.000000 -1.000000
    outer loop
      vertex 93.585786 6.414214 0.000000
      vertex 93.000000 5.000000 0.000000
      vertex 95.000000 10.000000 0.000000
    endloop
  endfacet
  facet normal 0.000000 0.000000 -1.000000
    outer loop
      vertex 95.000000 0.000000 0.000000
      vertex 93.000000 5.000000 0.000000
      vertex 93.585786 3.585786 0.000000
    endloop
  endfacet
  facet normal 0.000000 0.000000 -1.000000
    outer loop
      vertex 95.000000 0.000000 0.000000
      vertex 93.585786 3.585786 0.000000
      vertex 95.000000 3.000000 0.000000
    endloop
  endfacet
  facet normal -0.000000 0.000000 -1.000000
    outer loop
      vertex 95.000000 7.000000 0.000000
      vertex 96.913417 9.619398 0.000000
      vertex 96.414214 6.414214 0.000000
    endloop
  endfacet
  facet normal 0.000000 0.000000 -1.000000
    outer loop
      vertex 95.000000 0.000000 0.000000
      vertex 96.414214 3.585786 0.000000
      vertex 98.535534 8.535534 0.000000
    endloop
  endfacet
  facet normal 0.000000 0.000000 -1.000000
    outer loop
      vertex 96.414214 3.585786 0.000000
      vertex 97.000000 5.000000 0.000000
      vertex 98.535534 8.535534 0.000000
    endloop
  endfacet
  facet normal -0.000000 0.000000 -1.000000
    outer loop
      vertex 96.414214 6.414214 0.000000
      vertex 96.913417 9.619398 0.000000
      vertex 97.000000 5.000000 0.000000
    endloop
  endfacet
  facet normal 0.000000 0.000000 -1.000000
    outer loop
      vertex 93.585786 6.414214 0.000000
      vertex 95.000000 10.000000 0.000000
      vertex 95.000000 7.000000 0.000000
    endloop
  endfacet
  facet normal 0.000000 0.000000 -1.000000
    outer loop
      vertex 30.286475 4.409455 0.000000
      vertex 18.951603 5.619242 0.000000
      vertex 18.668638 5.754783 0.000000
    endloop
  endfacet
  facet normal 0.000000 1.000000 0.000000
    outer loop
      vertex 0.000000 3.000000 0.000000
      vertex 0.000000 3.000000 3.000000
      vertex 18.500000 3.000000 0.000000
    endloop
  endfacet
  facet normal 0.000000 1.000000 0.000000
    outer loop
      vertex 18.500000 3.000000 0.000000
      vertex 0.000000 3.000000 3.000000
      vertex 18.500000 3.000000 3.000000
    endloop
  endfacet
  facet normal 0.000000 -0.000000 1.000000
    outer loop
      vertex 0.000000 3.000000 3.000000
      vertex 0.000000 0.000000 3.000000
      vertex 95.000000 0.000000 3.000000
    endloop
  endfacet
  facet normal -0.000000 0.000000 1.000000
    outer loop
      vertex 98.535534 1.464466 3.000000
      vertex 0.000000 3.000000 3.000000
      vertex 96.913417 0.380602 3.000000
    endloop
  endfacet
  facet normal -0.000000 0.000000 1.000000
    outer loop
      vertex 96.913417 0.380602 3.000000
      vertex 0.000000 3.000000 3.000000
      vertex 95.000000 0.000000 3.000000
    endloop
  endfacet
  facet normal 0.000000 -0.000000 1.000000
    outer loop
      vertex 65.928932 3.000000 3.000000
      vertex 31.500000 3.000000 3.000000
      vertex 98.535534 1.464466 3.000000
    endloop
  endfacet
  facet normal 0.000000 0.000000 1.000000
    outer loop
      vertex 5.000000 7.803275 3.000000
      vertex 18.698246 5.976842 3.000000
      vertex 45.000000 10.990000 3.000000
    endloop
  endfacet
  facet normal 0.000000 -0.000000 1.000000
    outer loop
      vertex 75.000000 10.000000 3.000000
      vertex 73.086583 9.619398 3.000000
      vertex 95.000000 10.000000 3.000000
    endloop
  endfacet
  facet normal 0.000000 0.000000 1.000000
    outer loop
      vertex 19.819406 5.203560 3.000000
      vertex 31.331362 5.754783 3.000000
      vertex 31.301754 5.976842 3.000000
    endloop
  endfacet
  facet normal 0.000000 -0.000000 1.000000
    outer loop
      vertex 73.086583 9.619398 3.000000
      vertex 71.464466 8.535534 3.000000
      vertex 95.000000 10.000000 3.000000
    endloop
  endfacet
  facet normal 0.000000 -0.000000 1.000000
    outer loop
      vertex 71.464466 8.535534 3.000000
      vertex 71.464466 8.535533 3.000000
      vertex 95.000000 10.000000 3.000000
    endloop
  endfacet
  facet normal 0.000000 -0.000000 1.000000
    outer loop
      vertex 75.000000 3.000000 3.000000
      vertex 65.928932 3.000000 3.000000
      vertex 98.535534 1.464466 3.000000
    endloop
  endfacet
  facet normal 0.000000 -0.000000 1.000000
    outer loop
      vertex 31.500000 3.000000 3.000000
      vertex 18.500000 3.000000 3.000000
      vertex 98.535534 1.464466 3.000000
    endloop
  endfacet
  facet normal 0.000000 -0.000000 1.000000
    outer loop
      vertex 18.500000 3.000000 3.000000
      vertex 0.000000 3.000000 3.000000
      vertex 98.535534 1.464466 3.000000
    endloop
  endfacet
  facet normal 0.000000 0.000000 1.000000
    outer loop
      vertex 19.819406 5.203560 3.000000
      vertex 30.286475 5.371678 3.000000
      vertex 31.048397 5.619242 3.000000
    endloop
  endfacet
  facet normal -0.000000 0.000000 1.000000
    outer loop
      vertex 75.000000 3.000000 3.000000
      vertex 73.585786 3.585786 3.000000
      vertex 65.928932 3.000000 3.000000
    endloop
  endfacet
  facet normal 0.000000 0.000000 1.000000
    outer loop
      vertex 19.819406 5.203560 3.000000
      vertex 30.180594 5.203560 3.000000
      vertex 30.286475 5.254277 3.000000
    endloop
  endfacet
  facet normal 0.000000 -0.000000 1.000000
    outer loop
      vertex 19.819406 5.203560 3.000000
      vertex 19.713525 4.409455 3.000000
      vertex 30.180594 5.203560 3.000000
    endloop
  endfacet
  facet normal 0.000000 0.000000 1.000000
    outer loop
      vertex 18.500000 3.214024 3.000000
      vertex 31.500000 3.214024 3.000000
      vertex 31.201603 3.310979 3.000000
    endloop
  endfacet
  facet normal 0.000000 -0.000000 1.000000
    outer loop
      vertex 18.500000 3.214024 3.000000
      vertex 18.500000 3.000000 3.000000
      vertex 31.500000 3.214024 3.000000
    endloop
  endfacet
  facet normal 0.000000 0.000000 1.000000
    outer loop
      vertex 95.000000 7.000000 3.000000
      vertex 96.414214 6.414214 3.000000
      vertex 99.619398 6.913417 3.000000
    endloop
  endfacet
  facet normal 0.000000 -0.000000 1.000000
    outer loop
      vertex 5.000000 10.990000 3.000000
      vertex 5.000000 7.803275 3.000000
      vertex 5.024953 10.988752 3.000000
    endloop
  endfacet
  facet normal 0.000000 0.000000 1.000000
    outer loop
      vertex 19.819406 5.203560 3.000000
      vertex 31.301754 5.976842 3.000000
      vertex 45.000000 7.803275 3.000000
    endloop
  endfacet
  facet normal 0.000000 0.000000 1.000000
    outer loop
      vertex 44.974984 10.990000 3.000000
      vertex 44.975047 10.988752 3.000000
      vertex 45.000000 10.990000 3.000000
    endloop
  endfacet
  facet normal 0.000000 0.000000 1.000000
    outer loop
      vertex 5.000000 10.990000 3.000000
      vertex 5.024953 10.988752 3.000000
      vertex 5.025016 10.990000 3.000000
    endloop
  endfacet
  facet normal 0.000000 0.000000 1.000000
    outer loop
      vertex 19.819406 5.203560 3.000000
      vertex 31.048397 5.619242 3.000000
      vertex 31.331362 5.754783 3.000000
    endloop
  endfacet
  facet normal 0.000000 0.000000 1.000000
    outer loop
      vertex 5.000000 7.803275 3.000000
      vertex 44.975047 10.988752 3.000000
      vertex 25.000000 9.990000 3.000000
    endloop
  endfacet
  facet normal 0.000000 0.000000 1.000000
    outer loop
      vertex 5.000000 7.803275 3.000000
      vertex 45.000000 10.990000 3.000000
      vertex 44.975047 10.988752 3.000000
    endloop
  endfacet
  facet normal 0.000000 -0.000000 1.000000
    outer loop
      vertex 5.024953 10.988752 3.000000
      vertex 5.000000 7.803275 3.000000
      vertex 25.000000 9.990000 3.000000
    endloop
  endfacet
  facet normal 0.000000 0.000000 1.000000
    outer loop
      vertex 45.000000 10.990000 3.000000
      vertex 18.698246 5.976842 3.000000
      vertex 45.000000 7.803275 3.000000
    endloop
  endfacet
  facet normal 0.000000 -0.000000 1.000000
    outer loop
      vertex 18.698246 5.976842 3.000000
      vertex 18.668638 5.754783 3.000000
      vertex 45.000000 7.803275 3.000000
    endloop
  endfacet
  facet normal 0.000000 0.000000 1.000000
    outer loop
      vertex 18.668638 5.754783 3.000000
      vertex 18.951603 5.619242 3.000000
      vertex 45.000000 7.803275 3.000000
    endloop
  endfacet
  facet normal 0.000000 0.000000 1.000000
    outer loop
      vertex 18.951603 5.619242 3.000000
      vertex 19.713525 5.371678 3.000000
      vertex 45.000000 7.803275 3.000000
    endloop
  endfacet
  facet normal 0.000000 -0.000000 1.000000
    outer loop
      vertex 19.713525 5.371678 3.000000
      vertex 19.713525 5.254277 3.000000
      vertex 45.000000 7.803275 3.000000
    endloop
  endfacet
  facet normal 0.000000 0.000000 1.000000
    outer loop
      vertex 19.713525 5.254277 3.000000
      vertex 19.819406 5.203560 3.000000
      vertex 45.000000 7.803275 3.000000
    endloop
  endfacet
  facet normal 0.000000 -0.000000 1.000000
    outer loop
      vertex 19.713525 3.608322 3.000000
      vertex 19.601870 3.572043 3.000000
      vertex 30.286475 3.608322 3.000000
    endloop
  endfacet
  facet normal 0.000000 -0.000000 1.000000
    outer loop
      vertex 19.601870 3.572043 3.000000
      vertex 19.586354 3.455672 3.000000
      vertex 30.286475 3.608322 3.000000
    endloop
  endfacet
  facet normal 0.000000 -0.000000 1.000000
    outer loop
      vertex 30.398130 3.572043 3.000000
      vertex 18.798397 3.310979 3.000000
      vertex 30.413646 3.455672 3.000000
    endloop
  endfacet
  facet normal 0.000000 -0.000000 1.000000
    outer loop
      vertex 30.413646 3.455672 3.000000
      vertex 18.500000 3.214024 3.000000
      vertex 31.201603 3.310979 3.000000
    endloop
  endfacet
  facet normal 0.000000 -0.000000 1.000000
    outer loop
      vertex 19.586354 3.455672 3.000000
      vertex 18.798397 3.310979 3.000000
      vertex 30.398130 3.572043 3.000000
    endloop
  endfacet
  facet normal -0.000000 0.000000 1.000000
    outer loop
      vertex 95.000000 3.000000 3.000000
      vertex 76.414214 3.585786 3.000000
      vertex 75.000000 3.000000 3.000000
    endloop
  endfacet
  facet normal 0.000000 0.000000 1.000000
    outer loop
      vertex 19.819406 5.203560 3.000000
      vertex 30.286475 5.254277 3.000000
      vertex 30.286475 5.371678 3.000000
    endloop
  endfacet
  facet normal 0.000000 -0.000000 1.000000
    outer loop
      vertex 77.000000 5.000000 3.000000
      vertex 76.414214 3.585786 3.000000
      vertex 93.000000 5.000000 3.000000
    endloop
  endfacet
  facet normal 0.000000 -0.000000 1.000000
    outer loop
      vertex 96.414214 3.585786 3.000000
      vertex 95.000000 3.000000 3.000000
      vertex 99.619398 3.086583 3.000000
    endloop
  endfacet
  facet normal 0.000000 -0.000000 1.000000
    outer loop
      vertex 95.000000 3.000000 3.000000
      vertex 75.000000 3.000000 3.000000
      vertex 98.535534 1.464466 3.000000
    endloop
  endfacet
  facet normal 0.000000 0.000000 1.000000
    outer loop
      vertex 75.000000 7.000000 3.000000
      vertex 95.000000 7.000000 3.000000
      vertex 98.535534 8.535534 3.000000
    endloop
  endfacet
  facet normal -0.000000 0.000000 1.000000
    outer loop
      vertex 93.000000 5.000000 3.000000
      vertex 93.585786 6.414214 3.000000
      vertex 77.000000 5.000000 3.000000
    endloop
  endfacet
  facet normal 0.000000 0.000000 1.000000
    outer loop
      vertex 93.585786 6.414214 3.000000
      vertex 95.000000 7.000000 3.000000
      vertex 75.000000 7.000000 3.000000
    endloop
  endfacet
  facet normal 0.000000 0.000000 1.000000
    outer loop
      vertex 96.414214 6.414214 3.000000
      vertex 97.000000 5.000000 3.000000
      vertex 99.619398 6.913417 3.000000
    endloop
  endfacet
  facet normal 0.000000 -0.000000 1.000000
    outer loop
      vertex 98.535534 8.535534 3.000000
      vertex 95.000000 7.000000 3.000000
      vertex 99.619398 6.913417 3.000000
    endloop
  endfacet
  facet normal 0.000000 0.000000 1.000000
    outer loop
      vertex 76.414214 6.414214 3.000000
      vertex 77.000000 5.000000 3.000000
      vertex 93.585786 6.414214 3.000000
    endloop
  endfacet
  facet normal 0.000000 -0.000000 1.000000
    outer loop
      vertex 97.000000 5.000000 3.000000
      vertex 96.414214 3.585786 3.000000
      vertex 100.000000 5.000000 3.000000
    endloop
  endfacet
  facet normal -0.000000 0.000000 1.000000
    outer loop
      vertex 93.585786 6.414214 3.000000
      vertex 75.000000 7.000000 3.000000
      vertex 76.414214 6.414214 3.000000
    endloop
  endfacet
  facet normal 0.000000 -0.000000 1.000000
    outer loop
      vertex 99.619398 6.913417 3.000000
      vertex 97.000000 5.000000 3.000000
      vertex 100.000000 5.000000 3.000000
    endloop
  endfacet
  facet normal 0.000000 0.000000 1.000000
    outer loop
      vertex 100.000000 5.000000 3.000000
      vertex 96.414214 3.585786 3.000000
      vertex 99.619398 3.086583 3.000000
    endloop
  endfacet
  facet normal 0.000000 0.000000 1.000000
    outer loop
      vertex 99.619398 3.086583 3.000000
      vertex 95.000000 3.000000 3.000000
      vertex 98.535534 1.464466 3.000000
    endloop
  endfacet
  facet normal -0.000000 0.000000 1.000000
    outer loop
      vertex 93.585786 3.585786 3.000000
      vertex 93.000000 5.000000 3.000000
      vertex 76.414214 3.585786 3.000000
    endloop
  endfacet
  facet normal -0.000000 0.000000 1.000000
    outer loop
      vertex 31.500000 3.000000 3.000000
      vertex 31.500000 3.214024 3.000000
      vertex 18.500000 3.000000 3.000000
    endloop
  endfacet
  facet normal 0.000000 -0.000000 1.000000
    outer loop
      vertex 18.798397 3.310979 3.000000
      vertex 18.500000 3.214024 3.000000
      vertex 30.413646 3.455672 3.000000
    endloop
  endfacet
  facet normal -0.000000 0.000000 1.000000
    outer loop
      vertex 30.286475 3.608322 3.000000
      vertex 30.286475 4.409455 3.000000
      vertex 19.713525 3.608322 3.000000
    endloop
  endfacet
  facet normal 0.000000 0.000000 1.000000
    outer loop
      vertex 19.586354 3.455672 3.000000
      vertex 30.398130 3.572043 3.000000
      vertex 30.286475 3.608322 3.000000
    endloop
  endfacet
  facet normal -0.000000 0.000000 1.000000
    outer loop
      vertex 30.286475 4.409455 3.000000
      vertex 30.180594 5.203560 3.000000
      vertex 19.713525 4.409455 3.000000
    endloop
  endfacet
  facet normal 0.000000 -0.000000 1.000000
    outer loop
      vertex 19.713525 4.409455 3.000000
      vertex 19.713525 3.608322 3.000000
      vertex 30.286475 4.409455 3.000000
    endloop
  endfacet
  facet normal 0.000000 0.000000 1.000000
    outer loop
      vertex 71.464466 8.535533 3.000000
      vertex 96.913417 9.619398 3.000000
      vertex 95.000000 10.000000 3.000000
    endloop
  endfacet
  facet normal 0.000000 0.000000 1.000000
    outer loop
      vertex 71.464466 8.535533 3.000000
      vertex 98.535534 8.535534 3.000000
      vertex 96.913417 9.619398 3.000000
    endloop
  endfacet
  facet normal 0.000000 0.000000 1.000000
    outer loop
      vertex 71.464466 8.535533 3.000000
      vertex 75.000000 7.000000 3.000000
      vertex 98.535534 8.535534 3.000000
    endloop
  endfacet
  facet normal 0.000000 0.000000 1.000000
    outer loop
      vertex 71.464466 8.535533 3.000000
      vertex 73.585786 6.414214 3.000000
      vertex 75.000000 7.000000 3.000000
    endloop
  endfacet
  facet normal 0.000000 0.000000 1.000000
    outer loop
      vertex 71.464466 8.535533 3.000000
      vertex 73.000000 5.000000 3.000000
      vertex 73.585786 6.414214 3.000000
    endloop
  endfacet
  facet normal 0.000000 0.000000 1.000000
    outer loop
      vertex 95.000000 3.000000 3.000000
      vertex 93.585786 3.585786 3.000000
      vertex 76.414214 3.585786 3.000000
    endloop
  endfacet
  facet normal 0.000000 0.000000 1.000000
    outer loop
      vertex 71.464466 8.535533 3.000000
      vertex 73.585786 3.585786 3.000000
      vertex 73.000000 5.000000 3.000000
    endloop
  endfacet
  facet normal 0.000000 -0.000000 1.000000
    outer loop
      vertex 71.464466 8.535533 3.000000
      vertex 65.928932 3.000000 3.000000
      vertex 73.585786 3.585786 3.000000
    endloop
  endfacet
  facet normal 0.195090 -0.980785 0.000000
    outer loop
      vertex 95.000000 0.000000 3.000000
      vertex 95.000000 0.000000 0.000000
      vertex 96.913417 0.380602 0.000000
    endloop
  endfacet
  facet normal 0.195090 -0.980785 0.000000
    outer loop
      vertex 96.913417 0.380602 3.000000
      vertex 95.000000 0.000000 3.000000
      vertex 96.913417 0.380602 0.000000
    endloop
  endfacet
  facet normal 0.555570 -0.831470 0.000000
    outer loop
      vertex 96.913417 0.380602 3.000000
      vertex 96.913417 0.380602 0.000000
      vertex 98.535534 1.464466 0.000000
    endloop
  endfacet
  facet normal 0.555570 -0.831470 0.000000
    outer loop
      vertex 98.535534 1.464466 3.000000
      vertex 96.913417 0.380602 3.000000
      vertex 98.535534 1.464466 0.000000
    endloop
  endfacet
  facet normal 0.831470 -0.555570 0.000000
    outer loop
      vertex 98.535534 1.464466 3.000000
      vertex 98.535534 1.464466 0.000000
      vertex 99.619398 3.086583 0.000000
    endloop
  endfacet
  facet normal 0.831470 -0.555570 0.000000
    outer loop
      vertex 99.619398 3.086583 3.000000
      vertex 98.535534 1.464466 3.000000
      vertex 99.619398 3.086583 0.000000
    endloop
  endfacet
  facet normal 0.980785 -0.195090 0.000000
    outer loop
      vertex 99.619398 3.086583 3.000000
      vertex 99.619398 3.086583 0.000000
      vertex 100.000000 5.000000 0.000000
    endloop
  endfacet
  facet normal 0.980785 -0.195090 0.000000
    outer loop
      vertex 100.000000 5.000000 3.000000
      vertex 99.619398 3.086583 3.000000
      vertex 100.000000 5.000000 0.000000
    endloop
  endfacet
  facet normal 0.980785 0.195090 0.000000
    outer loop
      vertex 100.000000 5.000000 0.000000
      vertex 99.619398 6.913417 0.000000
      vertex 99.619398 6.913417 3.000000
    endloop
  endfacet
  facet normal 0.980785 0.195090 -0.000000
    outer loop
      vertex 100.000000 5.000000 3.000000
      vertex 100.000000 5.000000 0.000000
      vertex 99.619398 6.913417 3.000000
    endloop
  endfacet
  facet normal 0.831470 0.555570 0.000000
    outer loop
      vertex 99.619398 6.913417 0.000000
      vertex 98.535534 8.535534 0.000000
      vertex 98.535534 8.535534 3.000000
    endloop
  endfacet
  facet normal 0.831470 0.555570 -0.000000
    outer loop
      vertex 99.619398 6.913417 3.000000
      vertex 99.619398 6.913417 0.000000
      vertex 98.535534 8.535534 3.000000
    endloop
  endfacet
  facet normal 0.555570 0.831470 0.000000
    outer loop
      vertex 96.913417 9.619398 0.000000
      vertex 96.913417 9.619398 3.000000
      vertex 98.535534 8.535534 0.000000
    endloop
  endfacet
  facet normal 0.555570 0.831470 0.000000
    outer loop
      vertex 98.535534 8.535534 0.000000
      vertex 96.913417 9.619398 3.000000
      vertex 98.535534 8.535534 3.000000
    endloop
  endfacet
  facet normal 0.195090 0.980785 0.000000
    outer loop
      vertex 95.000000 10.000000 0.000000
      vertex 95.000000 10.000000 3.000000
      vertex 96.913417 9.619398 0.000000
    endloop
  endfacet
  facet normal 0.195090 0.980785 0.000000
    outer loop
      vertex 96.913417 9.619398 0.000000
      vertex 95.000000 10.000000 3.000000
      vertex 96.913417 9.619398 3.000000
    endloop
  endfacet
  facet normal 0.000000 1.000000 0.000000
    outer loop
      vertex 75.000000 10.000000 0.000000
      vertex 75.000000 10.000000 3.000000
      vertex 95.000000 10.000000 0.000000
    endloop
  endfacet
  facet normal 0.000000 1.000000 0.000000
    outer loop
      vertex 95.000000 10.000000 0.000000
      vertex 75.000000 10.000000 3.000000
      vertex 95.000000 10.000000 3.000000
    endloop
  endfacet
  facet normal -0.195090 0.980785 0.000000
    outer loop
      vertex 73.086583 9.619398 0.000000
      vertex 73.086583 9.619398 3.000000
      vertex 75.000000 10.000000 0.000000
    endloop
  endfacet
  facet normal -0.195090 0.980785 0.000000
    outer loop
      vertex 75.000000 10.000000 0.000000
      vertex 73.086583 9.619398 3.000000
      vertex 75.000000 10.000000 3.000000
    endloop
  endfacet
  facet normal -0.555570 0.831470 0.000000
    outer loop
      vertex 71.464466 8.535534 0.000000
      vertex 71.464466 8.535534 3.000000
      vertex 73.086583 9.619398 0.000000
    endloop
  endfacet
  facet normal -0.555570 0.831470 0.000000
    outer loop
      vertex 73.086583 9.619398 0.000000
      vertex 71.464466 8.535534 3.000000
      vertex 73.086583 9.619398 3.000000
    endloop
  endfacet
  facet normal -0.831470 0.555570 0.000000
    outer loop
      vertex 71.464466 8.535533 0.000000
      vertex 71.464466 8.535533 3.000000
      vertex 71.464466 8.535534 0.000000
    endloop
  endfacet
  facet normal -0.831470 0.555570 0.000000
    outer loop
      vertex 71.464466 8.535534 0.000000
      vertex 71.464466 8.535533 3.000000
      vertex 71.464466 8.535534 3.000000
    endloop
  endfacet
  facet normal -0.707107 0.707107 0.000000
    outer loop
      vertex 65.928932 3.000000 0.000000
      vertex 65.928932 3.000000 3.000000
      vertex 71.464466 8.535533 0.000000
    endloop
  endfacet
  facet normal -0.707107 0.707107 0.000000
    outer loop
      vertex 71.464466 8.535533 0.000000
      vertex 65.928932 3.000000 3.000000
      vertex 71.464466 8.535533 3.000000
    endloop
  endfacet
  facet normal 0.000000 1.000000 0.000000
    outer loop
      vertex 31.500000 3.000000 0.000000
      vertex 31.500000 3.000000 3.000000
      vertex 65.928932 3.000000 0.000000
    endloop
  endfacet
  facet normal 0.000000 1.000000 0.000000
    outer loop
      vertex 65.928932 3.000000 0.000000
      vertex 31.500000 3.000000 3.000000
      vertex 65.928932 3.000000 3.000000
    endloop
  endfacet
  facet normal 1.000000 0.000000 0.000000
    outer loop
      vertex 31.500000 3.214024 0.000000
      vertex 31.500000 3.214024 3.000000
      vertex 31.500000 3.000000 3.000000
    endloop
  endfacet
  facet normal 1.000000 0.000000 0.000000
    outer loop
      vertex 31.500000 3.000000 0.000000
      vertex 31.500000 3.214024 0.000000
      vertex 31.500000 3.000000 3.000000
    endloop
  endfacet
  facet normal 0.309017 0.951056 -0.000000
    outer loop
      vertex 31.500000 3.214024 3.000000
      vertex 31.500000 3.214024 0.000000
      vertex 31.201603 3.310979 3.000000
    endloop
  endfacet
  facet normal 0.309017 0.951056 -0.000000
    outer loop
      vertex 31.201603 3.310979 3.000000
      vertex 31.500000 3.214024 0.000000
      vertex 31.201603 3.310979 0.000000
    endloop
  endfacet
  facet normal 0.180611 0.983555 -0.000000
    outer loop
      vertex 31.201603 3.310979 3.000000
      vertex 31.201603 3.310979 0.000000
      vertex 30.413646 3.455672 3.000000
    endloop
  endfacet
  facet normal 0.180611 0.983555 -0.000000
    outer loop
      vertex 30.413646 3.455672 3.000000
      vertex 31.201603 3.310979 0.000000
      vertex 30.413646 3.455672 0.000000
    endloop
  endfacet
  facet normal 0.991228 0.132164 0.000000
    outer loop
      vertex 30.398130 3.572043 3.000000
      vertex 30.413646 3.455672 3.000000
      vertex 30.413646 3.455672 0.000000
    endloop
  endfacet
  facet normal 0.991228 0.132164 0.000000
    outer loop
      vertex 30.398130 3.572043 0.000000
      vertex 30.398130 3.572043 3.000000
      vertex 30.413646 3.455672 0.000000
    endloop
  endfacet
  facet normal 0.309017 0.951056 -0.000000
    outer loop
      vertex 30.398130 3.572043 3.000000
      vertex 30.398130 3.572043 0.000000
      vertex 30.286475 3.608322 3.000000
    endloop
  endfacet
  facet normal 0.309017 0.951056 -0.000000
    outer loop
      vertex 30.286475 3.608322 3.000000
      vertex 30.398130 3.572043 0.000000
      vertex 30.286475 3.608322 0.000000
    endloop
  endfacet
  facet normal 1.000000 0.000000 0.000000
    outer loop
      vertex 30.286475 4.409455 0.000000
      vertex 30.286475 4.409455 3.000000
      vertex 30.286475 3.608322 3.000000
    endloop
  endfacet
  facet normal 1.000000 0.000000 0.000000
    outer loop
      vertex 30.286475 3.608322 0.000000
      vertex 30.286475 4.409455 0.000000
      vertex 30.286475 3.608322 3.000000
    endloop
  endfacet
  facet normal 0.991228 0.132164 0.000000
    outer loop
      vertex 30.180594 5.203560 3.000000
      vertex 30.286475 4.409455 3.000000
      vertex 30.286475 4.409455 0.000000
    endloop
  endfacet
  facet normal 0.991228 0.132164 0.000000
    outer loop
      vertex 30.180594 5.203560 0.000000
      vertex 30.180594 5.203560 3.000000
      vertex 30.286475 4.409455 0.000000
    endloop
  endfacet
  facet normal 0.432002 -0.901873 0.000000
    outer loop
      vertex 30.286475 5.254277 0.000000
      vertex 30.286475 5.254277 3.000000
      vertex 30.180594 5.203560 3.000000
    endloop
  endfacet
  facet normal 0.432002 -0.901873 0.000000
    outer loop
      vertex 30.180594 5.203560 0.000000
      vertex 30.286475 5.254277 0.000000
      vertex 30.180594 5.203560 3.000000
    endloop
  endfacet
  facet normal 1.000000 0.000000 0.000000
    outer loop
      vertex 30.286475 5.371678 0.000000
      vertex 30.286475 5.371678 3.000000
      vertex 30.286475 5.254277 3.000000
    endloop
  endfacet
  facet normal 1.000000 0.000000 0.000000
    outer loop
      vertex 30.286475 5.254277 0.000000
      vertex 30.286475 5.371678 0.000000
      vertex 30.286475 5.254277 3.000000
    endloop
  endfacet
  facet normal 0.309017 -0.951056 0.000000
    outer loop
      vertex 31.048397 5.619242 0.000000
      vertex 31.048397 5.619242 3.000000
      vertex 30.286475 5.371678 3.000000
    endloop
  endfacet
  facet normal 0.309017 -0.951056 0.000000
    outer loop
      vertex 30.286475 5.371678 0.000000
      vertex 31.048397 5.619242 0.000000
      vertex 30.286475 5.371678 3.000000
    endloop
  endfacet
  facet normal 0.432002 -0.901873 0.000000
    outer loop
      vertex 31.331362 5.754783 0.000000
      vertex 31.331362 5.754783 3.000000
      vertex 31.048397 5.619242 3.000000
    endloop
  endfacet
  facet normal 0.432002 -0.901873 0.000000
    outer loop
      vertex 31.048397 5.619242 0.000000
      vertex 31.331362 5.754783 0.000000
      vertex 31.048397 5.619242 3.000000
    endloop
  endfacet
  facet normal 0.991228 0.132164 0.000000
    outer loop
      vertex 31.301754 5.976842 3.000000
      vertex 31.331362 5.754783 3.000000
      vertex 31.331362 5.754783 0.000000
    endloop
  endfacet
  facet normal 0.991228 0.132164 0.000000
    outer loop
      vertex 31.301754 5.976842 0.000000
      vertex 31.301754 5.976842 3.000000
      vertex 31.331362 5.754783 0.000000
    endloop
  endfacet
  facet normal 0.132164 -0.991228 0.000000
    outer loop
      vertex 45.000000 7.803275 0.000000
      vertex 45.000000 7.803275 3.000000
      vertex 31.301754 5.976842 3.000000
    endloop
  endfacet
  facet normal 0.132164 -0.991228 0.000000
    outer loop
      vertex 31.301754 5.976842 0.000000
      vertex 45.000000 7.803275 0.000000
      vertex 31.301754 5.976842 3.000000
    endloop
  endfacet
  facet normal 1.000000 0.000000 -0.000000
    outer loop
      vertex 45.000000 7.803275 3.000000
      vertex 45.000000 7.803275 0.000000
      vertex 45.000000 10.990000 0.000000
    endloop
  endfacet
  facet normal 1.000000 0.000000 0.000000
    outer loop
      vertex 45.000000 10.990000 3.000000
      vertex 45.000000 7.803275 3.000000
      vertex 45.000000 10.990000 0.000000
    endloop
  endfacet
  facet normal 0.000000 1.000000 0.000000
    outer loop
      vertex 44.974984 10.990000 0.000000
      vertex 44.974984 10.990000 3.000000
      vertex 45.000000 10.990000 0.000000
    endloop
  endfacet
  facet normal 0.000000 1.000000 0.000000
    outer loop
      vertex 45.000000 10.990000 0.000000
      vertex 44.974984 10.990000 3.000000
      vertex 45.000000 10.990000 3.000000
    endloop
  endfacet
  facet normal -0.998752 -0.049938 0.000000
    outer loop
      vertex 44.975047 10.988752 3.000000
      vertex 44.974984 10.990000 3.000000
      vertex 44.975047 10.988752 0.000000
    endloop
  endfacet
  facet normal -0.998752 -0.049938 0.000000
    outer loop
      vertex 44.975047 10.988752 0.000000
      vertex 44.974984 10.990000 3.000000
      vertex 44.974984 10.990000 0.000000
    endloop
  endfacet
  facet normal -0.049938 0.998752 0.000000
    outer loop
      vertex 44.975047 10.988752 3.000000
      vertex 44.975047 10.988752 0.000000
      vertex 25.000000 9.990000 3.000000
    endloop
  endfacet
  facet normal -0.049938 0.998752 0.000000
    outer loop
      vertex 25.000000 9.990000 3.000000
      vertex 44.975047 10.988752 0.000000
      vertex 25.000000 9.990000 0.000000
    endloop
  endfacet
  facet normal 0.049938 0.998752 0.000000
    outer loop
      vertex 5.024953 10.988752 0.000000
      vertex 5.024953 10.988752 3.000000
      vertex 25.000000 9.990000 0.000000
    endloop
  endfacet
  facet normal 0.049938 0.998752 0.000000
    outer loop
      vertex 25.000000 9.990000 0.000000
      vertex 5.024953 10.988752 3.000000
      vertex 25.000000 9.990000 3.000000
    endloop
  endfacet
  facet normal 0.998752 -0.049938 0.000000
    outer loop
      vertex 5.024953 10.988752 3.000000
      vertex 5.024953 10.988752 0.000000
      vertex 5.025016 10.990000 0.000000
    endloop
  endfacet
  facet normal 0.998752 -0.049938 0.000000
    outer loop
      vertex 5.025016 10.990000 3.000000
      vertex 5.024953 10.988752 3.000000
      vertex 5.025016 10.990000 0.000000
    endloop
  endfacet
  facet normal 0.000000 1.000000 0.000000
    outer loop
      vertex 5.000000 10.990000 0.000000
      vertex 5.000000 10.990000 3.000000
      vertex 5.025016 10.990000 0.000000
    endloop
  endfacet
  facet normal 0.000000 1.000000 0.000000
    outer loop
      vertex 5.025016 10.990000 0.000000
      vertex 5.000000 10.990000 3.000000
      vertex 5.025016 10.990000 3.000000
    endloop
  endfacet
  facet normal -1.000000 -0.000000 -0.000000
    outer loop
      vertex 5.000000 7.803275 0.000000
      vertex 5.000000 7.803275 3.000000
      vertex 5.000000 10.990000 0.000000
    endloop
  endfacet
  facet normal -1.000000 0.000000 0.000000
    outer loop
      vertex 5.000000 10.990000 0.000000
      vertex 5.000000 7.803275 3.000000
      vertex 5.000000 10.990000 3.000000
    endloop
  endfacet
  facet normal -0.132164 -0.991228 0.000000
    outer loop
      vertex 5.000000 7.803275 3.000000
      vertex 5.000000 7.803275 0.000000
      vertex 18.698246 5.976842 0.000000
    endloop
  endfacet
  facet normal -0.132164 -0.991228 0.000000
    outer loop
      vertex 18.698246 5.976842 3.000000
      vertex 5.000000 7.803275 3.000000
      vertex 18.698246 5.976842 0.000000
    endloop
  endfacet
  facet normal -0.991228 0.132164 0.000000
    outer loop
      vertex 18.668638 5.754783 0.000000
      vertex 18.668638 5.754783 3.000000
      vertex 18.698246 5.976842 0.000000
    endloop
  endfacet
  facet normal -0.991228 0.132164 0.000000
    outer loop
      vertex 18.698246 5.976842 0.000000
      vertex 18.668638 5.754783 3.000000
      vertex 18.698246 5.976842 3.000000
    endloop
  endfacet
  facet normal -0.432002 -0.901873 0.000000
    outer loop
      vertex 18.668638 5.754783 3.000000
      vertex 18.668638 5.754783 0.000000
      vertex 18.951603 5.619242 0.000000
    endloop
  endfacet
  facet normal -0.432002 -0.901873 0.000000
    outer loop
      vertex 18.951603 5.619242 3.000000
      vertex 18.668638 5.754783 3.000000
      vertex 18.951603 5.619242 0.000000
    endloop
  endfacet
  facet normal -0.309017 -0.951056 0.000000
    outer loop
      vertex 18.951603 5.619242 3.000000
      vertex 18.951603 5.619242 0.000000
      vertex 19.713525 5.371678 0.000000
    endloop
  endfacet
  facet normal -0.309017 -0.951056 0.000000
    outer loop
      vertex 19.713525 5.371678 3.000000
      vertex 18.951603 5.619242 3.000000
      vertex 19.713525 5.371678 0.000000
    endloop
  endfacet
  facet normal -1.000000 -0.000000 -0.000000
    outer loop
      vertex 19.713525 5.254277 0.000000
      vertex 19.713525 5.254277 3.000000
      vertex 19.713525 5.371678 0.000000
    endloop
  endfacet
  facet normal -1.000000 0.000000 0.000000
    outer loop
      vertex 19.713525 5.371678 0.000000
      vertex 19.713525 5.254277 3.000000
      vertex 19.713525 5.371678 3.000000
    endloop
  endfacet
  facet normal -0.432002 -0.901873 0.000000
    outer loop
      vertex 19.713525 5.254277 3.000000
      vertex 19.713525 5.254277 0.000000
      vertex 19.819406 5.203560 0.000000
    endloop
  endfacet
  facet normal -0.432002 -0.901873 0.000000
    outer loop
      vertex 19.819406 5.203560 3.000000
      vertex 19.713525 5.254277 3.000000
      vertex 19.819406 5.203560 0.000000
    endloop
  endfacet
  facet normal -0.991228 0.132164 0.000000
    outer loop
      vertex 19.713525 4.409455 0.000000
      vertex 19.713525 4.409455 3.000000
      vertex 19.819406 5.203560 0.000000
    endloop
  endfacet
  facet normal -0.991228 0.132164 0.000000
    outer loop
      vertex 19.819406 5.203560 0.000000
      vertex 19.713525 4.409455 3.000000
      vertex 19.819406 5.203560 3.000000
    endloop
  endfacet
  facet normal -1.000000 -0.000000 -0.000000
    outer loop
      vertex 19.713525 3.608322 0.000000
      vertex 19.713525 3.608322 3.000000
      vertex 19.713525 4.409455 0.000000
    endloop
  endfacet
  facet normal -1.000000 0.000000 0.000000
    outer loop
      vertex 19.713525 4.409455 0.000000
      vertex 19.713525 3.608322 3.000000
      vertex 19.713525 4.409455 3.000000
    endloop
  endfacet
  facet normal -0.309017 0.951056 0.000000
    outer loop
      vertex 19.601870 3.572043 0.000000
      vertex 19.601870 3.572043 3.000000
      vertex 19.713525 3.608322 0.000000
    endloop
  endfacet
  facet normal -0.309017 0.951056 0.000000
    outer loop
      vertex 19.713525 3.608322 0.000000
      vertex 19.601870 3.572043 3.000000
      vertex 19.713525 3.608322 3.000000
    endloop
  endfacet
  facet normal -0.991228 0.132164 0.000000
    outer loop
      vertex 19.586354 3.455672 0.000000
      vertex 19.586354 3.455672 3.000000
      vertex 19.601870 3.572043 0.000000
    endloop
  endfacet
  facet normal -0.991228 0.132164 0.000000
    outer loop
      vertex 19.601870 3.572043 0.000000
      vertex 19.586354 3.455672 3.000000
      vertex 19.601870 3.572043 3.000000
    endloop
  endfacet
  facet normal -0.180611 0.983555 0.000000
    outer loop
      vertex 18.798397 3.310979 0.000000
      vertex 18.798397 3.310979 3.000000
      vertex 19.586354 3.455672 0.000000
    endloop
  endfacet
  facet normal -0.180611 0.983555 0.000000
    outer loop
      vertex 19.586354 3.455672 0.000000
      vertex 18.798397 3.310979 3.000000
      vertex 19.586354 3.455672 3.000000
    endloop
  endfacet
  facet normal -0.309017 0.951056 0.000000
    outer loop
      vertex 18.500000 3.214024 0.000000
      vertex 18.500000 3.214024 3.000000
      vertex 18.798397 3.310979 0.000000
    endloop
  endfacet
  facet normal -0.309017 0.951056 0.000000
    outer loop
      vertex 18.798397 3.310979 0.000000
      vertex 18.500000 3.214024 3.000000
      vertex 18.798397 3.310979 3.000000
    endloop
  endfacet
  facet normal -1.000000 -0.000000 -0.000000
    outer loop
      vertex 18.500000 3.000000 0.000000
      vertex 18.500000 3.000000 3.000000
      vertex 18.500000 3.214024 0.000000
    endloop
  endfacet
  facet normal -1.000000 0.000000 0.000000
    outer loop
      vertex 18.500000 3.214024 0.000000
      vertex 18.500000 3.000000 3.000000
      vertex 18.500000 3.214024 3.000000
    endloop
  endfacet
  facet normal 0.923880 -0.382683 0.000000
    outer loop
      vertex 73.585786 6.414214 0.000000
      vertex 73.585786 6.414214 3.000000
      vertex 73.000000 5.000000 3.000000
    endloop
  endfacet
  facet normal 0.923880 -0.382683 0.000000
    outer loop
      vertex 73.000000 5.000000 0.000000
      vertex 73.585786 6.414214 0.000000
      vertex 73.000000 5.000000 3.000000
    endloop
  endfacet
  facet normal 0.923880 0.382683 0.000000
    outer loop
      vertex 73.000000 5.000000 3.000000
      vertex 73.585786 3.585786 3.000000
      vertex 73.585786 3.585786 0.000000
    endloop
  endfacet
  facet normal 0.923880 0.382683 0.000000
    outer loop
      vertex 73.000000 5.000000 0.000000
      vertex 73.000000 5.000000 3.000000
      vertex 73.585786 3.585786 0.000000
    endloop
  endfacet
  facet normal 0.382683 -0.923880 0.000000
    outer loop
      vertex 75.000000 7.000000 0.000000
      vertex 75.000000 7.000000 3.000000
      vertex 73.585786 6.414214 3.000000
    endloop
  endfacet
  facet normal 0.382683 -0.923880 0.000000
    outer loop
      vertex 73.585786 6.414214 0.000000
      vertex 75.000000 7.000000 0.000000
      vertex 73.585786 6.414214 3.000000
    endloop
  endfacet
  facet normal -0.382683 -0.923880 -0.000000
    outer loop
      vertex 76.414214 6.414214 0.000000
      vertex 76.414214 6.414214 3.000000
      vertex 75.000000 7.000000 3.000000
    endloop
  endfacet
  facet normal -0.382683 -0.923880 -0.000000
    outer loop
      vertex 75.000000 7.000000 0.000000
      vertex 76.414214 6.414214 0.000000
      vertex 75.000000 7.000000 3.000000
    endloop
  endfacet
  facet normal -0.923880 -0.382683 0.000000
    outer loop
      vertex 77.000000 5.000000 3.000000
      vertex 76.414214 6.414214 3.000000
      vertex 77.000000 5.000000 0.000000
    endloop
  endfacet
  facet normal -0.923880 -0.382683 0.000000
    outer loop
      vertex 77.000000 5.000000 0.000000
      vertex 76.414214 6.414214 3.000000
      vertex 76.414214 6.414214 0.000000
    endloop
  endfacet
  facet normal -0.923880 0.382683 0.000000
    outer loop
      vertex 77.000000 5.000000 3.000000
      vertex 77.000000 5.000000 0.000000
      vertex 76.414214 3.585786 3.000000
    endloop
  endfacet
  facet normal -0.923880 0.382683 0.000000
    outer loop
      vertex 76.414214 3.585786 3.000000
      vertex 77.000000 5.000000 0.000000
      vertex 76.414214 3.585786 0.000000
    endloop
  endfacet
  facet normal -0.382683 0.923880 0.000000
    outer loop
      vertex 76.414214 3.585786 3.000000
      vertex 76.414214 3.585786 0.000000
      vertex 75.000000 3.000000 3.000000
    endloop
  endfacet
  facet normal -0.382683 0.923880 0.000000
    outer loop
      vertex 75.000000 3.000000 3.000000
      vertex 76.414214 3.585786 0.000000
      vertex 75.000000 3.000000 0.000000
    endloop
  endfacet
  facet normal 0.382683 0.923880 -0.000000
    outer loop
      vertex 75.000000 3.000000 3.000000
      vertex 75.000000 3.000000 0.000000
      vertex 73.585786 3.585786 3.000000
    endloop
  endfacet
  facet normal 0.382683 0.923880 -0.000000
    outer loop
      vertex 73.585786 3.585786 3.000000
      vertex 75.000000 3.000000 0.000000
      vertex 73.585786 3.585786 0.000000
    endloop
  endfacet
  facet normal 0.923880 -0.382683 0.000000
    outer loop
      vertex 93.585786 6.414214 0.000000
      vertex 93.585786 6.414214 3.000000
      vertex 93.000000 5.000000 3.000000
    endloop
  endfacet
  facet normal 0.923880 -0.382683 0.000000
    outer loop
      vertex 93.000000 5.000000 0.000000
      vertex 93.585786 6.414214 0.000000
      vertex 93.000000 5.000000 3.000000
    endloop
  endfacet
  facet normal 0.923880 0.382683 0.000000
    outer loop
      vertex 93.000000 5.000000 3.000000
      vertex 93.585786 3.585786 3.000000
      vertex 93.585786 3.585786 0.000000
    endloop
  endfacet
  facet normal 0.923880 0.382683 0.000000
    outer loop
      vertex 93.000000 5.000000 0.000000
      vertex 93.000000 5.000000 3.000000
      vertex 93.585786 3.585786 0.000000
    endloop
  endfacet
  facet normal 0.382683 -0.923880 0.000000
    outer loop
      vertex 95.000000 7.000000 0.000000
      vertex 95.000000 7.000000 3.000000
      vertex 93.585786 6.414214 3.000000
    endloop
  endfacet
  facet normal 0.382683 -0.923880 0.000000
    outer loop
      vertex 93.585786 6.414214 0.000000
      vertex 95.000000 7.000000 0.000000
      vertex 93.585786 6.414214 3.000000
    endloop
  endfacet
  facet normal -0.382683 -0.923880 -0.000000
    outer loop
      vertex 96.414214 6.414214 0.000000
      vertex 96.414214 6.414214 3.000000
      vertex 95.000000 7.000000 3.000000
    endloop
  endfacet
  facet normal -0.382683 -0.923880 -0.000000
    outer loop
      vertex 95.000000 7.000000 0.000000
      vertex 96.414214 6.414214 0.000000
      vertex 95.000000 7.000000 3.000000
    endloop
  endfacet
  facet normal -0.923880 -0.382683 0.000000
    outer loop
      vertex 97.000000 5.000000 3.000000
      vertex 96.414214 6.414214 3.000000
      vertex 97.000000 5.000000 0.000000
    endloop
  endfacet
  facet normal -0.923880 -0.382683 0.000000
    outer loop
      vertex 97.000000 5.000000 0.000000
      vertex 96.414214 6.414214 3.000000
      vertex 96.414214 6.414214 0.000000
    endloop
  endfacet
  facet normal -0.923880 0.382683 0.000000
    outer loop
      vertex 97.000000 5.000000 3.000000
      vertex 97.000000 5.000000 0.000000
      vertex 96.414214 3.585786 3.000000
    endloop
  endfacet
  facet normal -0.923880 0.382683 0.000000
    outer loop
      vertex 96.414214 3.585786 3.000000
      vertex 97.000000 5.000000 0.000000
      vertex 96.414214 3.585786 0.000000
    endloop
  endfacet
  facet normal -0.382683 0.923880 0.000000
    outer loop
      vertex 96.414214 3.585786 3.000000
      vertex 96.414214 3.585786 0.000000
      vertex 95.000000 3.000000 3.000000
    endloop
  endfacet
  facet normal -0.382683 0.923880 0.000000
    outer loop
      vertex 95.000000 3.000000 3.000000
      vertex 96.414214 3.585786 0.000000
      vertex 95.000000 3.000000 0.000000
    endloop
  endfacet
  facet normal 0.382683 0.923880 -0.000000
    outer loop
      vertex 95.000000 3.000000 3.000000
      vertex 95.000000 3.000000 0.000000
      vertex 93.585786 3.585786 3.000000
    endloop
  endfacet
  facet normal 0.382683 0.923880 -0.000000
    outer loop
      vertex 93.585786 3.585786 3.000000
      vertex 95.000000 3.000000 0.000000
      vertex 93.585786 3.585786 0.000000
    endloop
  endfacet
endsolid OpenSCAD_Model
