solid OpenSCAD_Model
  facet normal 0.000000 -1.000000 0.000000
    outer loop
      vertex 0.000000 0.000000 15.000000
      vertex 0.000000 0.000000 6.500000
      vertex 2.500000 0.000000 4.000000
    endloop
  endfacet
  facet normal 0.000000 -1.000000 -0.000000
    outer loop
      vertex 20.100000 0.000000 10.100000
      vertex 25.000000 0.000000 15.000000
      vertex 0.000000 0.000000 15.000000
    endloop
  endfacet
  facet normal 0.000000 -1.000000 0.000000
    outer loop
      vertex 20.000000 0.000000 5.000000
      vertex 0.000000 0.000000 15.000000
      vertex 2.500000 0.000000 4.000000
    endloop
  endfacet
  facet normal 0.000000 -1.000000 0.000000
    outer loop
      vertex 70.000000 0.000000 10.000000
      vertex 65.000000 0.000000 10.000000
      vertex 70.000000 0.000000 9.000000
    endloop
  endfacet
  facet normal 0.000000 -1.000000 0.000000
    outer loop
      vertex 70.000000 0.000000 9.000000
      vertex 60.000000 0.000000 5.000000
      vertex 65.000000 0.000000 4.000000
    endloop
  endfacet
  facet normal 0.000000 -1.000000 0.000000
    outer loop
      vertex 65.000000 0.000000 4.000000
      vertex 25.000000 0.000000 5.000000
      vertex 2.500000 0.000000 4.000000
    endloop
  endfacet
  facet normal 0.000000 -1.000000 0.000000
    outer loop
      vertex 25.000000 0.000000 5.000000
      vertex 20.000000 0.000000 5.000000
      vertex 2.500000 0.000000 4.000000
    endloop
  endfacet
  facet normal 0.000000 -1.000000 0.000000
    outer loop
      vertex 20.100000 0.000000 10.100000
      vertex 0.000000 0.000000 15.000000
      vertex 20.000000 0.000000 10.100000
    endloop
  endfacet
  facet normal 0.000000 -1.000000 0.000000
    outer loop
      vertex 20.000000 0.000000 5.000000
      vertex 20.000000 0.000000 10.100000
      vertex 0.000000 0.000000 15.000000
    endloop
  endfacet
  facet normal 0.000000 -1.000000 0.000000
    outer loop
      vertex 65.000000 0.000000 10.000000
      vertex 60.000000 0.000000 5.000000
      vertex 70.000000 0.000000 9.000000
    endloop
  endfacet
  facet normal 0.000000 -1.000000 0.000000
    outer loop
      vertex 60.000000 0.000000 5.000000
      vertex 25.000000 0.000000 5.000000
      vertex 65.000000 0.000000 4.000000
    endloop
  endfacet
  facet normal -0.707107 -0.000000 -0.707107
    outer loop
      vertex 2.500000 25.000000 4.000000
      vertex 6.500000 21.000000 0.000000
      vertex 0.000000 25.000000 6.500000
    endloop
  endfacet
  facet normal -0.707107 0.000000 -0.707107
    outer loop
      vertex 0.000000 25.000000 6.500000
      vertex 6.500000 21.000000 0.000000
      vertex 6.500000 4.000000 0.000000
    endloop
  endfacet
  facet normal -0.707107 0.000000 -0.707107
    outer loop
      vertex 0.000000 25.000000 6.500000
      vertex 6.500000 4.000000 0.000000
      vertex 2.500000 0.000000 4.000000
    endloop
  endfacet
  facet normal -0.707107 0.000000 -0.707107
    outer loop
      vertex 0.000000 25.000000 6.500000
      vertex 2.500000 0.000000 4.000000
      vertex 0.000000 0.000000 6.500000
    endloop
  endfacet
  facet normal -1.000000 -0.000000 -0.000000
    outer loop
      vertex 0.000000 0.000000 6.500000
      vertex 0.000000 0.000000 15.000000
      vertex 0.000000 25.000000 6.500000
    endloop
  endfacet
  facet normal -1.000000 0.000000 0.000000
    outer loop
      vertex 0.000000 25.000000 6.500000
      vertex 0.000000 0.000000 15.000000
      vertex 0.000000 25.000000 15.000000
    endloop
  endfacet
  facet normal 0.000000 -0.000000 1.000000
    outer loop
      vertex 11.500000 10.767949 15.000000
      vertex 0.000000 0.000000 15.000000
      vertex 25.000000 0.000000 15.000000
    endloop
  endfacet
  facet normal 0.000000 -0.000000 1.000000
    outer loop
      vertex 0.000000 25.000000 15.000000
      vertex 0.000000 0.000000 15.000000
      vertex 10.767949 11.500000 15.000000
    endloop
  endfacet
  facet normal -0.000000 -0.000000 1.000000
    outer loop
      vertex 12.500000 10.500000 15.000000
      vertex 11.500000 10.767949 15.000000
      vertex 25.000000 0.000000 15.000000
    endloop
  endfacet
  facet normal 0.000000 0.000000 1.000000
    outer loop
      vertex 0.000000 25.000000 15.000000
      vertex 10.767949 11.500000 15.000000
      vertex 10.500000 12.500000 15.000000
    endloop
  endfacet
  facet normal 0.000000 0.000000 1.000000
    outer loop
      vertex 14.232051 13.500000 15.000000
      vertex 14.500000 12.500000 15.000000
      vertex 25.000000 0.000000 15.000000
    endloop
  endfacet
  facet normal 0.000000 0.000000 1.000000
    outer loop
      vertex 0.000000 25.000000 15.000000
      vertex 10.500000 12.500000 15.000000
      vertex 10.767949 13.500000 15.000000
    endloop
  endfacet
  facet normal 0.000000 0.000000 1.000000
    outer loop
      vertex 25.000000 25.000000 15.000000
      vertex 0.000000 25.000000 15.000000
      vertex 11.500000 14.232051 15.000000
    endloop
  endfacet
  facet normal 0.000000 0.000000 1.000000
    outer loop
      vertex 25.000000 25.000000 15.000000
      vertex 11.500000 14.232051 15.000000
      vertex 12.500000 14.500000 15.000000
    endloop
  endfacet
  facet normal 0.000000 -0.000000 1.000000
    outer loop
      vertex 14.500000 12.500000 15.000000
      vertex 14.232051 11.500000 15.000000
      vertex 25.000000 0.000000 15.000000
    endloop
  endfacet
  facet normal 0.000000 0.000000 1.000000
    outer loop
      vertex 25.000000 25.000000 15.000000
      vertex 12.500000 14.500000 15.000000
      vertex 13.500000 14.232051 15.000000
    endloop
  endfacet
  facet normal 0.000000 0.000000 1.000000
    outer loop
      vertex 25.000000 25.000000 15.000000
      vertex 14.232051 13.500000 15.000000
      vertex 25.000000 0.000000 15.000000
    endloop
  endfacet
  facet normal 0.000000 0.000000 1.000000
    outer loop
      vertex 25.000000 25.000000 15.000000
      vertex 13.500000 14.232051 15.000000
      vertex 14.232051 13.500000 15.000000
    endloop
  endfacet
  facet normal 0.000000 -0.000000 1.000000
    outer loop
      vertex 10.767949 11.500000 15.000000
      vertex 0.000000 0.000000 15.000000
      vertex 11.500000 10.767949 15.000000
    endloop
  endfacet
  facet normal 0.000000 -0.000000 1.000000
    outer loop
      vertex 13.500000 10.767949 15.000000
      vertex 12.500000 10.500000 15.000000
      vertex 25.000000 0.000000 15.000000
    endloop
  endfacet
  facet normal 0.000000 0.000000 1.000000
    outer loop
      vertex 10.767949 13.500000 15.000000
      vertex 11.500000 14.232051 15.000000
      vertex 0.000000 25.000000 15.000000
    endloop
  endfacet
  facet normal 0.000000 -0.000000 1.000000
    outer loop
      vertex 14.232051 11.500000 15.000000
      vertex 13.500000 10.767949 15.000000
      vertex 25.000000 0.000000 15.000000
    endloop
  endfacet
  facet normal 0.707107 0.000000 -0.707107
    outer loop
      vertex 25.000000 25.000000 15.000000
      vertex 25.000000 0.000000 15.000000
      vertex 20.100000 25.000000 10.100000
    endloop
  endfacet
  facet normal 0.707107 0.000000 -0.707107
    outer loop
      vertex 20.100000 25.000000 10.100000
      vertex 25.000000 0.000000 15.000000
      vertex 20.100000 0.000000 10.100000
    endloop
  endfacet
  facet normal 0.000000 0.000000 -1.000000
    outer loop
      vertex 20.100000 25.000000 10.100000
      vertex 20.100000 0.000000 10.100000
      vertex 20.000000 25.000000 10.100000
    endloop
  endfacet
  facet normal 0.000000 0.000000 -1.000000
    outer loop
      vertex 20.000000 25.000000 10.100000
      vertex 20.100000 0.000000 10.100000
      vertex 20.000000 0.000000 10.100000
    endloop
  endfacet
  facet normal 1.000000 0.000000 0.000000
    outer loop
      vertex 20.000000 25.000000 5.000000
      vertex 20.000000 25.000000 10.100000
      vertex 20.000000 0.000000 10.100000
    endloop
  endfacet
  facet normal 1.000000 0.000000 0.000000
    outer loop
      vertex 20.000000 0.000000 5.000000
      vertex 20.000000 25.000000 5.000000
      vertex 20.000000 0.000000 10.100000
    endloop
  endfacet
  facet normal 0.000000 0.000000 1.000000
    outer loop
      vertex 25.000000 0.000000 5.000000
      vertex 25.000000 25.000000 5.000000
      vertex 20.000000 25.000000 5.000000
    endloop
  endfacet
  facet normal 0.000000 0.000000 1.000000
    outer loop
      vertex 20.000000 0.000000 5.000000
      vertex 25.000000 0.000000 5.000000
      vertex 20.000000 25.000000 5.000000
    endloop
  endfacet
  facet normal 0.000000 0.000000 1.000000
    outer loop
      vertex 60.000000 0.000000 5.000000
      vertex 60.000000 25.000000 5.000000
      vertex 25.000000 25.000000 5.000000
    endloop
  endfacet
  facet normal 0.000000 0.000000 1.000000
    outer loop
      vertex 25.000000 0.000000 5.000000
      vertex 60.000000 0.000000 5.000000
      vertex 25.000000 25.000000 5.000000
    endloop
  endfacet
  facet normal -0.707107 0.000000 0.707107
    outer loop
      vertex 65.000000 0.000000 10.000000
      vertex 65.000000 25.000000 10.000000
      vertex 60.000000 25.000000 5.000000
    endloop
  endfacet
  facet normal -0.707107 0.000000 0.707107
    outer loop
      vertex 60.000000 0.000000 5.000000
      vertex 65.000000 0.000000 10.000000
      vertex 60.000000 25.000000 5.000000
    endloop
  endfacet
  facet normal 0.000000 0.000000 1.000000
    outer loop
      vertex 70.000000 0.000000 10.000000
      vertex 70.000000 25.000000 10.000000
      vertex 65.000000 25.000000 10.000000
    endloop
  endfacet
  facet normal 0.000000 0.000000 1.000000
    outer loop
      vertex 65.000000 0.000000 10.000000
      vertex 70.000000 0.000000 10.000000
      vertex 65.000000 25.000000 10.000000
    endloop
  endfacet
  facet normal 1.000000 0.000000 -0.000000
    outer loop
      vertex 70.000000 0.000000 10.000000
      vertex 70.000000 0.000000 9.000000
      vertex 70.000000 25.000000 9.000000
    endloop
  endfacet
  facet normal 1.000000 0.000000 0.000000
    outer loop
      vertex 70.000000 25.000000 10.000000
      vertex 70.000000 0.000000 10.000000
      vertex 70.000000 25.000000 9.000000
    endloop
  endfacet
  facet normal 0.707107 0.000000 -0.707107
    outer loop
      vertex 65.000000 25.000000 4.000000
      vertex 70.000000 25.000000 9.000000
      vertex 61.000000 21.000000 0.000000
    endloop
  endfacet
  facet normal 0.707107 0.000000 -0.707107
    outer loop
      vertex 61.000000 21.000000 0.000000
      vertex 70.000000 25.000000 9.000000
      vertex 70.000000 0.000000 9.000000
    endloop
  endfacet
  facet normal 0.707107 -0.000000 -0.707107
    outer loop
      vertex 61.000000 21.000000 0.000000
      vertex 70.000000 0.000000 9.000000
      vertex 65.000000 0.000000 4.000000
    endloop
  endfacet
  facet normal 0.707107 0.000000 -0.707107
    outer loop
      vertex 61.000000 21.000000 0.000000
      vertex 65.000000 0.000000 4.000000
      vertex 61.000000 4.000000 0.000000
    endloop
  endfacet
  facet normal -0.000000 -0.707107 -0.707107
    outer loop
      vertex 6.500000 4.000000 0.000000
      vertex 61.000000 4.000000 0.000000
      vertex 65.000000 0.000000 4.000000
    endloop
  endfacet
  facet normal -0.000000 -0.707107 -0.707107
    outer loop
      vertex 2.500000 0.000000 4.000000
      vertex 6.500000 4.000000 0.000000
      vertex 65.000000 0.000000 4.000000
    endloop
  endfacet
  facet normal 0.000000 1.000000 0.000000
    outer loop
      vertex 0.000000 25.000000 6.500000
      vertex 0.000000 25.000000 15.000000
      vertex 2.500000 25.000000 4.000000
    endloop
  endfacet
  facet normal 0.000000 1.000000 0.000000
    outer loop
      vertex 2.500000 25.000000 4.000000
      vertex 0.000000 25.000000 15.000000
      vertex 25.000000 25.000000 15.000000
    endloop
  endfacet
  facet normal 0.000000 1.000000 0.000000
    outer loop
      vertex 20.000000 25.000000 10.100000
      vertex 25.000000 25.000000 15.000000
      vertex 20.100000 25.000000 10.100000
    endloop
  endfacet
  facet normal 0.000000 1.000000 0.000000
    outer loop
      vertex 2.500000 25.000000 4.000000
      vertex 25.000000 25.000000 15.000000
      vertex 20.000000 25.000000 10.100000
    endloop
  endfacet
  facet normal 0.000000 1.000000 -0.000000
    outer loop
      vertex 20.000000 25.000000 5.000000
      vertex 25.000000 25.000000 5.000000
      vertex 2.500000 25.000000 4.000000
    endloop
  endfacet
  facet normal 0.000000 1.000000 -0.000000
    outer loop
      vertex 25.000000 25.000000 5.000000
      vertex 60.000000 25.000000 5.000000
      vertex 2.500000 25.000000 4.000000
    endloop
  endfacet
  facet normal 0.000000 1.000000 0.000000
    outer loop
      vertex 60.000000 25.000000 5.000000
      vertex 65.000000 25.000000 10.000000
      vertex 70.000000 25.000000 10.000000
    endloop
  endfacet
  facet normal 0.000000 1.000000 0.000000
    outer loop
      vertex 60.000000 25.000000 5.000000
      vertex 70.000000 25.000000 10.000000
      vertex 70.000000 25.000000 9.000000
    endloop
  endfacet
  facet normal 0.000000 1.000000 0.000000
    outer loop
      vertex 60.000000 25.000000 5.000000
      vertex 70.000000 25.000000 9.000000
      vertex 65.000000 25.000000 4.000000
    endloop
  endfacet
  facet normal 0.000000 1.000000 -0.000000
    outer loop
      vertex 60.000000 25.000000 5.000000
      vertex 65.000000 25.000000 4.000000
      vertex 2.500000 25.000000 4.000000
    endloop
  endfacet
  facet normal -0.000000 1.000000 0.000000
    outer loop
      vertex 20.000000 25.000000 5.000000
      vertex 2.500000 25.000000 4.000000
      vertex 20.000000 25.000000 10.100000
    endloop
  endfacet
  facet normal -0.000000 -0.000000 -1.000000
    outer loop
      vertex 14.500000 15.964101 0.000000
      vertex 6.500000 21.000000 0.000000
      vertex 61.000000 4.000000 0.000000
    endloop
  endfacet
  facet normal 0.000000 0.000000 -1.000000
    outer loop
      vertex 61.000000 4.000000 0.000000
      vertex 6.500000 21.000000 0.000000
      vertex 61.000000 21.000000 0.000000
    endloop
  endfacet
  facet normal 0.000000 -0.000000 -1.000000
    outer loop
      vertex 6.500000 4.000000 0.000000
      vertex 6.500000 21.000000 0.000000
      vertex 8.500000 12.500000 0.000000
    endloop
  endfacet
  facet normal 0.000000 0.000000 -1.000000
    outer loop
      vertex 6.500000 4.000000 0.000000
      vertex 8.500000 12.500000 0.000000
      vertex 8.587410 11.668353 0.000000
    endloop
  endfacet
  facet normal 0.000000 0.000000 -1.000000
    outer loop
      vertex 6.500000 4.000000 0.000000
      vertex 8.587410 11.668353 0.000000
      vertex 8.845819 10.873054 0.000000
    endloop
  endfacet
  facet normal 0.000000 0.000000 -1.000000
    outer loop
      vertex 6.500000 4.000000 0.000000
      vertex 8.845819 10.873054 0.000000
      vertex 9.263932 10.148859 0.000000
    endloop
  endfacet
  facet normal 0.000000 0.000000 -1.000000
    outer loop
      vertex 6.500000 4.000000 0.000000
      vertex 9.263932 10.148859 0.000000
      vertex 9.823478 9.527420 0.000000
    endloop
  endfacet
  facet normal 0.000000 0.000000 -1.000000
    outer loop
      vertex 6.500000 4.000000 0.000000
      vertex 9.823478 9.527420 0.000000
      vertex 10.500000 9.035899 0.000000
    endloop
  endfacet
  facet normal 0.000000 0.000000 -1.000000
    outer loop
      vertex 6.500000 4.000000 0.000000
      vertex 10.500000 9.035899 0.000000
      vertex 11.263932 8.695774 0.000000
    endloop
  endfacet
  facet normal 0.000000 0.000000 -1.000000
    outer loop
      vertex 6.500000 4.000000 0.000000
      vertex 11.263932 8.695774 0.000000
      vertex 12.081886 8.521912 0.000000
    endloop
  endfacet
  facet normal -0.000000 0.000000 -1.000000
    outer loop
      vertex 6.500000 4.000000 0.000000
      vertex 12.081886 8.521912 0.000000
      vertex 61.000000 4.000000 0.000000
    endloop
  endfacet
  facet normal 0.000000 0.000000 -1.000000
    outer loop
      vertex 12.081886 8.521912 0.000000
      vertex 12.918114 8.521912 0.000000
      vertex 61.000000 4.000000 0.000000
    endloop
  endfacet
  facet normal 0.000000 0.000000 -1.000000
    outer loop
      vertex 14.500000 9.035899 0.000000
      vertex 61.000000 4.000000 0.000000
      vertex 13.736068 8.695774 0.000000
    endloop
  endfacet
  facet normal 0.000000 0.000000 -1.000000
    outer loop
      vertex 15.176522 9.527420 0.000000
      vertex 61.000000 4.000000 0.000000
      vertex 14.500000 9.035899 0.000000
    endloop
  endfacet
  facet normal 0.000000 0.000000 -1.000000
    outer loop
      vertex 15.736068 10.148859 0.000000
      vertex 61.000000 4.000000 0.000000
      vertex 15.176522 9.527420 0.000000
    endloop
  endfacet
  facet normal 0.000000 0.000000 -1.000000
    outer loop
      vertex 16.154181 10.873054 0.000000
      vertex 61.000000 4.000000 0.000000
      vertex 15.736068 10.148859 0.000000
    endloop
  endfacet
  facet normal 0.000000 0.000000 -1.000000
    outer loop
      vertex 16.412590 11.668353 0.000000
      vertex 61.000000 4.000000 0.000000
      vertex 16.154181 10.873054 0.000000
    endloop
  endfacet
  facet normal -0.000000 -0.000000 -1.000000
    outer loop
      vertex 13.736068 16.304226 0.000000
      vertex 6.500000 21.000000 0.000000
      vertex 14.500000 15.964101 0.000000
    endloop
  endfacet
  facet normal -0.000000 0.000000 -1.000000
    outer loop
      vertex 16.412590 11.668353 0.000000
      vertex 16.500000 12.500000 0.000000
      vertex 61.000000 4.000000 0.000000
    endloop
  endfacet
  facet normal 0.000000 -0.000000 -1.000000
    outer loop
      vertex 11.263932 16.304226 0.000000
      vertex 6.500000 21.000000 0.000000
      vertex 12.081886 16.478088 0.000000
    endloop
  endfacet
  facet normal -0.000000 -0.000000 -1.000000
    outer loop
      vertex 16.500000 12.500000 0.000000
      vertex 16.412590 13.331647 0.000000
      vertex 61.000000 4.000000 0.000000
    endloop
  endfacet
  facet normal -0.000000 -0.000000 -1.000000
    outer loop
      vertex 16.412590 13.331647 0.000000
      vertex 16.154181 14.126946 0.000000
      vertex 61.000000 4.000000 0.000000
    endloop
  endfacet
  facet normal -0.000000 -0.000000 -1.000000
    outer loop
      vertex 12.081886 16.478088 0.000000
      vertex 6.500000 21.000000 0.000000
      vertex 12.918114 16.478088 0.000000
    endloop
  endfacet
  facet normal -0.000000 -0.000000 -1.000000
    outer loop
      vertex 16.154181 14.126946 0.000000
      vertex 15.736068 14.851141 0.000000
      vertex 61.000000 4.000000 0.000000
    endloop
  endfacet
  facet normal -0.000000 -0.000000 -1.000000
    outer loop
      vertex 12.918114 16.478088 0.000000
      vertex 6.500000 21.000000 0.000000
      vertex 13.736068 16.304226 0.000000
    endloop
  endfacet
  facet normal -0.000000 -0.000000 -1.000000
    outer loop
      vertex 15.736068 14.851141 0.000000
      vertex 15.176522 15.472580 0.000000
      vertex 61.000000 4.000000 0.000000
    endloop
  endfacet
  facet normal -0.000000 -0.000000 -1.000000
    outer loop
      vertex 15.176522 15.472580 0.000000
      vertex 14.500000 15.964101 0.000000
      vertex 61.000000 4.000000 0.000000
    endloop
  endfacet
  facet normal 0.000000 -0.000000 -1.000000
    outer loop
      vertex 10.500000 15.964101 0.000000
      vertex 6.500000 21.000000 0.000000
      vertex 11.263932 16.304226 0.000000
    endloop
  endfacet
  facet normal 0.000000 -0.000000 -1.000000
    outer loop
      vertex 9.823478 15.472580 0.000000
      vertex 6.500000 21.000000 0.000000
      vertex 10.500000 15.964101 0.000000
    endloop
  endfacet
  facet normal 0.000000 -0.000000 -1.000000
    outer loop
      vertex 9.263932 14.851141 0.000000
      vertex 6.500000 21.000000 0.000000
      vertex 9.823478 15.472580 0.000000
    endloop
  endfacet
  facet normal 0.000000 -0.000000 -1.000000
    outer loop
      vertex 8.845819 14.126946 0.000000
      vertex 6.500000 21.000000 0.000000
      vertex 9.263932 14.851141 0.000000
    endloop
  endfacet
  facet normal 0.000000 -0.000000 -1.000000
    outer loop
      vertex 8.587410 13.331647 0.000000
      vertex 6.500000 21.000000 0.000000
      vertex 8.845819 14.126946 0.000000
    endloop
  endfacet
  facet normal 0.000000 -0.000000 -1.000000
    outer loop
      vertex 8.500000 12.500000 0.000000
      vertex 6.500000 21.000000 0.000000
      vertex 8.587410 13.331647 0.000000
    endloop
  endfacet
  facet normal 0.000000 0.000000 -1.000000
    outer loop
      vertex 13.736068 8.695774 0.000000
      vertex 61.000000 4.000000 0.000000
      vertex 12.918114 8.521912 0.000000
    endloop
  endfacet
  facet normal 0.000000 0.707107 -0.707107
    outer loop
      vertex 61.000000 21.000000 0.000000
      vertex 6.500000 21.000000 0.000000
      vertex 65.000000 25.000000 4.000000
    endloop
  endfacet
  facet normal 0.000000 0.707107 -0.707107
    outer loop
      vertex 65.000000 25.000000 4.000000
      vertex 6.500000 21.000000 0.000000
      vertex 2.500000 25.000000 4.000000
    endloop
  endfacet
  facet normal 0.965926 0.258819 0.000000
    outer loop
      vertex 10.500000 12.500000 15.000000
      vertex 10.767949 11.500000 15.000000
      vertex 10.767949 11.500000 1.988983
    endloop
  endfacet
  facet normal 0.965926 0.258819 -0.000000
    outer loop
      vertex 10.607771 12.097794 2.065497
      vertex 10.500000 12.500000 15.000000
      vertex 10.713167 11.704451 2.044067
    endloop
  endfacet
  facet normal 0.965926 0.258819 -0.000000
    outer loop
      vertex 10.713167 11.704451 2.044067
      vertex 10.500000 12.500000 15.000000
      vertex 10.767949 11.500000 1.988983
    endloop
  endfacet
  facet normal 0.965926 0.258819 0.000000
    outer loop
      vertex 10.500000 12.500000 2.000000
      vertex 10.500000 12.500000 15.000000
      vertex 10.607771 12.097794 2.065497
    endloop
  endfacet
  facet normal 0.707107 0.707107 -0.000000
    outer loop
      vertex 11.500000 10.767949 15.000000
      vertex 11.500000 10.767949 2.000000
      vertex 10.767949 11.500000 15.000000
    endloop
  endfacet
  facet normal 0.707107 0.707107 -0.000000
    outer loop
      vertex 10.767949 11.500000 15.000000
      vertex 11.500000 10.767949 2.000000
      vertex 11.205565 11.062384 2.065497
    endloop
  endfacet
  facet normal 0.707107 0.707107 -0.000000
    outer loop
      vertex 11.205565 11.062384 2.065497
      vertex 10.917617 11.350332 2.044068
      vertex 10.767949 11.500000 15.000000
    endloop
  endfacet
  facet normal 0.707107 0.707107 0.000000
    outer loop
      vertex 10.917617 11.350332 2.044068
      vertex 10.767949 11.500000 1.988983
      vertex 10.767949 11.500000 15.000000
    endloop
  endfacet
  facet normal 0.258819 0.965926 -0.000000
    outer loop
      vertex 12.500000 10.500000 15.000000
      vertex 12.500000 10.500000 1.988984
      vertex 11.500000 10.767949 15.000000
    endloop
  endfacet
  facet normal 0.258819 0.965926 -0.000000
    outer loop
      vertex 11.500000 10.767949 15.000000
      vertex 12.500000 10.500000 1.988984
      vertex 12.295549 10.554782 2.044068
    endloop
  endfacet
  facet normal 0.258819 0.965926 0.000000
    outer loop
      vertex 11.500000 10.767949 15.000000
      vertex 12.295549 10.554782 2.044068
      vertex 11.902206 10.660178 2.065497
    endloop
  endfacet
  facet normal 0.258819 0.965926 0.000000
    outer loop
      vertex 11.902206 10.660178 2.065497
      vertex 11.500000 10.767949 2.000000
      vertex 11.500000 10.767949 15.000000
    endloop
  endfacet
  facet normal -0.258819 0.965926 0.000000
    outer loop
      vertex 13.500000 10.767949 15.000000
      vertex 13.500000 10.767949 2.000000
      vertex 12.500000 10.500000 15.000000
    endloop
  endfacet
  facet normal -0.258819 0.965926 0.000000
    outer loop
      vertex 12.500000 10.500000 15.000000
      vertex 13.500000 10.767949 2.000000
      vertex 13.097794 10.660178 2.065497
    endloop
  endfacet
  facet normal -0.258819 0.965926 -0.000000
    outer loop
      vertex 12.500000 10.500000 15.000000
      vertex 13.097794 10.660178 2.065497
      vertex 12.704451 10.554782 2.044068
    endloop
  endfacet
  facet normal -0.258819 0.965926 0.000000
    outer loop
      vertex 12.704451 10.554782 2.044068
      vertex 12.500000 10.500000 1.988984
      vertex 12.500000 10.500000 15.000000
    endloop
  endfacet
  facet normal -0.707107 0.707107 0.000000
    outer loop
      vertex 14.232051 11.500000 15.000000
      vertex 14.232051 11.500000 1.988983
      vertex 13.500000 10.767949 15.000000
    endloop
  endfacet
  facet normal -0.707107 0.707107 -0.000000
    outer loop
      vertex 13.500000 10.767949 15.000000
      vertex 14.232051 11.500000 1.988983
      vertex 14.082383 11.350332 2.044068
    endloop
  endfacet
  facet normal -0.707107 0.707107 0.000000
    outer loop
      vertex 13.500000 10.767949 15.000000
      vertex 14.082383 11.350332 2.044068
      vertex 13.794435 11.062384 2.065497
    endloop
  endfacet
  facet normal -0.707107 0.707107 0.000000
    outer loop
      vertex 13.794435 11.062384 2.065497
      vertex 13.500000 10.767949 2.000000
      vertex 13.500000 10.767949 15.000000
    endloop
  endfacet
  facet normal -0.965926 0.258819 0.000000
    outer loop
      vertex 14.500000 12.500000 15.000000
      vertex 14.500000 12.500000 2.000000
      vertex 14.232051 11.500000 15.000000
    endloop
  endfacet
  facet normal -0.965926 0.258819 0.000000
    outer loop
      vertex 14.232051 11.500000 15.000000
      vertex 14.500000 12.500000 2.000000
      vertex 14.392229 12.097794 2.065497
    endloop
  endfacet
  facet normal -0.965926 0.258819 -0.000000
    outer loop
      vertex 14.232051 11.500000 15.000000
      vertex 14.392229 12.097794 2.065497
      vertex 14.286833 11.704451 2.044067
    endloop
  endfacet
  facet normal -0.965926 0.258819 0.000000
    outer loop
      vertex 14.286833 11.704451 2.044067
      vertex 14.232051 11.500000 1.988983
      vertex 14.232051 11.500000 15.000000
    endloop
  endfacet
  facet normal -0.965926 -0.258819 0.000000
    outer loop
      vertex 14.392229 12.902206 2.065497
      vertex 14.500000 12.500000 2.000000
      vertex 14.500000 12.500000 15.000000
    endloop
  endfacet
  facet normal -0.965926 -0.258819 0.000000
    outer loop
      vertex 14.392229 12.902206 2.065497
      vertex 14.500000 12.500000 15.000000
      vertex 14.286833 13.295549 2.044067
    endloop
  endfacet
  facet normal -0.965926 -0.258819 0.000000
    outer loop
      vertex 14.500000 12.500000 15.000000
      vertex 14.232051 13.500000 15.000000
      vertex 14.286833 13.295549 2.044067
    endloop
  endfacet
  facet normal -0.965926 -0.258819 0.000000
    outer loop
      vertex 14.232051 13.500000 15.000000
      vertex 14.232051 13.500000 1.988983
      vertex 14.286833 13.295549 2.044067
    endloop
  endfacet
  facet normal -0.707107 -0.707107 0.000000
    outer loop
      vertex 14.232051 13.500000 15.000000
      vertex 13.794435 13.937616 2.065497
      vertex 14.082383 13.649668 2.044068
    endloop
  endfacet
  facet normal -0.707107 -0.707107 0.000000
    outer loop
      vertex 13.500000 14.232051 2.000000
      vertex 13.794435 13.937616 2.065497
      vertex 14.232051 13.500000 15.000000
    endloop
  endfacet
  facet normal -0.707107 -0.707107 -0.000000
    outer loop
      vertex 14.232051 13.500000 1.988983
      vertex 14.232051 13.500000 15.000000
      vertex 14.082383 13.649668 2.044068
    endloop
  endfacet
  facet normal -0.707107 -0.707107 0.000000
    outer loop
      vertex 14.232051 13.500000 15.000000
      vertex 13.500000 14.232051 15.000000
      vertex 13.500000 14.232051 2.000000
    endloop
  endfacet
  facet normal -0.258819 -0.965926 0.000000
    outer loop
      vertex 12.704451 14.445218 2.044068
      vertex 13.097794 14.339822 2.065497
      vertex 13.500000 14.232051 15.000000
    endloop
  endfacet
  facet normal -0.258819 -0.965926 0.000000
    outer loop
      vertex 13.500000 14.232051 15.000000
      vertex 13.097794 14.339822 2.065497
      vertex 13.500000 14.232051 2.000000
    endloop
  endfacet
  facet normal -0.258819 -0.965926 0.000000
    outer loop
      vertex 12.704451 14.445218 2.044068
      vertex 13.500000 14.232051 15.000000
      vertex 12.500000 14.500000 15.000000
    endloop
  endfacet
  facet normal -0.258819 -0.965926 0.000000
    outer loop
      vertex 12.704451 14.445218 2.044068
      vertex 12.500000 14.500000 15.000000
      vertex 12.500000 14.500000 1.988984
    endloop
  endfacet
  facet normal 0.258819 -0.965926 0.000000
    outer loop
      vertex 11.902206 14.339822 2.065497
      vertex 12.295549 14.445218 2.044068
      vertex 12.500000 14.500000 15.000000
    endloop
  endfacet
  facet normal 0.258819 -0.965926 0.000000
    outer loop
      vertex 12.500000 14.500000 15.000000
      vertex 12.295549 14.445218 2.044068
      vertex 12.500000 14.500000 1.988984
    endloop
  endfacet
  facet normal 0.258819 -0.965926 0.000000
    outer loop
      vertex 11.902206 14.339822 2.065497
      vertex 12.500000 14.500000 15.000000
      vertex 11.500000 14.232051 15.000000
    endloop
  endfacet
  facet normal 0.258819 -0.965926 0.000000
    outer loop
      vertex 11.902206 14.339822 2.065497
      vertex 11.500000 14.232051 15.000000
      vertex 11.500000 14.232051 2.000000
    endloop
  endfacet
  facet normal 0.707107 -0.707107 -0.000000
    outer loop
      vertex 11.500000 14.232051 15.000000
      vertex 11.205565 13.937616 2.065497
      vertex 11.500000 14.232051 2.000000
    endloop
  endfacet
  facet normal 0.707107 -0.707107 -0.000000
    outer loop
      vertex 10.917617 13.649668 2.044068
      vertex 11.205565 13.937616 2.065497
      vertex 11.500000 14.232051 15.000000
    endloop
  endfacet
  facet normal 0.707107 -0.707107 -0.000000
    outer loop
      vertex 11.500000 14.232051 15.000000
      vertex 10.767949 13.500000 15.000000
      vertex 10.917617 13.649668 2.044068
    endloop
  endfacet
  facet normal 0.707107 -0.707107 0.000000
    outer loop
      vertex 10.767949 13.500000 15.000000
      vertex 10.767949 13.500000 1.988983
      vertex 10.917617 13.649668 2.044068
    endloop
  endfacet
  facet normal 0.965926 -0.258819 0.000000
    outer loop
      vertex 10.607771 12.902206 2.065497
      vertex 10.713167 13.295549 2.044067
      vertex 10.767949 13.500000 15.000000
    endloop
  endfacet
  facet normal 0.965926 -0.258819 0.000000
    outer loop
      vertex 10.767949 13.500000 15.000000
      vertex 10.713167 13.295549 2.044067
      vertex 10.767949 13.500000 1.988983
    endloop
  endfacet
  facet normal 0.965926 -0.258819 0.000000
    outer loop
      vertex 10.607771 12.902206 2.065497
      vertex 10.767949 13.500000 15.000000
      vertex 10.500000 12.500000 15.000000
    endloop
  endfacet
  facet normal 0.965926 -0.258819 0.000000
    outer loop
      vertex 10.607771 12.902206 2.065497
      vertex 10.500000 12.500000 15.000000
      vertex 10.500000 12.500000 2.000000
    endloop
  endfacet
  facet normal 0.705162 -0.074116 -0.705162
    outer loop
      vertex 8.587410 13.331647 0.000000
      vertex 10.607771 12.902206 2.065497
      vertex 10.500000 12.500000 2.000000
    endloop
  endfacet
  facet normal 0.705162 -0.074116 -0.705162
    outer loop
      vertex 8.500000 12.500000 0.000000
      vertex 8.587410 13.331647 0.000000
      vertex 10.500000 12.500000 2.000000
    endloop
  endfacet
  facet normal 0.705162 0.074116 -0.705162
    outer loop
      vertex 10.500000 12.500000 2.000000
      vertex 10.607771 12.097794 2.065497
      vertex 8.587410 11.668353 0.000000
    endloop
  endfacet
  facet normal 0.705162 0.074116 -0.705162
    outer loop
      vertex 8.500000 12.500000 0.000000
      vertex 10.500000 12.500000 2.000000
      vertex 8.587410 11.668353 0.000000
    endloop
  endfacet
  facet normal 0.674343 -0.219108 -0.705162
    outer loop
      vertex 10.713167 13.295549 2.044067
      vertex 10.607771 12.902206 2.065497
      vertex 8.845819 14.126946 0.000000
    endloop
  endfacet
  facet normal 0.674343 -0.219108 -0.705162
    outer loop
      vertex 8.845819 14.126946 0.000000
      vertex 10.607771 12.902206 2.065497
      vertex 8.587410 13.331647 0.000000
    endloop
  endfacet
  facet normal 0.614052 -0.354522 -0.705162
    outer loop
      vertex 10.917617 13.649668 2.044068
      vertex 10.767949 13.500000 1.988983
      vertex 9.263932 14.851141 0.000000
    endloop
  endfacet
  facet normal 0.614052 -0.354522 -0.705162
    outer loop
      vertex 9.263932 14.851141 0.000000
      vertex 10.767949 13.500000 1.988983
      vertex 10.713167 13.295549 2.044067
    endloop
  endfacet
  facet normal 0.614052 -0.354522 -0.705162
    outer loop
      vertex 9.263932 14.851141 0.000000
      vertex 10.713167 13.295549 2.044067
      vertex 8.845819 14.126946 0.000000
    endloop
  endfacet
  facet normal 0.526924 -0.474445 -0.705162
    outer loop
      vertex 11.205565 13.937616 2.065497
      vertex 10.917617 13.649668 2.044068
      vertex 9.823478 15.472580 0.000000
    endloop
  endfacet
  facet normal 0.526924 -0.474445 -0.705162
    outer loop
      vertex 9.823478 15.472580 0.000000
      vertex 10.917617 13.649668 2.044068
      vertex 9.263932 14.851141 0.000000
    endloop
  endfacet
  facet normal 0.416767 -0.573630 -0.705162
    outer loop
      vertex 11.500000 14.232051 2.000000
      vertex 11.205565 13.937616 2.065497
      vertex 10.500000 15.964101 0.000000
    endloop
  endfacet
  facet normal 0.416767 -0.573630 -0.705162
    outer loop
      vertex 10.500000 15.964101 0.000000
      vertex 11.205565 13.937616 2.065497
      vertex 9.823478 15.472580 0.000000
    endloop
  endfacet
  facet normal 0.288395 -0.647746 -0.705162
    outer loop
      vertex 11.902206 14.339822 2.065497
      vertex 11.500000 14.232051 2.000000
      vertex 11.263932 16.304226 0.000000
    endloop
  endfacet
  facet normal 0.288395 -0.647746 -0.705162
    outer loop
      vertex 11.263932 16.304226 0.000000
      vertex 11.500000 14.232051 2.000000
      vertex 10.500000 15.964101 0.000000
    endloop
  endfacet
  facet normal 0.147419 -0.693552 -0.705162
    outer loop
      vertex 12.295549 14.445218 2.044068
      vertex 11.902206 14.339822 2.065497
      vertex 12.081886 16.478088 0.000000
    endloop
  endfacet
  facet normal 0.147419 -0.693552 -0.705162
    outer loop
      vertex 12.081886 16.478088 0.000000
      vertex 11.902206 14.339822 2.065497
      vertex 11.263932 16.304226 0.000000
    endloop
  endfacet
  facet normal -0.000000 -0.709046 -0.705162
    outer loop
      vertex 12.918114 16.478088 0.000000
      vertex 12.704451 14.445218 2.044068
      vertex 12.500000 14.500000 1.988984
    endloop
  endfacet
  facet normal 0.000000 -0.709046 -0.705162
    outer loop
      vertex 12.295549 14.445218 2.044068
      vertex 12.918114 16.478088 0.000000
      vertex 12.500000 14.500000 1.988984
    endloop
  endfacet
  facet normal 0.000000 -0.709046 -0.705162
    outer loop
      vertex 12.295549 14.445218 2.044068
      vertex 12.081886 16.478088 0.000000
      vertex 12.918114 16.478088 0.000000
    endloop
  endfacet
  facet normal -0.147419 -0.693552 -0.705162
    outer loop
      vertex 13.736068 16.304226 0.000000
      vertex 13.097794 14.339822 2.065497
      vertex 12.918114 16.478088 0.000000
    endloop
  endfacet
  facet normal -0.147419 -0.693552 -0.705162
    outer loop
      vertex 12.918114 16.478088 0.000000
      vertex 13.097794 14.339822 2.065497
      vertex 12.704451 14.445218 2.044068
    endloop
  endfacet
  facet normal -0.288395 -0.647746 -0.705162
    outer loop
      vertex 14.500000 15.964101 0.000000
      vertex 13.500000 14.232051 2.000000
      vertex 13.736068 16.304226 0.000000
    endloop
  endfacet
  facet normal -0.288395 -0.647746 -0.705162
    outer loop
      vertex 13.736068 16.304226 0.000000
      vertex 13.500000 14.232051 2.000000
      vertex 13.097794 14.339822 2.065497
    endloop
  endfacet
  facet normal -0.416767 -0.573630 -0.705162
    outer loop
      vertex 15.176522 15.472580 0.000000
      vertex 13.794435 13.937616 2.065497
      vertex 14.500000 15.964101 0.000000
    endloop
  endfacet
  facet normal -0.416767 -0.573630 -0.705162
    outer loop
      vertex 14.500000 15.964101 0.000000
      vertex 13.794435 13.937616 2.065497
      vertex 13.500000 14.232051 2.000000
    endloop
  endfacet
  facet normal -0.526924 -0.474445 -0.705162
    outer loop
      vertex 15.736068 14.851141 0.000000
      vertex 14.082383 13.649668 2.044068
      vertex 15.176522 15.472580 0.000000
    endloop
  endfacet
  facet normal -0.526924 -0.474445 -0.705162
    outer loop
      vertex 15.176522 15.472580 0.000000
      vertex 14.082383 13.649668 2.044068
      vertex 13.794435 13.937616 2.065497
    endloop
  endfacet
  facet normal -0.614052 -0.354522 -0.705162
    outer loop
      vertex 16.154181 14.126946 0.000000
      vertex 14.286833 13.295549 2.044067
      vertex 15.736068 14.851141 0.000000
    endloop
  endfacet
  facet normal -0.614052 -0.354522 -0.705162
    outer loop
      vertex 15.736068 14.851141 0.000000
      vertex 14.286833 13.295549 2.044067
      vertex 14.232051 13.500000 1.988983
    endloop
  endfacet
  facet normal -0.614052 -0.354522 -0.705162
    outer loop
      vertex 15.736068 14.851141 0.000000
      vertex 14.232051 13.500000 1.988983
      vertex 14.082383 13.649668 2.044068
    endloop
  endfacet
  facet normal -0.674343 -0.219108 -0.705162
    outer loop
      vertex 16.412590 13.331647 0.000000
      vertex 14.392229 12.902206 2.065497
      vertex 16.154181 14.126946 0.000000
    endloop
  endfacet
  facet normal -0.674343 -0.219108 -0.705162
    outer loop
      vertex 16.154181 14.126946 0.000000
      vertex 14.392229 12.902206 2.065497
      vertex 14.286833 13.295549 2.044067
    endloop
  endfacet
  facet normal -0.705162 -0.074116 -0.705162
    outer loop
      vertex 16.500000 12.500000 0.000000
      vertex 14.500000 12.500000 2.000000
      vertex 16.412590 13.331647 0.000000
    endloop
  endfacet
  facet normal -0.705162 -0.074116 -0.705162
    outer loop
      vertex 16.412590 13.331647 0.000000
      vertex 14.500000 12.500000 2.000000
      vertex 14.392229 12.902206 2.065497
    endloop
  endfacet
  facet normal -0.705162 0.074116 -0.705162
    outer loop
      vertex 16.500000 12.500000 0.000000
      vertex 16.412590 11.668353 0.000000
      vertex 14.500000 12.500000 2.000000
    endloop
  endfacet
  facet normal -0.705162 0.074116 -0.705162
    outer loop
      vertex 14.500000 12.500000 2.000000
      vertex 16.412590 11.668353 0.000000
      vertex 14.392229 12.097794 2.065497
    endloop
  endfacet
  facet normal -0.674343 0.219108 -0.705162
    outer loop
      vertex 16.412590 11.668353 0.000000
      vertex 16.154181 10.873054 0.000000
      vertex 14.392229 12.097794 2.065497
    endloop
  endfacet
  facet normal -0.674343 0.219108 -0.705162
    outer loop
      vertex 14.392229 12.097794 2.065497
      vertex 16.154181 10.873054 0.000000
      vertex 14.286833 11.704451 2.044067
    endloop
  endfacet
  facet normal -0.614052 0.354522 -0.705162
    outer loop
      vertex 14.286833 11.704451 2.044067
      vertex 16.154181 10.873054 0.000000
      vertex 14.232051 11.500000 1.988983
    endloop
  endfacet
  facet normal -0.614052 0.354522 -0.705162
    outer loop
      vertex 14.232051 11.500000 1.988983
      vertex 16.154181 10.873054 0.000000
      vertex 15.736068 10.148859 0.000000
    endloop
  endfacet
  facet normal -0.614052 0.354522 -0.705162
    outer loop
      vertex 14.232051 11.500000 1.988983
      vertex 15.736068 10.148859 0.000000
      vertex 14.082383 11.350332 2.044068
    endloop
  endfacet
  facet normal -0.526924 0.474445 -0.705162
    outer loop
      vertex 15.736068 10.148859 0.000000
      vertex 15.176522 9.527420 0.000000
      vertex 14.082383 11.350332 2.044068
    endloop
  endfacet
  facet normal -0.526924 0.474445 -0.705162
    outer loop
      vertex 14.082383 11.350332 2.044068
      vertex 15.176522 9.527420 0.000000
      vertex 13.794435 11.062384 2.065497
    endloop
  endfacet
  facet normal -0.416767 0.573630 -0.705162
    outer loop
      vertex 15.176522 9.527420 0.000000
      vertex 14.500000 9.035899 0.000000
      vertex 13.794435 11.062384 2.065497
    endloop
  endfacet
  facet normal -0.416767 0.573630 -0.705162
    outer loop
      vertex 13.794435 11.062384 2.065497
      vertex 14.500000 9.035899 0.000000
      vertex 13.500000 10.767949 2.000000
    endloop
  endfacet
  facet normal -0.288395 0.647746 -0.705162
    outer loop
      vertex 13.500000 10.767949 2.000000
      vertex 14.500000 9.035899 0.000000
      vertex 13.736068 8.695774 0.000000
    endloop
  endfacet
  facet normal -0.288395 0.647746 -0.705162
    outer loop
      vertex 13.500000 10.767949 2.000000
      vertex 13.736068 8.695774 0.000000
      vertex 13.097794 10.660178 2.065497
    endloop
  endfacet
  facet normal -0.147419 0.693552 -0.705162
    outer loop
      vertex 13.736068 8.695774 0.000000
      vertex 12.918114 8.521912 0.000000
      vertex 13.097794 10.660178 2.065497
    endloop
  endfacet
  facet normal -0.147419 0.693552 -0.705162
    outer loop
      vertex 13.097794 10.660178 2.065497
      vertex 12.918114 8.521912 0.000000
      vertex 12.704451 10.554782 2.044068
    endloop
  endfacet
  facet normal 0.000000 0.709046 -0.705162
    outer loop
      vertex 12.500000 10.500000 1.988984
      vertex 12.704451 10.554782 2.044068
      vertex 12.918114 8.521912 0.000000
    endloop
  endfacet
  facet normal -0.000000 0.709046 -0.705162
    outer loop
      vertex 12.500000 10.500000 1.988984
      vertex 12.918114 8.521912 0.000000
      vertex 12.295549 10.554782 2.044068
    endloop
  endfacet
  facet normal 0.000000 0.709046 -0.705162
    outer loop
      vertex 12.918114 8.521912 0.000000
      vertex 12.081886 8.521912 0.000000
      vertex 12.295549 10.554782 2.044068
    endloop
  endfacet
  facet normal 0.147419 0.693552 -0.705162
    outer loop
      vertex 12.295549 10.554782 2.044068
      vertex 12.081886 8.521912 0.000000
      vertex 11.902206 10.660178 2.065497
    endloop
  endfacet
  facet normal 0.147419 0.693552 -0.705162
    outer loop
      vertex 11.902206 10.660178 2.065497
      vertex 12.081886 8.521912 0.000000
      vertex 11.263932 8.695774 0.000000
    endloop
  endfacet
  facet normal 0.288395 0.647746 -0.705162
    outer loop
      vertex 11.500000 10.767949 2.000000
      vertex 11.902206 10.660178 2.065497
      vertex 11.263932 8.695774 0.000000
    endloop
  endfacet
  facet normal 0.288395 0.647746 -0.705162
    outer loop
      vertex 11.263932 8.695774 0.000000
      vertex 10.500000 9.035899 0.000000
      vertex 11.500000 10.767949 2.000000
    endloop
  endfacet
  facet normal 0.416767 0.573630 -0.705162
    outer loop
      vertex 11.500000 10.767949 2.000000
      vertex 10.500000 9.035899 0.000000
      vertex 11.205565 11.062384 2.065497
    endloop
  endfacet
  facet normal 0.416767 0.573630 -0.705162
    outer loop
      vertex 11.205565 11.062384 2.065497
      vertex 10.500000 9.035899 0.000000
      vertex 9.823478 9.527420 0.000000
    endloop
  endfacet
  facet normal 0.526924 0.474445 -0.705162
    outer loop
      vertex 11.205565 11.062384 2.065497
      vertex 9.823478 9.527420 0.000000
      vertex 10.917617 11.350332 2.044068
    endloop
  endfacet
  facet normal 0.526924 0.474445 -0.705162
    outer loop
      vertex 10.917617 11.350332 2.044068
      vertex 9.823478 9.527420 0.000000
      vertex 9.263932 10.148859 0.000000
    endloop
  endfacet
  facet normal 0.614052 0.354522 -0.705162
    outer loop
      vertex 10.767949 11.500000 1.988983
      vertex 10.917617 11.350332 2.044068
      vertex 9.263932 10.148859 0.000000
    endloop
  endfacet
  facet normal 0.614052 0.354522 -0.705162
    outer loop
      vertex 10.767949 11.500000 1.988983
      vertex 9.263932 10.148859 0.000000
      vertex 10.713167 11.704451 2.044067
    endloop
  endfacet
  facet normal 0.614052 0.354522 -0.705162
    outer loop
      vertex 9.263932 10.148859 0.000000
      vertex 8.845819 10.873054 0.000000
      vertex 10.713167 11.704451 2.044067
    endloop
  endfacet
  facet normal 0.674343 0.219108 -0.705162
    outer loop
      vertex 10.713167 11.704451 2.044067
      vertex 8.845819 10.873054 0.000000
      vertex 10.607771 12.097794 2.065497
    endloop
  endfacet
  facet normal 0.674343 0.219108 -0.705162
    outer loop
      vertex 10.607771 12.097794 2.065497
      vertex 8.845819 10.873054 0.000000
      vertex 8.587410 11.668353 0.000000
    endloop
  endfacet
endsolid OpenSCAD_Model
